<svg width="389" height="276" viewBox="0 0 389 276" fill="none" xmlns="http://www.w3.org/2000/svg">
<g clip-path="url(#clip0)">
<path d="M358.708 270.152H353.253L350.657 222.706H358.708V270.152Z" fill="#A0616A"/>
<path d="M349.356 268.408H359.878V275.82H342.732C342.732 274.847 342.903 273.883 343.236 272.984C343.569 272.085 344.057 271.268 344.672 270.579C345.287 269.891 346.018 269.345 346.821 268.973C347.625 268.6 348.486 268.408 349.356 268.408Z" fill="#2F2E41"/>
<path d="M385.926 263.735L380.914 266.145L359.402 221.454L366.799 217.897L385.926 263.735Z" fill="#A0616A"/>
<path d="M376.718 266.264L386.384 261.616L389 268.426L373.247 276C372.904 275.106 372.721 274.145 372.71 273.171C372.698 272.198 372.858 271.232 373.181 270.328C373.503 269.424 373.981 268.599 374.588 267.902C375.195 267.205 375.919 266.648 376.718 266.264Z" fill="#2F2E41"/>
<path d="M306.472 62.7844H211.953C211.206 62.7834 210.49 62.4511 209.962 61.8602C209.434 61.2693 209.136 60.4682 209.136 59.6326V3.15184C209.136 2.31621 209.434 1.51509 209.962 0.924212C210.49 0.333336 211.206 0.000963577 211.953 0H306.472C307.219 0.00096358 307.935 0.333335 308.463 0.924212C308.991 1.51509 309.288 2.31622 309.289 3.15184V59.6326C309.288 60.4682 308.991 61.2693 308.463 61.8602C307.935 62.4511 307.219 62.7834 306.472 62.7844Z" fill="#E6E6E6"/>
<path d="M228.096 39.524C233.836 39.524 238.489 34.3177 238.489 27.8955C238.489 21.4733 233.836 16.2671 228.096 16.2671C222.356 16.2671 217.703 21.4733 217.703 27.8955C217.703 34.3177 222.356 39.524 228.096 39.524Z" fill="white"/>
<path d="M295.02 17.4832H252.586C252.164 17.4832 251.76 17.2959 251.462 16.9624C251.164 16.629 250.996 16.1768 250.996 15.7052C250.996 15.2337 251.164 14.7814 251.462 14.448C251.76 14.1146 252.164 13.9272 252.586 13.9272H295.02C295.441 13.9272 295.846 14.1146 296.144 14.448C296.442 14.7814 296.609 15.2337 296.609 15.7052C296.609 16.1768 296.442 16.629 296.144 16.9624C295.846 17.2959 295.441 17.4832 295.02 17.4832Z" fill="white"/>
<path d="M272.805 25.6111H252.586C252.164 25.6111 251.76 25.4238 251.462 25.0904C251.164 24.7569 250.996 24.3047 250.996 23.8332C250.996 23.3616 251.164 22.9094 251.462 22.5759C251.76 22.2425 252.164 22.0552 252.586 22.0552H272.805C273.227 22.0552 273.631 22.2425 273.929 22.5759C274.227 22.9094 274.394 23.3616 274.394 23.8332C274.394 24.3047 274.227 24.7569 273.929 25.0904C273.631 25.4238 273.227 25.6111 272.805 25.6111Z" fill="white"/>
<path d="M287.046 33.7356H252.586C252.164 33.7356 251.76 33.5483 251.462 33.2149C251.164 32.8814 250.996 32.4292 250.996 31.9577C250.996 31.4861 251.164 31.0339 251.462 30.7004C251.76 30.367 252.164 30.1797 252.586 30.1797H287.046C287.468 30.1797 287.872 30.367 288.17 30.7004C288.468 31.0339 288.635 31.4861 288.635 31.9577C288.635 32.4292 288.468 32.8814 288.17 33.2149C287.872 33.5483 287.468 33.7356 287.046 33.7356Z" fill="white"/>
<path d="M295.02 41.8602H252.586C252.164 41.8602 251.76 41.6728 251.462 41.3394C251.164 41.006 250.996 40.5537 250.996 40.0822C250.996 39.6106 251.164 39.1584 251.462 38.825C251.76 38.4915 252.164 38.3042 252.586 38.3042H295.02C295.441 38.3042 295.846 38.4915 296.144 38.825C296.442 39.1584 296.609 39.6106 296.609 40.0822C296.609 40.5537 296.442 41.006 296.144 41.3394C295.846 41.6728 295.441 41.8602 295.02 41.8602Z" fill="white"/>
<path d="M293.691 56.5587H286.665C286.281 56.5594 285.901 56.4755 285.547 56.3118C285.192 56.148 284.87 55.9077 284.598 55.6044C284.327 55.3012 284.112 54.941 283.965 54.5446C283.818 54.1481 283.742 53.7231 283.742 53.2939C283.742 52.8647 283.818 52.4397 283.965 52.0432C284.112 51.6467 284.327 51.2866 284.598 50.9833C284.87 50.6801 285.192 50.4397 285.547 50.276C285.901 50.1122 286.281 50.0283 286.665 50.0291H293.691C294.465 50.0291 295.207 50.373 295.754 50.9853C296.302 51.5976 296.609 52.428 296.609 53.2939C296.609 54.1598 296.302 54.9902 295.754 55.6025C295.207 56.2147 294.465 56.5587 293.691 56.5587Z" fill="white"/>
<path d="M165.89 68.0446H99.8945C99.373 68.044 98.873 67.8119 98.5043 67.3993C98.1356 66.9868 97.9282 66.4274 97.9276 65.844V26.4077C97.9282 25.8243 98.1356 25.2649 98.5043 24.8523C98.873 24.4398 99.373 24.2077 99.8945 24.207H165.89C166.412 24.2077 166.912 24.4398 167.281 24.8523C167.649 25.2649 167.857 25.8243 167.857 26.4077V65.844C167.857 66.4274 167.649 66.9868 167.281 67.3993C166.912 67.8119 166.412 68.044 165.89 68.0446Z" fill="#F2F2F2"/>
<path d="M111.166 51.8037C115.174 51.8037 118.423 48.1686 118.423 43.6845C118.423 39.2003 115.174 35.5652 111.166 35.5652C107.158 35.5652 103.909 39.2003 103.909 43.6845C103.909 48.1686 107.158 51.8037 111.166 51.8037Z" fill="white"/>
<path d="M157.894 36.4145H128.266C127.971 36.4145 127.689 36.2837 127.481 36.0509C127.273 35.8181 127.156 35.5023 127.156 35.1731C127.156 34.8438 127.273 34.5281 127.481 34.2952C127.689 34.0624 127.971 33.9316 128.266 33.9316H157.894C158.189 33.9316 158.471 34.0624 158.679 34.2952C158.887 34.5281 159.004 34.8438 159.004 35.1731C159.004 35.5023 158.887 35.8181 158.679 36.0509C158.471 36.2837 158.189 36.4145 157.894 36.4145Z" fill="white"/>
<path d="M142.384 42.0896H128.266C127.972 42.0889 127.69 41.9578 127.482 41.7251C127.275 41.4924 127.158 41.177 127.158 40.8481C127.158 40.5193 127.275 40.2039 127.482 39.9712C127.69 39.7384 127.972 39.6073 128.266 39.6067H142.384C142.677 39.6073 142.959 39.7384 143.167 39.9712C143.374 40.2039 143.491 40.5193 143.491 40.8481C143.491 41.177 143.374 41.4924 143.167 41.7251C142.959 41.9578 142.677 42.0889 142.384 42.0896Z" fill="white"/>
<path d="M152.327 47.7622H128.266C127.972 47.7615 127.69 47.6304 127.482 47.3977C127.275 47.1649 127.158 46.8496 127.158 46.5207C127.158 46.1919 127.275 45.8765 127.482 45.6438C127.69 45.411 127.972 45.2799 128.266 45.2793H152.327C152.621 45.2799 152.902 45.411 153.11 45.6438C153.318 45.8765 153.434 46.1919 153.434 46.5207C153.434 46.8496 153.318 47.1649 153.11 47.3977C152.902 47.6304 152.621 47.7615 152.327 47.7622Z" fill="white"/>
<path d="M157.894 53.4348H128.266C127.972 53.4341 127.69 53.303 127.482 53.0703C127.275 52.8375 127.158 52.5222 127.158 52.1933C127.158 51.8645 127.275 51.5491 127.482 51.3164C127.69 51.0836 127.972 50.9526 128.266 50.9519H157.894C158.04 50.9516 158.185 50.9835 158.32 51.0457C158.455 51.1079 158.577 51.1993 158.68 51.3146C158.784 51.43 158.866 51.5669 158.921 51.7177C158.977 51.8685 159.006 52.0301 159.006 52.1933C159.006 52.3566 158.977 52.5182 158.921 52.669C158.866 52.8198 158.784 52.9567 158.68 53.072C158.577 53.1873 158.455 53.2787 158.32 53.341C158.185 53.4032 158.04 53.4351 157.894 53.4348Z" fill="white"/>
<path d="M156.966 63.6978H152.061C151.52 63.6978 151.002 63.4577 150.62 63.0302C150.238 62.6027 150.023 62.0228 150.023 61.4183C150.023 60.8137 150.238 60.2338 150.62 59.8063C151.002 59.3788 151.52 59.1387 152.061 59.1387H156.966C157.507 59.1387 158.025 59.3788 158.407 59.8063C158.789 60.2338 159.004 60.8137 159.004 61.4183C159.004 62.0228 158.789 62.6027 158.407 63.0302C158.025 63.4577 157.507 63.6978 156.966 63.6978Z" fill="white"/>
<path d="M278.783 129.112H155.373C154.398 129.111 153.463 128.677 152.773 127.905C152.084 127.134 151.696 126.088 151.695 124.997V51.2524C151.696 50.1614 152.084 49.1154 152.773 48.3439C153.463 47.5724 154.398 47.1385 155.373 47.1372H278.783C279.758 47.1385 280.693 47.5724 281.383 48.3439C282.072 49.1154 282.46 50.1614 282.461 51.2524V124.997C282.46 126.088 282.072 127.134 281.383 127.905C280.693 128.677 279.758 129.111 278.783 129.112Z" fill="#98CECD"/>
<path d="M176.451 98.7419C183.945 98.7419 190.02 91.9444 190.02 83.5592C190.02 75.174 183.945 68.3765 176.451 68.3765C168.956 68.3765 162.881 75.174 162.881 83.5592C162.881 91.9444 168.956 98.7419 176.451 98.7419Z" fill="white"/>
<path d="M263.831 69.9644H208.426C207.876 69.9644 207.348 69.7198 206.959 69.2845C206.57 68.8491 206.351 68.2586 206.351 67.643C206.351 67.0273 206.57 66.4368 206.959 66.0015C207.348 65.5661 207.876 65.3215 208.426 65.3215H263.831C264.103 65.3215 264.373 65.3816 264.625 65.4982C264.876 65.6149 265.105 65.7859 265.298 66.0015C265.49 66.217 265.643 66.4729 265.747 66.7546C265.852 67.0362 265.905 67.3381 265.905 67.643C265.905 67.9478 265.852 68.2497 265.747 68.5313C265.643 68.813 265.49 69.0689 265.298 69.2845C265.105 69.5 264.876 69.671 264.625 69.7877C264.373 69.9043 264.103 69.9644 263.831 69.9644Z" fill="white"/>
<path d="M234.826 80.5767H208.426C207.876 80.5767 207.348 80.3321 206.959 79.8968C206.57 79.4614 206.351 78.8709 206.351 78.2553C206.351 77.6396 206.57 77.0491 206.959 76.6138C207.348 76.1784 207.876 75.9338 208.426 75.9338H234.826C235.376 75.9338 235.904 76.1784 236.293 76.6138C236.682 77.0491 236.901 77.6396 236.901 78.2553C236.901 78.8709 236.682 79.4614 236.293 79.8968C235.904 80.3321 235.376 80.5767 234.826 80.5767Z" fill="white"/>
<path d="M253.419 91.1843H208.426C207.876 91.1843 207.348 90.9398 206.959 90.5044C206.57 90.0691 206.351 89.4786 206.351 88.8629C206.351 88.2472 206.57 87.6568 206.959 87.2214C207.348 86.7861 207.876 86.5415 208.426 86.5415H253.419C253.97 86.5415 254.497 86.7861 254.886 87.2214C255.276 87.6568 255.494 88.2472 255.494 88.8629C255.494 89.4786 255.276 90.0691 254.886 90.5044C254.497 90.9398 253.97 91.1843 253.419 91.1843Z" fill="white"/>
<path d="M263.831 101.792H208.426C207.876 101.792 207.348 101.547 206.959 101.112C206.57 100.677 206.351 100.086 206.351 99.4706C206.351 98.8549 206.57 98.2644 206.959 97.8291C207.348 97.3937 207.876 97.1492 208.426 97.1492H263.831C264.381 97.1492 264.909 97.3937 265.298 97.8291C265.687 98.2644 265.905 98.8549 265.905 99.4706C265.905 100.086 265.687 100.677 265.298 101.112C264.909 101.547 264.381 101.792 263.831 101.792Z" fill="white"/>
<path d="M262.095 120.983H252.922C252.421 120.984 251.925 120.874 251.463 120.66C251 120.446 250.579 120.132 250.225 119.736C249.871 119.34 249.59 118.87 249.398 118.353C249.207 117.835 249.108 117.281 249.108 116.72C249.108 116.16 249.207 115.606 249.398 115.088C249.59 114.571 249.871 114.101 250.225 113.705C250.579 113.309 251 112.995 251.463 112.781C251.925 112.567 252.421 112.457 252.922 112.458H262.095C262.596 112.457 263.092 112.567 263.555 112.781C264.017 112.995 264.438 113.309 264.792 113.705C265.146 114.101 265.427 114.571 265.619 115.088C265.811 115.606 265.909 116.16 265.909 116.72C265.909 117.281 265.811 117.835 265.619 118.353C265.427 118.87 265.146 119.34 264.792 119.736C264.438 120.132 264.017 120.446 263.555 120.66C263.092 120.874 262.596 120.984 262.095 120.983Z" fill="white"/>
<path d="M386.728 222.779C386.728 222.779 375.914 161.09 374.209 155.89C373.27 153.048 372.651 150.981 372.651 150.981L340.873 153.014L340.613 155.89L336.329 228.037C336.329 228.037 337.844 223.452 339.203 222.61C340.561 221.767 340.418 228.027 340.418 228.027" fill="#2F2E41"/>
<path d="M341.116 152.989H368.931C368.15 149.862 368.931 146.964 370.047 144.74C370.827 143.178 371.808 141.753 372.959 140.511L373.15 140.32L382.868 137.909L383.391 137.781C383.391 137.781 383.468 118.026 377.218 115.315C373.784 113.846 370.558 111.83 367.639 109.329C367.352 109.075 367 108.931 366.634 108.917L352.991 108.358C352.571 108.342 352.161 108.497 351.835 108.793C349.58 110.822 342.407 114.896 338.55 117.026C337.873 117.4 337.35 118.051 337.091 118.845C336.831 119.638 336.855 120.513 337.157 121.288C338.697 125.244 341.314 131.861 341.589 131.861C341.981 131.861 341.116 152.989 341.116 152.989Z" fill="#98CECD"/>
<path d="M359.974 120.948L373.046 158.766C373.046 158.766 364.208 161.046 355.684 149.39L352.608 141.878L345.677 113.247L359.974 120.948Z" fill="#F6F8FB"/>
<path d="M363.444 100.702C373.242 100.702 381.185 91.8146 381.185 80.8518C381.185 69.889 373.242 61.002 363.444 61.002C353.646 61.002 345.703 69.889 345.703 80.8518C345.703 91.8146 353.646 100.702 363.444 100.702Z" fill="#2F2E41"/>
<path d="M352.19 147.358C352.675 148.038 353.344 148.526 354.096 148.748C354.849 148.97 355.645 148.915 356.368 148.591L365.872 152.752L369.039 144.741L358.329 143.194C358.122 142.667 357.816 142.196 357.432 141.812C357.048 141.428 356.596 141.14 356.105 140.967C355.614 140.794 355.096 140.74 354.585 140.809C354.074 140.878 353.582 141.068 353.142 141.367C352.702 141.665 352.324 142.065 352.033 142.54C351.742 143.015 351.544 143.554 351.454 144.121C351.364 144.688 351.383 145.27 351.51 145.828C351.637 146.386 351.869 146.908 352.19 147.358Z" fill="#A0616A"/>
<path d="M360.754 105.487C367.024 105.487 372.108 99.7993 372.108 92.7834C372.108 85.7676 367.024 80.0801 360.754 80.0801C354.483 80.0801 349.4 85.7676 349.4 92.7834C349.4 99.7993 354.483 105.487 360.754 105.487Z" fill="#A0616A"/>
<path d="M376.72 84.3695C370.683 88.0477 363.886 89.8849 357.014 89.6969C354.381 89.6205 351.481 89.0848 349.814 86.8041C347.933 84.2308 348.403 80.2101 350.218 77.5776C352.032 74.9451 354.871 73.4611 357.703 72.4546C360.382 71.5024 363.253 70.8891 366.001 71.5548C367.451 71.9061 368.816 72.6026 370.004 73.5971C371.192 74.5915 372.175 75.8605 372.885 77.3178C373.596 78.7751 374.017 80.3864 374.122 82.0423C374.226 83.6982 374.01 85.3597 373.489 86.9139" fill="#2F2E41"/>
<path d="M375.993 77.9468C381.489 77.9468 385.945 72.9614 385.945 66.8116C385.945 60.6617 381.489 55.6763 375.993 55.6763C370.496 55.6763 366.04 60.6617 366.04 66.8116C366.04 72.9614 370.496 77.9468 375.993 77.9468Z" fill="#2F2E41"/>
<path d="M379.557 132.532L383.387 137.781L384.168 152.029C384.168 152.029 385.174 159.284 377.761 157.537C370.348 155.79 360.808 152.392 360.808 152.392C360.808 152.392 365.885 144.159 363.619 141.801L374.246 145.648C374.246 145.648 376.042 145.209 374.634 143.462C373.227 141.715 372.979 138.565 372.979 138.565L379.557 132.532Z" fill="#98CECD"/>
<path d="M359.889 144.868C359.151 145.145 358.353 145.148 357.613 144.878C356.873 144.608 356.231 144.078 355.781 143.368L345.78 141.094L347.004 132.443L356.75 137.644C357.18 137.327 357.666 137.117 358.174 137.027C358.683 136.938 359.202 136.97 359.698 137.123C360.195 137.276 360.656 137.545 361.052 137.913C361.448 138.281 361.769 138.739 361.994 139.257C362.219 139.775 362.343 140.341 362.357 140.917C362.371 141.492 362.275 142.065 362.076 142.596C361.877 143.127 361.579 143.604 361.201 143.996C360.824 144.388 360.377 144.685 359.889 144.868Z" fill="#A0616A"/>
<path d="M346.688 124.863C346.688 124.863 344.953 127.358 342.923 127.971C340.894 128.585 342.19 130.043 342.19 130.043L352.982 133.262C349.935 133.868 350.208 143.866 350.208 143.866C350.208 143.866 340.546 140.929 333.472 137.897C326.398 134.865 330.76 129.381 330.76 129.381L338.325 117.886L344.088 115.802L346.688 124.863Z" fill="#98CECD"/>
<path d="M15.7626 260.664L20.9694 263.168L32.0785 241.889L24.3939 238.193L15.7626 260.664Z" fill="#FFB8B8"/>
<path d="M28.9332 273.406L12.5688 265.537L15.286 258.463L25.5643 263.405C27.1784 264.182 28.4509 265.643 29.1018 267.469C29.7526 269.295 29.7285 271.335 29.0348 273.141L28.9332 273.406L28.9332 273.406Z" fill="#2F2E41"/>
<path d="M51.6785 267.834H57.3461L60.0432 243.376H51.6785V267.834Z" fill="#FFB8B8"/>
<path d="M68.2759 273.722H50.4642V266.022H61.6514C63.4083 266.022 65.0933 266.803 66.3356 268.193C67.5779 269.583 68.2759 271.469 68.2759 273.434V273.722L68.2759 273.722Z" fill="#2F2E41"/>
<g opacity="0.1">
<path opacity="0.1" d="M17.1773 81.2351L17.4983 81.3119C17.4046 81.2408 17.2893 81.2132 17.1773 81.2351Z" fill="url(#paint0_linear)"/>
</g>
<path d="M61.2503 245.933L48.2142 246.511C45.0316 244.117 35.1511 187.565 35.1511 187.565C35.2185 188.003 33.9149 243.694 33.9149 243.694H19.8899L12.9993 156.849L20.6046 160.275C20.6046 160.275 55.4296 157.116 57.0524 159.364C57.394 160.098 61.2503 245.933 61.2503 245.933Z" fill="#2F2E41"/>
<path d="M31.8916 95.3197C38.1622 95.3197 43.2455 89.6323 43.2455 82.6164C43.2455 75.6006 38.1622 69.9131 31.8916 69.9131C25.621 69.9131 20.5377 75.6006 20.5377 82.6164C20.5377 89.6323 25.621 95.3197 31.8916 95.3197Z" fill="#FFB8B8"/>
<path d="M51.1305 182.898C50.6411 182.178 50.3721 181.301 50.3631 180.397C50.3542 179.492 50.6059 178.608 51.081 177.877L49.7474 166.108L57.7637 164.573L56.438 177.036C56.8595 177.404 57.2059 177.868 57.4543 178.398C57.7027 178.928 57.8472 179.511 57.8782 180.108C57.9093 180.705 57.8262 181.303 57.6344 181.861C57.4426 182.42 57.1466 182.926 56.7661 183.346C56.3856 183.767 55.9294 184.091 55.4279 184.299C54.9263 184.506 54.391 184.591 53.8577 184.549C53.3244 184.507 52.8052 184.337 52.335 184.053C51.8647 183.768 51.4541 183.375 51.1305 182.898H51.1305Z" fill="#FFB8B8"/>
<path d="M33.6118 74.0957L33.8627 74.1557C33.7889 74.1012 33.6993 74.0798 33.6118 74.0957Z" fill="#E1E7EF"/>
<path d="M28.2457 77.855C30.7177 78.4592 33.2331 79.0355 35.7578 78.8477C38.2825 78.6598 40.8574 77.614 42.4968 75.4577C44.1362 73.3013 44.5896 69.9156 43.1345 67.5996C41.4043 64.8457 37.9347 64.5155 34.9266 64.4457L25.4484 64.2258C23.5757 64.1824 21.6106 64.1619 19.952 65.1359C17.0705 66.8279 16.0757 70.9378 16.1333 74.5783C16.2096 78.0596 16.9578 81.4814 18.3268 84.6088C19.6958 87.7363 21.6531 90.4955 24.0645 92.6973C25.3472 93.8524 27.4591 94.7307 28.4368 93.2484C28.8632 92.602 24.7006 85.1638 24.6886 84.3606C24.6188 79.6919 28.717 81.5935 28.6472 76.9248" fill="#2F2E41"/>
<path d="M17.3041 160.054C28.1084 169.508 40.0344 174.273 53.5344 172.457C47.8327 150.058 46.1416 127.829 51.6418 105.905L40.286 100.157L24.8746 99.2493L15.5972 102.302C14.2921 102.732 13.1495 103.63 12.3455 104.858C11.5414 106.086 11.1203 107.575 11.1471 109.097C11.4747 127.795 13.0104 145.294 17.3041 160.054Z" fill="#E6E6E6"/>
<path d="M51.3713 174.272L58.4011 175.179L56.7551 116.774C56.6816 114.165 55.9379 111.634 54.613 109.485C53.2881 107.335 51.438 105.658 49.2839 104.654L46.775 103.484L47.4509 130.862L51.3713 174.272Z" fill="#E6E6E6"/>
<path d="M16.9134 170.332C16.2093 169.888 15.6519 169.201 15.3238 168.375C14.9957 167.548 14.9143 166.625 15.0917 165.742L9.70422 155.525L16.523 150.566L19.7138 162.598C20.2311 162.749 20.7136 163.023 21.129 163.399C21.5445 163.776 21.8834 164.247 22.1232 164.782C22.3629 165.316 22.498 165.902 22.5194 166.5C22.5408 167.098 22.4481 167.694 22.2473 168.248C22.0465 168.803 21.7424 169.303 21.3552 169.715C20.968 170.128 20.5066 170.443 20.0018 170.64C19.497 170.838 18.9604 170.912 18.4279 170.859C17.8953 170.806 17.379 170.626 16.9134 170.332Z" fill="#FFB8B8"/>
<path d="M14.0595 165.801L20.6412 160.37L13.5187 136.76L16.0873 102.123C10.5077 104.085 4.51657 109.356 3.52979 115.806L0 138.878L14.0595 165.801Z" fill="#E6E6E6"/>
<path opacity="0.2" d="M16.8434 131.199L13.9464 144.164L20.5202 162.561L15.5063 145.161L16.8434 131.199Z" fill="black"/>
<path opacity="0.2" d="M45.5371 137.92L47.7734 165.701L43.9867 138.114L45.5371 137.92Z" fill="black"/>
</g>
<defs>
<linearGradient id="paint0_linear" x1="17.3378" y1="81.3311" x2="17.3378" y2="81.2447" gradientUnits="userSpaceOnUse">
<stop stop-color="#808080" stop-opacity="0.25"/>
<stop offset="0.54" stop-color="#808080" stop-opacity="0.12"/>
<stop offset="1" stop-color="#808080" stop-opacity="0.1"/>
</linearGradient>
<clipPath id="clip0">
<rect width="389" height="276" fill="white"/>
</clipPath>
</defs>
</svg>
