<svg width="407" height="332" viewBox="0 0 407 332" fill="none" xmlns="http://www.w3.org/2000/svg">
<g clip-path="url(#clip0)">
<path d="M204.435 332C316.308 332 407 324.879 407 316.094C407 307.31 316.308 300.189 204.435 300.189C92.561 300.189 1.86938 307.31 1.86938 316.094C1.86938 324.879 92.561 332 204.435 332Z" fill="#3F3D56"/>
<path d="M376.503 286.546L378.401 300.539L365.111 301.811L367.01 284.638L376.503 286.546Z" fill="#A0616A"/>
<path d="M313.85 94.4553C313.85 94.4553 315.116 111.629 315.116 112.265C315.116 112.901 306.256 156.789 306.256 156.789C306.256 156.789 293.599 180.96 306.256 180.324C318.913 179.688 315.116 157.425 315.116 157.425L328.406 120.534L322.71 94.4553L313.85 94.4553Z" fill="#A0616A"/>
<path d="M334.734 286.546L332.836 300.539L346.126 301.811L344.227 284.638L334.734 286.546Z" fill="#A0616A"/>
<path d="M320.178 155.517L317.014 159.97C317.014 159.97 315.116 179.052 317.014 185.412C318.913 191.773 322.71 221.032 322.71 222.94C322.71 224.848 323.343 226.12 322.71 226.756C322.077 227.392 320.178 227.392 321.444 228.664C322.71 229.937 322.71 233.753 322.71 233.753V236.933L330.937 284.002C330.937 284.002 325.874 289.726 329.671 289.726C333.468 289.726 347.391 289.726 346.758 283.366L345.493 282.73C345.493 282.73 343.594 240.75 344.227 238.841C344.86 236.933 344.227 233.117 344.227 233.117C344.227 233.117 342.961 231.209 344.227 230.573C345.493 229.937 345.493 224.848 345.493 224.848L351.188 186.048C351.188 186.048 356.251 212.127 359.415 214.671C362.58 217.215 361.947 223.576 361.947 223.576L364.478 279.549C364.478 279.549 361.947 285.91 364.478 287.182C367.01 288.454 377.768 292.907 378.401 286.546C379.034 280.185 382.198 224.848 382.198 222.304C382.198 219.76 381.565 218.487 382.198 216.579C382.831 214.671 381.565 214.671 382.198 214.671C382.831 214.671 380.933 212.763 380.933 211.491V180.324C380.933 180.324 381.565 173.963 382.198 172.691C382.831 171.419 381.565 170.147 382.198 168.238C382.831 166.33 380.933 159.97 380.933 159.97L352.454 152.337L320.178 155.517Z" fill="#2F2E41"/>
<path d="M342.328 297.995C342.328 297.995 345.493 294.815 341.063 294.815C338.219 294.873 335.417 295.523 332.836 296.723L329.671 308.172C329.671 308.172 316.698 318.667 331.253 317.395C345.809 316.123 343.594 317.077 343.594 317.077C343.594 317.077 348.024 315.805 348.657 314.533C349.29 313.261 347.391 294.815 347.391 294.815C347.391 294.815 345.493 299.903 342.328 297.995Z" fill="#2F2E41"/>
<path d="M369.541 297.995C369.541 297.995 366.377 294.815 370.807 294.815C373.651 294.873 376.452 295.523 379.034 296.723L382.199 308.172C382.199 308.172 395.172 318.667 380.616 317.395C366.061 316.123 366.377 317.077 366.377 317.077C366.377 317.077 361.947 315.805 361.314 314.533C360.681 313.261 364.479 294.815 364.479 294.815C364.479 294.815 366.377 299.903 369.541 297.995Z" fill="#2F2E41"/>
<path d="M328.406 44.2063C337.493 44.2063 344.86 36.8022 344.86 27.6687C344.86 18.5352 337.493 11.1311 328.406 11.1311C319.318 11.1311 311.951 18.5352 311.951 27.6687C311.951 36.8022 319.318 44.2063 328.406 44.2063Z" fill="#A0616A"/>
<path d="M322.71 39.7539C322.71 39.7539 325.241 52.4752 325.241 54.3834C325.241 56.2915 336 62.0161 336 62.0161L348.024 46.7506C348.024 46.7506 340.43 35.9376 340.43 33.3933L322.71 39.7539Z" fill="#A0616A"/>
<path d="M332.203 56.2916C332.203 56.2916 326.687 54.8161 325.015 52.3736C325.015 52.3736 307.521 69.649 307.521 72.8293L321.444 97.6357C321.444 97.6357 321.444 106.541 322.71 107.177C323.975 107.813 322.71 107.177 322.71 109.721C322.71 112.265 318.913 128.803 320.178 131.347C321.444 133.891 322.71 131.983 321.444 135.799C320.178 139.616 317.014 159.97 317.014 159.97C317.014 159.97 328.405 156.153 344.86 162.514C361.314 168.875 380.932 159.97 380.932 159.97C380.932 159.97 375.87 148.521 377.135 144.704C378.401 140.888 373.971 133.891 373.971 133.891L370.807 75.3735C370.807 75.3735 375.237 49.295 372.072 48.0228L365.744 45.4786L345.477 42.9751C345.477 42.9751 340.43 55.6556 332.203 56.2916Z" fill="#D0CDE1"/>
<path d="M313.85 68.3767L307.522 72.8291C307.522 72.8291 304.357 82.3701 307.522 86.8225C310.686 91.275 311.952 97.6356 311.952 97.6356L324.609 96.3635L313.85 68.3767Z" fill="#D0CDE1"/>
<path d="M315.843 10.1913L312.989 9.04283C312.989 9.04283 318.957 2.4393 327.26 3.01353L324.924 0.429505C324.924 0.429505 330.633 -1.86736 335.822 4.16194C338.55 7.33142 341.706 11.057 343.674 15.2537H346.731L345.455 18.077L349.92 20.9002L345.337 20.3931C345.771 22.8305 345.623 25.3367 344.904 27.705L345.026 29.9365C345.026 29.9365 339.714 21.6757 339.714 20.5272V23.3983C339.714 23.3983 336.86 20.8143 336.86 19.0917L335.303 21.1015L334.525 17.9432L324.924 21.1015L326.481 18.5175L320.513 19.3788L322.849 16.2206C322.849 16.2206 316.102 19.953 315.843 23.1113C315.583 26.2695 312.21 30.289 312.21 30.289L310.654 27.4179C310.654 27.4179 308.318 14.4979 315.843 10.1913Z" fill="#2F2E41"/>
<path d="M319.659 138.419H68.175V315.974H319.659V138.419Z" fill="#F2F2F2"/>
<path d="M152.49 206.164H89.345V316.953H152.49V206.164Z" fill="#3F3D56"/>
<path d="M118.034 212.811H101.025V228.747H118.034V212.811Z" fill="#F2F2F2"/>
<path d="M140.81 212.811H123.801V228.747H140.81V212.811Z" fill="#F2F2F2"/>
<path d="M118.034 234.542H101.025V251.059H118.034V234.542Z" fill="#F2F2F2"/>
<path d="M140.81 234.542H123.801V251.059H140.81V234.542Z" fill="#F2F2F2"/>
<path d="M144.46 273.053C146.677 273.053 148.475 271.246 148.475 269.017C148.475 266.789 146.677 264.982 144.46 264.982C142.242 264.982 140.445 266.789 140.445 269.017C140.445 271.246 142.242 273.053 144.46 273.053Z" fill="#98CECD"/>
<path d="M298.489 195.647H173.66V300.933H298.489V195.647Z" fill="#3F3D56"/>
<path d="M345.939 171.846H41.8948L62.1669 129.248L66.7037 119.71L72.6389 107.237L77.1757 97.6987L82.4351 86.6494H321.984L325.09 97.6987L327.773 107.237L331.281 119.71L333.963 129.248L345.939 171.846Z" fill="#3F3D56"/>
<path d="M182.42 239.302H178.04V266.449H182.42V239.302Z" fill="#98CECD"/>
<path d="M182.42 243.338H178.04V246.64H182.42V243.338Z" fill="#F2F2F2"/>
<path d="M182.42 259.112H178.04V262.414H182.42V259.112Z" fill="#F2F2F2"/>
<path d="M195.195 239.302H184.61V266.449H195.195V239.302Z" fill="#98CECD"/>
<path d="M195.195 243.338H184.61V246.64H195.195V243.338Z" fill="#F2F2F2"/>
<path d="M195.195 259.112H184.61V262.414H195.195V259.112Z" fill="#F2F2F2"/>
<path d="M202.13 239.302H197.75V266.449H202.13V239.302Z" fill="#98CECD"/>
<path d="M202.13 243.338H197.75V246.64H202.13V243.338Z" fill="#F2F2F2"/>
<path d="M202.13 259.112H197.75V262.414H202.13V259.112Z" fill="#F2F2F2"/>
<path d="M208.7 239.302H204.32V266.449H208.7V239.302Z" fill="#98CECD"/>
<path d="M208.7 243.338H204.32V246.64H208.7V243.338Z" fill="#F2F2F2"/>
<path d="M208.7 259.112H204.32V262.414H208.7V259.112Z" fill="#F2F2F2"/>
<path d="M212.92 239.398L208.822 240.951L218.349 266.353L222.447 264.8L212.92 239.398Z" fill="#98CECD"/>
<path d="M214.337 243.175L210.238 244.727L211.397 247.817L215.495 246.264L214.337 243.175Z" fill="#F2F2F2"/>
<path d="M219.873 257.935L215.774 259.488L216.933 262.577L221.031 261.025L219.873 257.935Z" fill="#F2F2F2"/>
<path d="M294.474 239.302H283.889V266.449H294.474V239.302Z" fill="#98CECD"/>
<path d="M294.474 243.338H283.889V246.64H294.474V243.338Z" fill="#F2F2F2"/>
<path d="M294.474 259.112H283.889V262.414H294.474V259.112Z" fill="#F2F2F2"/>
<path d="M281.334 239.302H276.954V266.449H281.334V239.302Z" fill="#98CECD"/>
<path d="M281.334 243.338H276.954V246.64H281.334V243.338Z" fill="#F2F2F2"/>
<path d="M281.334 259.112H276.954V262.414H281.334V259.112Z" fill="#F2F2F2"/>
<path d="M274.764 239.302H270.384V266.449H274.764V239.302Z" fill="#98CECD"/>
<path d="M274.764 243.338H270.384V246.64H274.764V243.338Z" fill="#F2F2F2"/>
<path d="M274.764 259.112H270.384V262.414H274.764V259.112Z" fill="#F2F2F2"/>
<path d="M266.164 239.398L256.636 264.801L260.735 266.353L270.262 240.951L266.164 239.398Z" fill="#98CECD"/>
<path d="M264.748 243.174L263.589 246.264L267.687 247.817L268.846 244.727L264.748 243.174Z" fill="#F2F2F2"/>
<path d="M259.212 257.935L258.053 261.024L262.151 262.577L263.31 259.488L259.212 257.935Z" fill="#F2F2F2"/>
<path d="M298.489 266.449H173.66V269.017H298.489V266.449Z" fill="#F2F2F2"/>
<path d="M251.039 239.302H228.044V266.449H251.039V239.302Z" fill="#98CECD"/>
<path d="M245.382 245.172H233.702V250.308H245.382V245.172Z" fill="#F2F2F2"/>
<path d="M237.17 195.647H234.98V219.126H237.17V195.647Z" fill="#F2F2F2"/>
<path d="M236.075 222.794C238.09 222.794 239.725 221.152 239.725 219.126C239.725 217.1 238.09 215.457 236.075 215.457C234.059 215.457 232.425 217.1 232.425 219.126C232.425 221.152 234.059 222.794 236.075 222.794Z" fill="#F2F2F2"/>
<path d="M327.773 107.237H72.6392L77.1759 97.6987H325.091L327.773 107.237Z" fill="#98CECD"/>
<path d="M333.963 129.248H62.167L66.7038 119.71H331.281L333.963 129.248Z" fill="#98CECD"/>
<path d="M360.681 74.1013C360.681 74.1013 357.016 83.5728 357.782 92.9438C357.922 94.6217 358.484 96.2362 359.415 97.6356L314.518 119.059C314.518 119.059 294.231 121.17 299.294 130.075C304.357 138.98 322.71 125.622 322.71 125.622C322.71 125.622 370.807 118.626 374.604 111.629C378.401 104.632 380.933 75.3734 380.933 75.3734L360.681 74.1013Z" fill="#A0616A"/>
<path d="M362.58 48.0227H372.073C372.073 48.0227 379.034 49.2948 380.933 62.0161C382.831 74.7373 384.73 77.9176 382.831 77.9176C380.933 77.9176 358.15 77.2816 358.15 76.6455C358.15 76.0095 362.58 48.0227 362.58 48.0227Z" fill="#D0CDE1"/>
<path d="M45.6936 238.035C72.5863 238.035 94.3872 216.123 94.3872 189.094C94.3872 162.065 72.5863 140.154 45.6936 140.154C18.8009 140.154 -3 162.065 -3 189.094C-3 216.123 18.8009 238.035 45.6936 238.035Z" fill="#98CECD"/>
<path opacity="0.1" d="M45.6936 231.183C68.8214 231.183 87.5701 212.339 87.5701 189.094C87.5701 165.849 68.8214 147.005 45.6936 147.005C22.5659 147.005 3.81714 165.849 3.81714 189.094C3.81714 212.339 22.5659 231.183 45.6936 231.183Z" fill="black"/>
<path d="M43.6868 213.93V207.804C40.6058 207.744 37.4185 206.652 35.5593 205.136L36.8341 201.072C39.0435 202.736 41.7229 203.65 44.4836 203.68C48.2553 203.68 50.8051 201.193 50.8051 197.736C50.8051 194.4 48.7333 192.338 44.8024 190.518C39.384 188.092 36.0374 185.302 36.0374 180.026C36.0374 174.991 39.1715 171.17 44.0588 170.26V164.135H47.3522V170.018C49.8081 170.052 52.2035 170.788 54.2581 172.141L52.9299 176.144C50.9594 174.788 48.6245 174.069 46.2367 174.081C42.1465 174.081 40.6058 176.871 40.6058 179.298C40.6058 182.452 42.5713 184.028 47.1929 186.212C52.6643 188.76 55.4268 191.913 55.4268 197.311C55.4268 202.103 52.505 206.591 47.0334 207.622V213.93H43.6868Z" fill="#F2F2F2"/>
</g>
<defs>
<clipPath id="clip0">
<rect width="410" height="332" fill="white" transform="translate(-3)"/>
</clipPath>
</defs>
</svg>
