<svg width="402" height="387" viewBox="0 0 402 387" fill="none" xmlns="http://www.w3.org/2000/svg">
<g clip-path="url(#clip0)">
<path opacity="0.1" d="M115.483 66.3721H85.3279C83.5885 66.3721 82.1785 68.0704 82.1785 70.1655V75.8531C82.1785 77.9481 83.5885 79.6465 85.3279 79.6465H115.483C117.223 79.6465 118.633 77.9481 118.633 75.8531V70.1655C118.633 68.0704 117.223 66.3721 115.483 66.3721Z" fill="#98CECD"/>
<path opacity="0.1" d="M153.633 79.6465H123.478C121.738 79.6465 120.328 81.3449 120.328 83.4399V89.1275C120.328 91.2225 121.738 92.9209 123.478 92.9209H153.633C155.372 92.9209 156.782 91.2225 156.782 89.1275V83.4399C156.782 81.3449 155.372 79.6465 153.633 79.6465Z" fill="#98CECD"/>
<path opacity="0.1" d="M191.783 92.9209H161.627C159.888 92.9209 158.478 94.6193 158.478 96.7143V102.402C158.478 104.497 159.888 106.195 161.627 106.195H191.783C193.522 106.195 194.932 104.497 194.932 102.402V96.7143C194.932 94.6193 193.522 92.9209 191.783 92.9209Z" fill="#98CECD"/>
<path opacity="0.1" d="M115.483 46.4604H85.3279C83.5885 46.4604 82.1785 48.1588 82.1785 50.2539V55.9414C82.1785 58.0365 83.5885 59.7349 85.3279 59.7349H115.483C117.223 59.7349 118.633 58.0365 118.633 55.9414V50.2539C118.633 48.1588 117.223 46.4604 115.483 46.4604Z" fill="#98CECD"/>
<path opacity="0.1" d="M153.633 59.7349H123.478C121.738 59.7349 120.328 61.4332 120.328 63.5283V69.2159C120.328 71.3109 121.738 73.0093 123.478 73.0093H153.633C155.372 73.0093 156.782 71.3109 156.782 69.2159V63.5283C156.782 61.4332 155.372 59.7349 153.633 59.7349Z" fill="#98CECD"/>
<path opacity="0.1" d="M191.783 73.0093H161.627C159.888 73.0093 158.478 74.7076 158.478 76.8027V82.4903C158.478 84.5853 159.888 86.2837 161.627 86.2837H191.783C193.522 86.2837 194.932 84.5853 194.932 82.4903V76.8027C194.932 74.7076 193.522 73.0093 191.783 73.0093Z" fill="#98CECD"/>
<path opacity="0.1" d="M234.171 66.3721H204.016C202.277 66.3721 200.866 68.0704 200.866 70.1655V75.8531C200.866 77.9481 202.277 79.6465 204.016 79.6465H234.171C235.911 79.6465 237.321 77.9481 237.321 75.8531V70.1655C237.321 68.0704 235.911 66.3721 234.171 66.3721Z" fill="#98CECD"/>
<path opacity="0.1" d="M272.321 79.6465H242.166C240.426 79.6465 239.016 81.3449 239.016 83.4399V89.1275C239.016 91.2225 240.426 92.9209 242.166 92.9209H272.321C274.06 92.9209 275.47 91.2225 275.47 89.1275V83.4399C275.47 81.3449 274.06 79.6465 272.321 79.6465Z" fill="#98CECD"/>
<path opacity="0.1" d="M310.47 92.9209H280.315C278.576 92.9209 277.166 94.6193 277.166 96.7143V102.402C277.166 104.497 278.576 106.195 280.315 106.195H310.47C312.21 106.195 313.62 104.497 313.62 102.402V96.7143C313.62 94.6193 312.21 92.9209 310.47 92.9209Z" fill="#98CECD"/>
<path opacity="0.1" d="M234.171 46.4604H204.016C202.277 46.4604 200.866 48.1588 200.866 50.2539V55.9414C200.866 58.0365 202.277 59.7349 204.016 59.7349H234.171C235.911 59.7349 237.321 58.0365 237.321 55.9414V50.2539C237.321 48.1588 235.911 46.4604 234.171 46.4604Z" fill="#98CECD"/>
<path opacity="0.1" d="M272.321 59.7349H242.166C240.426 59.7349 239.016 61.4332 239.016 63.5283V69.2159C239.016 71.3109 240.426 73.0093 242.166 73.0093H272.321C274.06 73.0093 275.47 71.3109 275.47 69.2159V63.5283C275.47 61.4332 274.06 59.7349 272.321 59.7349Z" fill="#98CECD"/>
<path opacity="0.1" d="M310.47 73.0093H280.315C278.576 73.0093 277.166 74.7076 277.166 76.8027V82.4903C277.166 84.5853 278.576 86.2837 280.315 86.2837H310.47C312.21 86.2837 313.62 84.5853 313.62 82.4903V76.8027C313.62 74.7076 312.21 73.0093 310.47 73.0093Z" fill="#98CECD"/>
<path opacity="0.1" d="M115.483 19.9116H85.3279C83.5885 19.9116 82.1785 21.61 82.1785 23.705V29.3926C82.1785 31.4877 83.5885 33.186 85.3279 33.186H115.483C117.223 33.186 118.633 31.4877 118.633 29.3926V23.705C118.633 21.61 117.223 19.9116 115.483 19.9116Z" fill="#98CECD"/>
<path opacity="0.1" d="M153.633 33.186H123.478C121.738 33.186 120.328 34.8844 120.328 36.9795V42.667C120.328 44.7621 121.738 46.4604 123.478 46.4604H153.633C155.372 46.4604 156.782 44.7621 156.782 42.667V36.9795C156.782 34.8844 155.372 33.186 153.633 33.186Z" fill="#98CECD"/>
<path opacity="0.1" d="M191.783 46.4604H161.627C159.888 46.4604 158.478 48.1588 158.478 50.2539V55.9414C158.478 58.0365 159.888 59.7349 161.627 59.7349H191.783C193.522 59.7349 194.932 58.0365 194.932 55.9414V50.2539C194.932 48.1588 193.522 46.4604 191.783 46.4604Z" fill="#98CECD"/>
<path opacity="0.1" d="M115.483 0H85.3279C83.5885 0 82.1785 1.69837 82.1785 3.79342V9.48099C82.1785 11.576 83.5885 13.2744 85.3279 13.2744H115.483C117.223 13.2744 118.633 11.576 118.633 9.48099V3.79342C118.633 1.69837 117.223 0 115.483 0Z" fill="#98CECD"/>
<path opacity="0.1" d="M153.633 13.2744H123.478C121.738 13.2744 120.328 14.9728 120.328 17.0678V22.7554C120.328 24.8504 121.738 26.5488 123.478 26.5488H153.633C155.372 26.5488 156.782 24.8504 156.782 22.7554V17.0678C156.782 14.9728 155.372 13.2744 153.633 13.2744Z" fill="#98CECD"/>
<path opacity="0.1" d="M191.783 26.5488H161.627C159.888 26.5488 158.478 28.2472 158.478 30.3422V36.0298C158.478 38.1249 159.888 39.8232 161.627 39.8232H191.783C193.522 39.8232 194.932 38.1249 194.932 36.0298V30.3422C194.932 28.2472 193.522 26.5488 191.783 26.5488Z" fill="#98CECD"/>
<path opacity="0.1" d="M234.171 19.9116H204.016C202.277 19.9116 200.866 21.61 200.866 23.705V29.3926C200.866 31.4877 202.277 33.186 204.016 33.186H234.171C235.911 33.186 237.321 31.4877 237.321 29.3926V23.705C237.321 21.61 235.911 19.9116 234.171 19.9116Z" fill="#98CECD"/>
<path opacity="0.1" d="M272.321 33.186H242.166C240.426 33.186 239.016 34.8844 239.016 36.9795V42.667C239.016 44.7621 240.426 46.4604 242.166 46.4604H272.321C274.06 46.4604 275.47 44.7621 275.47 42.667V36.9795C275.47 34.8844 274.06 33.186 272.321 33.186Z" fill="#98CECD"/>
<path opacity="0.1" d="M310.47 46.4604H280.315C278.576 46.4604 277.166 48.1588 277.166 50.2539V55.9414C277.166 58.0365 278.576 59.7349 280.315 59.7349H310.47C312.21 59.7349 313.62 58.0365 313.62 55.9414V50.2539C313.62 48.1588 312.21 46.4604 310.47 46.4604Z" fill="#98CECD"/>
<path opacity="0.1" d="M234.171 0H204.016C202.277 0 200.866 1.69837 200.866 3.79342V9.48099C200.866 11.576 202.277 13.2744 204.016 13.2744H234.171C235.911 13.2744 237.321 11.576 237.321 9.48099V3.79342C237.321 1.69837 235.911 0 234.171 0Z" fill="#98CECD"/>
<path opacity="0.1" d="M272.321 13.2744H242.166C240.426 13.2744 239.016 14.9728 239.016 17.0678V22.7554C239.016 24.8504 240.426 26.5488 242.166 26.5488H272.321C274.06 26.5488 275.47 24.8504 275.47 22.7554V17.0678C275.47 14.9728 274.06 13.2744 272.321 13.2744Z" fill="#98CECD"/>
<path opacity="0.1" d="M310.47 26.5488H280.315C278.576 26.5488 277.166 28.2472 277.166 30.3422V36.0298C277.166 38.1249 278.576 39.8232 280.315 39.8232H310.47C312.21 39.8232 313.62 38.1249 313.62 36.0298V30.3422C313.62 28.2472 312.21 26.5488 310.47 26.5488Z" fill="#98CECD"/>
<path opacity="0.1" d="M115.483 302.759H85.3279C83.5885 302.759 82.1785 304.457 82.1785 306.552V312.24C82.1785 314.335 83.5885 316.033 85.3279 316.033H115.483C117.223 316.033 118.633 314.335 118.633 312.24V306.552C118.633 304.457 117.223 302.759 115.483 302.759Z" fill="#98CECD"/>
<path opacity="0.1" d="M153.633 316.033H123.478C121.738 316.033 120.328 317.731 120.328 319.826V325.514C120.328 327.609 121.738 329.307 123.478 329.307H153.633C155.372 329.307 156.782 327.609 156.782 325.514V319.826C156.782 317.731 155.372 316.033 153.633 316.033Z" fill="#98CECD"/>
<path opacity="0.1" d="M191.783 329.307H161.627C159.888 329.307 158.478 331.006 158.478 333.101V338.788C158.478 340.883 159.888 342.582 161.627 342.582H191.783C193.522 342.582 194.932 340.883 194.932 338.788V333.101C194.932 331.006 193.522 329.307 191.783 329.307Z" fill="#98CECD"/>
<path opacity="0.1" d="M115.483 282.847H85.3279C83.5885 282.847 82.1785 284.545 82.1785 286.64V292.328C82.1785 294.423 83.5885 296.121 85.3279 296.121H115.483C117.223 296.121 118.633 294.423 118.633 292.328V286.64C118.633 284.545 117.223 282.847 115.483 282.847Z" fill="#98CECD"/>
<path opacity="0.1" d="M153.633 296.121H123.478C121.738 296.121 120.328 297.82 120.328 299.915V305.602C120.328 307.697 121.738 309.396 123.478 309.396H153.633C155.372 309.396 156.782 307.697 156.782 305.602V299.915C156.782 297.82 155.372 296.121 153.633 296.121Z" fill="#98CECD"/>
<path opacity="0.1" d="M191.783 309.396H161.627C159.888 309.396 158.478 311.094 158.478 313.189V318.877C158.478 320.972 159.888 322.67 161.627 322.67H191.783C193.522 322.67 194.932 320.972 194.932 318.877V313.189C194.932 311.094 193.522 309.396 191.783 309.396Z" fill="#98CECD"/>
<path opacity="0.1" d="M234.171 302.759H204.016C202.277 302.759 200.866 304.457 200.866 306.552V312.24C200.866 314.335 202.277 316.033 204.016 316.033H234.171C235.911 316.033 237.321 314.335 237.321 312.24V306.552C237.321 304.457 235.911 302.759 234.171 302.759Z" fill="#98CECD"/>
<path opacity="0.1" d="M272.321 316.033H242.166C240.426 316.033 239.016 317.731 239.016 319.826V325.514C239.016 327.609 240.426 329.307 242.166 329.307H272.321C274.06 329.307 275.47 327.609 275.47 325.514V319.826C275.47 317.731 274.06 316.033 272.321 316.033Z" fill="#98CECD"/>
<path opacity="0.1" d="M310.47 329.307H280.315C278.576 329.307 277.166 331.006 277.166 333.101V338.788C277.166 340.883 278.576 342.582 280.315 342.582H310.47C312.21 342.582 313.62 340.883 313.62 338.788V333.101C313.62 331.006 312.21 329.307 310.47 329.307Z" fill="#98CECD"/>
<path opacity="0.1" d="M234.171 282.847H204.016C202.277 282.847 200.866 284.545 200.866 286.64V292.328C200.866 294.423 202.277 296.121 204.016 296.121H234.171C235.911 296.121 237.321 294.423 237.321 292.328V286.64C237.321 284.545 235.911 282.847 234.171 282.847Z" fill="#98CECD"/>
<path opacity="0.1" d="M272.321 296.121H242.166C240.426 296.121 239.016 297.82 239.016 299.915V305.602C239.016 307.697 240.426 309.396 242.166 309.396H272.321C274.06 309.396 275.47 307.697 275.47 305.602V299.915C275.47 297.82 274.06 296.121 272.321 296.121Z" fill="#98CECD"/>
<path opacity="0.1" d="M310.47 309.396H280.315C278.576 309.396 277.166 311.094 277.166 313.189V318.877C277.166 320.972 278.576 322.67 280.315 322.67H310.47C312.21 322.67 313.62 320.972 313.62 318.877V313.189C313.62 311.094 312.21 309.396 310.47 309.396Z" fill="#98CECD"/>
<path opacity="0.1" d="M115.483 256.298H85.3279C83.5885 256.298 82.1785 257.996 82.1785 260.092V265.779C82.1785 267.874 83.5885 269.572 85.3279 269.572H115.483C117.223 269.572 118.633 267.874 118.633 265.779V260.092C118.633 257.996 117.223 256.298 115.483 256.298Z" fill="#98CECD"/>
<path opacity="0.1" d="M153.633 269.573H123.478C121.738 269.573 120.328 271.271 120.328 273.366V279.054C120.328 281.149 121.738 282.847 123.478 282.847H153.633C155.372 282.847 156.782 281.149 156.782 279.054V273.366C156.782 271.271 155.372 269.573 153.633 269.573Z" fill="#98CECD"/>
<path opacity="0.1" d="M191.783 282.847H161.627C159.888 282.847 158.478 284.545 158.478 286.64V292.328C158.478 294.423 159.888 296.121 161.627 296.121H191.783C193.522 296.121 194.932 294.423 194.932 292.328V286.64C194.932 284.545 193.522 282.847 191.783 282.847Z" fill="#98CECD"/>
<path opacity="0.1" d="M115.483 236.386H85.3279C83.5885 236.386 82.1785 238.085 82.1785 240.18V245.867C82.1785 247.963 83.5885 249.661 85.3279 249.661H115.483C117.223 249.661 118.633 247.963 118.633 245.867V240.18C118.633 238.085 117.223 236.386 115.483 236.386Z" fill="#98CECD"/>
<path opacity="0.1" d="M153.633 249.661H123.478C121.738 249.661 120.328 251.359 120.328 253.454V259.142C120.328 261.237 121.738 262.935 123.478 262.935H153.633C155.372 262.935 156.782 261.237 156.782 259.142V253.454C156.782 251.359 155.372 249.661 153.633 249.661Z" fill="#98CECD"/>
<path opacity="0.1" d="M191.783 262.935H161.627C159.888 262.935 158.478 264.634 158.478 266.729V272.416C158.478 274.511 159.888 276.21 161.627 276.21H191.783C193.522 276.21 194.932 274.511 194.932 272.416V266.729C194.932 264.634 193.522 262.935 191.783 262.935Z" fill="#98CECD"/>
<path opacity="0.1" d="M234.171 256.298H204.016C202.277 256.298 200.866 257.996 200.866 260.092V265.779C200.866 267.874 202.277 269.572 204.016 269.572H234.171C235.911 269.572 237.321 267.874 237.321 265.779V260.092C237.321 257.996 235.911 256.298 234.171 256.298Z" fill="#98CECD"/>
<path opacity="0.1" d="M272.321 269.573H242.166C240.426 269.573 239.016 271.271 239.016 273.366V279.054C239.016 281.149 240.426 282.847 242.166 282.847H272.321C274.06 282.847 275.47 281.149 275.47 279.054V273.366C275.47 271.271 274.06 269.573 272.321 269.573Z" fill="#98CECD"/>
<path opacity="0.1" d="M310.47 282.847H280.315C278.576 282.847 277.166 284.545 277.166 286.64V292.328C277.166 294.423 278.576 296.121 280.315 296.121H310.47C312.21 296.121 313.62 294.423 313.62 292.328V286.64C313.62 284.545 312.21 282.847 310.47 282.847Z" fill="#98CECD"/>
<path opacity="0.1" d="M234.171 236.386H204.016C202.277 236.386 200.866 238.085 200.866 240.18V245.867C200.866 247.963 202.277 249.661 204.016 249.661H234.171C235.911 249.661 237.321 247.963 237.321 245.867V240.18C237.321 238.085 235.911 236.386 234.171 236.386Z" fill="#98CECD"/>
<path opacity="0.1" d="M272.321 249.661H242.166C240.426 249.661 239.016 251.359 239.016 253.454V259.142C239.016 261.237 240.426 262.935 242.166 262.935H272.321C274.06 262.935 275.47 261.237 275.47 259.142V253.454C275.47 251.359 274.06 249.661 272.321 249.661Z" fill="#98CECD"/>
<path opacity="0.1" d="M310.47 262.935H280.315C278.576 262.935 277.166 264.634 277.166 266.729V272.416C277.166 274.511 278.576 276.21 280.315 276.21H310.47C312.21 276.21 313.62 274.511 313.62 272.416V266.729C313.62 264.634 312.21 262.935 310.47 262.935Z" fill="#98CECD"/>
<path opacity="0.1" d="M204.469 387C307.125 387 390.343 378.771 390.343 368.62C390.343 358.469 307.125 350.24 204.469 350.24C101.814 350.24 18.5957 358.469 18.5957 368.62C18.5957 378.771 101.814 387 204.469 387Z" fill="#98CECD"/>
<path d="M35.8819 95.3716C53.4095 104.521 63.481 123.452 63.481 123.452C63.481 123.452 45.1311 127.537 27.5992 118.392C10.0673 109.248 0 90.312 0 90.312C0 90.312 18.35 86.2225 35.8819 95.3716Z" fill="#98CECD"/>
<path d="M89.673 60.2454C95.0944 49.5238 104.327 44.4182 104.327 44.4182C104.327 44.4182 104.751 56.6409 99.346 67.3319C93.9415 78.0229 84.6881 83.1233 84.6881 83.1233C84.6881 83.1233 84.2472 70.9058 89.673 60.2454Z" fill="#98CECD"/>
<path d="M49.8192 71.7174C53.6977 88.3921 64.3881 99.369 64.3881 99.369C64.3881 99.369 68.7922 83.3019 64.9137 66.6221C61.0351 49.9423 50.3405 38.9705 50.3405 38.9705C50.3405 38.9705 45.9364 55.0376 49.8192 71.7174Z" fill="#46455B"/>
<path d="M356.343 70.967H53.4434C51.7555 70.967 50.3872 72.6151 50.3872 74.6481V253.638C50.3872 255.671 51.7555 257.319 53.4434 257.319H356.343C358.031 257.319 359.4 255.671 359.4 253.638V74.6481C359.4 72.6151 358.031 70.967 356.343 70.967Z" fill="#3F3D56"/>
<path opacity="0.1" d="M50.3872 246.087H359.4V253.638C359.4 254.615 359.078 255.551 358.504 256.241C357.931 256.932 357.154 257.319 356.343 257.319H53.4434C52.6329 257.319 51.8555 256.932 51.2823 256.241C50.7092 255.551 50.3872 254.615 50.3872 253.638V246.087Z" fill="black"/>
<path d="M102.313 232.302H81.5429C80.9576 232.302 80.4832 232.873 80.4832 233.578V244.811C80.4832 245.515 80.9576 246.087 81.5429 246.087H102.313C102.898 246.087 103.373 245.515 103.373 244.811V233.578C103.373 232.873 102.898 232.302 102.313 232.302Z" fill="#98CECD"/>
<path d="M124.567 244.045H110.579C110.111 244.045 109.731 244.502 109.731 245.066C109.731 245.63 110.111 246.087 110.579 246.087H124.567C125.035 246.087 125.415 245.63 125.415 245.066C125.415 244.502 125.035 244.045 124.567 244.045Z" fill="#98CECD"/>
<path d="M95.8065 107.41C106.993 109.897 118.404 107.41 129.543 105.725L163.399 100.62C164.768 100.411 166.761 99.4253 167.566 101.442C168.02 102.57 167.714 105.016 167.748 106.313C167.837 109.887 167.829 113.46 167.748 117.034C167.596 123.865 167.18 130.681 166.65 137.482C165.62 150.792 164.162 164.031 163.433 177.392C163.06 184.193 162.874 191.014 163.039 197.814C163.077 199.438 163.132 201.061 163.213 202.68C163.302 204.492 163.976 207.183 162.335 208.393C161.398 209.087 159.555 209.051 158.482 209.256C156.787 209.577 155.091 209.833 153.362 210.042C141.963 211.415 130.417 210.843 118.976 210.762L84.4294 210.547L76.0025 210.491C75.2395 210.491 72.4885 211.043 72.018 209.95C71.8188 209.485 72.3487 207.31 72.4419 206.728C72.5719 205.769 72.7132 204.81 72.8658 203.854C73.8492 197.14 75.0107 190.467 76.1806 183.799C78.6942 169.504 81.2672 155.137 82.3015 140.535C82.8144 133.209 82.4753 125.816 83.1026 118.505C83.3951 115.109 83.7427 107.533 87.4941 107.232C90.6732 106.976 93.9456 107.232 97.1332 107.232C97.3019 107.232 97.4636 107.151 97.5828 107.007C97.7021 106.864 97.769 106.669 97.769 106.466C97.769 106.263 97.7021 106.068 97.5828 105.924C97.4636 105.781 97.3019 105.7 97.1332 105.7C94.1236 105.7 91.1098 105.603 88.1002 105.674C86.0995 105.72 84.7091 106.292 83.7554 108.508C81.3181 114.196 81.5682 121.782 81.4919 127.991C81.3096 142.853 79.4148 157.399 76.9478 171.934C75.7058 179.25 74.3663 186.541 73.1328 193.862C72.5521 197.36 71.9968 200.867 71.4882 204.385C71.2508 206.06 70.0512 209.751 71.1067 211.288C72.1621 212.824 75.4091 211.997 76.863 212.008L86.9769 212.079L106.357 212.212C118.879 212.299 131.442 212.722 143.96 212.278C149.937 212.064 156.252 211.768 162.072 210.047C163.806 209.536 164.641 208.577 164.709 206.351C164.811 202.899 164.344 199.341 164.285 195.874C163.861 166.211 169.647 136.961 169.054 107.288C169.016 105.271 169.647 100.186 167.816 98.9658C166.994 98.4144 165.926 98.7156 165.061 98.8381C163.408 99.0679 161.759 99.3487 160.106 99.5835L138.636 102.81C131.773 103.831 124.915 104.934 118.039 105.874C110.761 106.895 103.411 107.502 96.1583 105.874C95.3571 105.695 95.0138 107.17 95.8192 107.349L95.8065 107.41Z" fill="#98CECD"/>
<path d="M82.31 125.458L167.011 120.455C167.829 120.404 167.833 118.872 167.011 118.923L82.31 123.927C81.4961 123.973 81.4919 125.504 82.31 125.458Z" fill="#98CECD"/>
<path d="M108.404 112.832C108.167 113.135 107.995 113.502 107.903 113.903C107.811 114.303 107.802 114.725 107.876 115.131C107.95 115.537 108.105 115.915 108.328 116.233C108.551 116.55 108.834 116.797 109.155 116.953C110.295 117.581 111.634 117.055 112.766 116.713C114.462 116.202 116.157 115.748 117.899 115.375C121.691 114.566 125.532 114.136 129.382 114.088C131.137 114.063 132.879 114.16 134.634 114.252C135.906 114.313 137.275 114.435 138.352 113.486C139.581 112.403 139.98 110.29 138.776 108.973C137.08 107.109 133.426 108.191 131.468 108.385C124.362 109.096 117.302 110.365 110.333 112.184C109.536 112.388 109.871 113.869 110.672 113.659C115.27 112.465 119.903 111.505 124.571 110.78C126.866 110.44 129.165 110.152 131.468 109.917C132.553 109.81 133.638 109.713 134.723 109.636C135.147 109.606 135.597 109.549 136.029 109.565C137.373 109.601 137.529 109.31 136.724 111.265C136.008 112.996 136.237 112.797 134.995 112.74C134.469 112.74 133.943 112.669 133.418 112.638C132.341 112.584 131.264 112.555 130.188 112.552C127.896 112.552 125.61 112.684 123.329 112.95C121.396 113.174 119.468 113.491 117.556 113.899C116.361 114.155 115.174 114.451 113.991 114.778C113.47 114.926 112.944 115.079 112.423 115.237C112.173 115.319 111.918 115.39 111.668 115.467C110.741 115.855 109.952 115.344 109.299 113.935C109.867 113.225 108.972 112.138 108.4 112.853L108.404 112.832Z" fill="#98CECD"/>
<path d="M123.758 134.623C117.624 134.337 110.999 136.333 106.959 142.281C103.797 146.932 101.995 154.912 105.344 160.15C108.943 165.767 116.836 164.776 121.596 162.382C126.632 159.829 132.142 154.565 133.655 147.979C135.542 139.754 129.416 133.535 123.037 133.443C122.219 133.443 122.219 134.975 123.037 134.975C126.674 135.026 130.243 136.905 131.939 140.984C133.715 145.283 132.184 149.796 129.819 153.238C126.03 158.716 120.104 162.846 114.068 162.729C110.443 162.662 106.438 161.166 105.314 156.561C104.39 152.829 105.094 148.75 106.705 145.441C110.189 138.294 117.281 135.874 123.783 136.18C124.601 136.216 124.601 134.684 123.783 134.648L123.758 134.623Z" fill="#98CECD"/>
<path d="M117.666 145.967C117.405 145.851 117.123 145.816 116.847 145.865C116.571 145.915 116.31 146.048 116.089 146.252C115.867 146.456 115.692 146.724 115.579 147.031C115.467 147.338 115.421 147.675 115.445 148.01C115.572 150.001 117.395 150.562 118.764 150.445C119.947 150.322 121.329 149.797 120.913 148.015C120.837 147.699 120.705 147.408 120.526 147.159C120.348 146.911 120.127 146.711 119.879 146.575C119.5 146.394 119.088 146.332 118.684 146.396C118.527 146.396 117.09 147.029 117.7 146.269L116.7 146.11C116.811 146.242 116.896 146.402 116.949 146.579C117.002 146.756 117.021 146.945 117.005 147.132C117.007 147.265 117.038 147.396 117.094 147.51C117.15 147.625 117.231 147.721 117.327 147.787C117.423 147.853 117.532 147.889 117.642 147.889C117.753 147.89 117.862 147.856 117.959 147.79C118.104 147.717 118.264 147.694 118.419 147.724C118.575 147.754 118.721 147.835 118.84 147.959C118.96 148.083 119.048 148.245 119.095 148.426C119.142 148.607 119.147 148.801 119.108 148.985C119.073 149.162 119.092 149.347 119.161 149.509C119.229 149.671 119.343 149.799 119.481 149.869C119.62 149.94 119.775 149.95 119.919 149.896C120.064 149.843 120.187 149.73 120.269 149.577C120.693 148.658 121.206 146.83 120.57 145.87C120.146 145.222 119.328 145.416 118.819 145.794C118.505 146.061 118.213 146.364 117.946 146.698C117.433 147.244 117.098 147.499 117.289 146.452C117.607 144.548 119.116 143.032 120.494 142.271L119.561 141.408C119.072 143.621 118.198 145.683 116.997 147.458L118.082 147.999C118.051 147.298 118.2 146.603 118.51 146.008C118.82 145.413 119.274 144.948 119.811 144.676H119.188L119.519 145.329C119.396 146.294 120.621 146.708 120.744 145.733C120.905 144.472 120.244 142.833 119.018 143.45C117.556 144.186 116.797 146.202 116.827 147.999C116.827 148.612 117.548 149.087 117.916 148.546C119.264 146.573 120.248 144.278 120.803 141.812C120.833 141.665 120.826 141.512 120.784 141.37C120.743 141.228 120.668 141.104 120.568 141.012C120.469 140.921 120.35 140.866 120.225 140.855C120.1 140.843 119.976 140.876 119.866 140.949C118.596 141.64 117.523 142.766 116.78 144.186C116.263 145.207 115.615 146.8 116.14 147.974C116.226 148.162 116.343 148.327 116.482 148.461C116.622 148.594 116.782 148.693 116.953 148.751C117.125 148.81 117.304 148.827 117.481 148.801C117.658 148.775 117.829 148.708 117.984 148.602C118.376 148.322 118.734 147.978 119.048 147.581C119.205 147.412 119.379 147.121 119.586 147.07C119.773 146.917 119.765 147.004 119.557 147.341C119.554 147.87 119.426 148.387 119.188 148.832L120.349 149.419C120.454 148.942 120.442 148.439 120.314 147.971C120.187 147.502 119.949 147.088 119.63 146.779C119.312 146.469 118.925 146.278 118.518 146.227C118.111 146.176 117.7 146.269 117.336 146.493L118.294 147.157C118.314 146.507 118.144 145.87 117.815 145.355C117.765 145.255 117.697 145.171 117.616 145.108C117.535 145.044 117.444 145.003 117.348 144.988C117.252 144.973 117.155 144.984 117.064 145.02C116.972 145.056 116.888 145.116 116.819 145.197C116.174 146.008 116.051 147.412 116.861 148.163C117.467 148.719 117.764 148.163 118.429 148.035C120.689 147.683 119.37 148.908 118.573 148.949C118.217 148.995 117.857 148.964 117.509 148.857C116.625 148.496 116.57 148.032 117.344 147.463C118.103 147.836 118.429 146.355 117.683 145.988L117.666 145.967Z" fill="#98CECD"/>
<path d="M116.645 148.765C117.166 150.808 115.013 151.481 113.991 152.186C113.274 152.67 112.649 153.329 112.156 154.121C111.088 155.847 110.689 158.042 110.337 160.11C110.176 161.075 111.401 161.483 111.567 160.518C111.76 158.999 112.121 157.517 112.639 156.112C113.402 154.284 114.496 153.672 115.92 152.732C117.344 151.793 118.374 150.338 117.87 148.357C117.632 147.417 116.403 147.821 116.645 148.765Z" fill="#98CECD"/>
<path d="M118.764 147.739C118.461 147.79 118.184 147.975 117.988 148.258C117.792 148.541 117.691 148.902 117.704 149.271C117.704 149.878 118.039 150.266 118.268 150.751C118.811 151.744 119.226 152.83 119.497 153.973C119.701 155.071 119.9 157.036 119.425 158.057C118.548 159.951 116.962 159.589 115.61 159.589C114.339 159.589 113.355 160.1 113.398 157.965C113.423 156.766 114.118 155.55 114.669 154.606L113.508 154.422C113.753 155.981 113.882 157.563 113.894 159.15C113.894 159.86 114.796 160.253 115.076 159.533C115.758 157.806 116.299 156.004 116.691 154.152L115.441 153.947L115.661 157.828C115.665 157.993 115.713 158.153 115.798 158.283C115.883 158.413 116 158.507 116.133 158.551C116.265 158.594 116.406 158.585 116.534 158.525C116.662 158.465 116.771 158.356 116.844 158.216C116.992 158.018 117.101 157.782 117.162 157.526C117.204 157.286 116.814 155.668 116.657 156.245L117.904 156.449L117.993 152.763L116.721 152.967C116.99 154.007 117.071 155.103 116.958 156.184C116.878 157.036 118.069 157.23 118.23 156.388L119.027 151.435L117.865 151.614C118.141 152.299 118.217 153.076 118.082 153.82C117.988 154.8 119.26 154.79 119.353 153.82C119.461 152.803 119.326 151.77 118.963 150.843C118.899 150.715 118.805 150.613 118.693 150.548C118.581 150.484 118.456 150.459 118.333 150.479C118.21 150.498 118.094 150.561 118 150.658C117.905 150.755 117.837 150.883 117.802 151.027L117.001 155.979L118.251 156.184C118.378 154.966 118.281 153.731 117.967 152.564C117.925 152.388 117.831 152.236 117.704 152.136C117.577 152.036 117.424 151.994 117.273 152.019C117.122 152.043 116.984 152.131 116.882 152.267C116.781 152.404 116.724 152.58 116.721 152.763L116.632 156.449C116.632 157.343 117.662 157.47 117.882 156.653L117.95 156.403C117.979 156.273 117.98 156.135 117.952 156.005C117.924 155.874 117.867 155.754 117.789 155.658C116.471 153.932 116.204 156.679 115.746 157.44L116.933 157.828L116.712 153.947C116.666 153.12 115.648 152.865 115.462 153.743C115.104 155.47 114.607 157.151 113.978 158.762L115.165 159.15C115.152 157.426 115.01 155.707 114.741 154.014C114.631 153.309 113.864 153.34 113.58 153.83C112.732 155.3 111.265 158.512 112.397 160.273C113.385 161.805 116.492 161.213 117.819 161.116C119.913 160.973 120.671 159.375 120.9 156.995C121.009 155.856 120.956 154.703 120.744 153.585C120.629 152.982 119.472 149.163 119.124 149.24C119.93 149.061 119.586 147.581 118.785 147.759L118.764 147.739Z" fill="#98CECD"/>
<path d="M116.301 151.18L112.83 156.699L113.928 157.47L116.471 153.039L115.31 152.446L114.042 158.272C114.008 158.449 114.027 158.634 114.095 158.796C114.164 158.958 114.277 159.085 114.416 159.156C114.555 159.227 114.71 159.237 114.854 159.183C114.998 159.13 115.122 159.017 115.204 158.864C115.78 157.713 116.428 156.616 117.141 155.581L116.081 154.836C115.796 156.155 115.248 157.369 114.483 158.374L115.547 159.119C115.612 158.414 115.768 157.725 116.009 157.077C116.335 156.194 115.301 155.413 114.911 156.301C114.552 157.11 114.143 157.885 113.686 158.619L114.847 158.803L115.106 157.348L113.945 157.164L114.131 158.44C114.162 158.569 114.22 158.685 114.299 158.779C114.378 158.872 114.476 158.939 114.584 158.973C114.691 159.007 114.804 159.007 114.911 158.972C115.018 158.938 115.116 158.871 115.195 158.777C116.27 157.437 117.132 155.871 117.738 154.157H116.645C116.932 154.795 117.134 155.484 117.242 156.199C117.395 157.118 118.408 156.776 118.489 155.995C118.671 154.284 118.764 152.562 118.768 150.838H117.497V154.049C117.497 154.882 118.629 155.127 118.747 154.254C118.831 153.479 119.043 152.733 119.37 152.058H118.256C118.524 152.58 118.671 153.18 118.679 153.794C118.679 153.997 118.746 154.192 118.866 154.336C118.985 154.479 119.147 154.56 119.315 154.56C119.484 154.56 119.646 154.479 119.765 154.336C119.884 154.192 119.951 153.997 119.951 153.794L120.112 152.773H118.887C119.01 153.677 119.476 158.767 117.819 158.17C117.539 158.088 117.459 158.108 117.577 158.226L117.955 157.256L118.84 154.994L117.654 154.606C117.73 155.658 117.81 157.159 117.285 158.057C116.861 158.787 115.555 159.078 114.89 158.65C114.451 158.272 114.075 157.797 113.784 157.251L112.915 158.272C113.618 158.889 114.758 160.406 115.666 160.493C116.357 160.559 116.937 159.87 117.391 159.318C118.087 158.452 118.629 157.425 118.985 156.299C119.342 155.173 119.504 153.972 119.464 152.768C119.464 152.565 119.397 152.37 119.277 152.226C119.158 152.083 118.996 152.002 118.828 152.002C118.659 152.002 118.497 152.083 118.378 152.226C118.259 152.37 118.192 152.565 118.192 152.768V154.514C118.192 154.717 118.259 154.912 118.378 155.056C118.497 155.199 118.659 155.28 118.828 155.28C118.996 155.28 119.158 155.199 119.277 155.056C119.397 154.912 119.464 154.717 119.464 154.514V150.23C119.464 150.027 119.397 149.833 119.277 149.689C119.158 149.545 118.996 149.465 118.828 149.465C118.659 149.465 118.497 149.545 118.378 149.689C118.259 149.833 118.192 150.027 118.192 150.23C118.19 151.257 118.116 152.282 117.972 153.294L119.222 153.498C119.122 152.278 119.076 151.053 119.082 149.827C119.08 149.644 119.023 149.467 118.923 149.33C118.822 149.192 118.683 149.103 118.532 149.078C118.381 149.054 118.228 149.095 118.1 149.195C117.972 149.295 117.878 149.447 117.836 149.623C117.645 150.598 117.412 151.558 117.187 152.513L118.349 152.329L118.26 151.92C118.2 150.945 116.929 150.94 116.988 151.92C117.002 152.334 117.092 152.738 117.251 153.105C117.497 153.728 118.264 153.508 118.412 152.921C118.654 151.961 118.87 151.001 119.061 150.031L117.81 149.827C117.804 151.053 117.851 152.278 117.95 153.498C118.014 154.284 119.065 154.621 119.197 153.702C119.366 152.549 119.455 151.381 119.464 150.21H118.192V154.494H119.464V152.748H118.192C118.267 154.674 117.711 156.558 116.645 157.996C116.48 158.222 116.301 158.434 116.111 158.629C115.81 158.976 115.534 158.925 115.293 158.471C114.691 158.17 114.068 157.394 113.542 156.939C113.016 156.485 112.296 157.383 112.669 157.986C113.644 159.548 115.098 161.289 116.908 160.539C118.811 159.727 119.069 156.623 118.925 154.58C118.879 153.901 118.035 153.442 117.743 154.197C117.319 155.275 116.895 156.347 116.471 157.429C116.323 157.807 116.047 158.328 116.089 158.777C116.229 159.926 117.387 159.737 118.099 159.671C120.858 159.42 120.422 154.708 120.104 152.339C119.998 151.553 119.048 151.675 118.879 152.339C118.744 152.805 118.674 153.295 118.671 153.789H119.943C119.897 152.911 119.693 152.056 119.345 151.282C119.288 151.168 119.208 151.074 119.111 151.008C119.015 150.942 118.907 150.908 118.796 150.908C118.685 150.908 118.577 150.942 118.481 151.008C118.384 151.074 118.304 151.168 118.247 151.282C117.868 152.07 117.612 152.936 117.493 153.835L118.764 154.039V150.828C118.764 150.625 118.697 150.43 118.578 150.286C118.459 150.143 118.297 150.062 118.128 150.062C117.96 150.062 117.798 150.143 117.679 150.286C117.56 150.43 117.493 150.625 117.493 150.828C117.488 152.552 117.395 154.274 117.213 155.984L118.463 155.78C118.319 154.946 118.075 154.141 117.738 153.391C117.682 153.277 117.601 153.182 117.505 153.116C117.409 153.051 117.3 153.016 117.189 153.016C117.079 153.016 116.97 153.051 116.874 153.116C116.778 153.182 116.697 153.277 116.641 153.391C116.088 154.99 115.293 156.451 114.296 157.7L115.36 158.037L115.174 156.76C115.076 156.081 114.279 156.061 114.012 156.577C113.802 156.961 113.659 157.392 113.592 157.846C113.526 158.299 113.538 158.764 113.627 159.211C113.733 159.936 114.496 159.86 114.788 159.395C115.245 158.663 115.654 157.89 116.013 157.082L114.915 156.306C114.622 157.069 114.422 157.879 114.322 158.711C114.246 159.385 114.911 160.089 115.386 159.456C116.297 158.255 116.957 156.809 117.31 155.239C117.467 154.545 116.67 153.886 116.246 154.494C115.466 155.619 114.758 156.814 114.127 158.067L115.288 158.66L116.581 152.855C116.615 152.678 116.597 152.492 116.528 152.33C116.46 152.169 116.346 152.041 116.207 151.97C116.068 151.899 115.913 151.89 115.769 151.943C115.625 151.997 115.501 152.11 115.42 152.262L112.876 156.699C112.402 157.521 113.491 158.231 113.974 157.47L117.433 151.956C117.925 151.17 116.823 150.424 116.335 151.18H116.301Z" fill="#98CECD"/>
<path d="M170.381 169.606C175.467 165.859 179.511 160.268 184.004 155.591C188.879 150.522 193.995 145.799 199.264 141.326C209.497 132.647 220.242 124.882 230.979 117.136C231.118 117.03 231.218 116.864 231.257 116.671C231.296 116.478 231.272 116.275 231.189 116.103C231.106 115.932 230.971 115.806 230.812 115.752C230.654 115.698 230.484 115.72 230.339 115.814C219.602 123.559 208.852 131.309 198.62 140.004C193.792 144.089 189.078 148.418 184.56 153.013C179.643 158.017 175.264 164.245 169.724 168.284C169.024 168.794 169.664 170.122 170.364 169.606H170.381Z" fill="#98CECD"/>
<path d="M247.396 93.3548C241.886 94.0287 235.951 95.7186 232.56 101.524C229.631 106.517 229.695 115.227 232.446 120.353C235.57 126.178 241.954 126.388 246.913 124.504C251.873 122.62 257.006 119.316 256.959 112.179C256.934 108.35 255.785 104.362 254.518 100.891C253.424 97.8936 251.487 95.2744 248.554 95.6063C247.744 95.6982 247.735 97.2299 248.554 97.138C252.483 96.6989 253.746 102.32 254.679 105.868C255.526 109.182 256.311 113.103 254.98 116.396C253.649 119.689 250.44 121.369 247.697 122.574C244.73 123.871 241.47 124.662 238.372 123.595C232.234 121.527 230.538 112.158 232.306 105.511C234.341 97.8527 241.547 95.6012 247.418 94.8864C248.223 94.7894 248.231 93.2578 247.418 93.3548H247.396Z" fill="#98CECD"/>
<path d="M255.874 152.579C250.364 153.253 244.429 154.943 241.038 160.748C238.109 165.741 238.173 174.451 240.924 179.577C244.048 185.403 250.431 185.612 255.391 183.728C260.35 181.844 265.484 178.541 265.437 171.403C265.412 167.574 264.263 163.587 262.995 160.115C261.902 157.118 259.965 154.499 257.031 154.831C256.222 154.923 256.213 156.454 257.031 156.362C260.961 155.923 262.224 161.544 263.156 165.093C264.004 168.406 264.788 172.327 263.457 175.62C262.126 178.914 258.918 180.593 256.175 181.798C253.208 183.095 249.948 183.886 246.85 182.819C240.712 180.751 239.016 171.383 240.784 164.735C242.818 157.077 250.024 154.826 255.895 154.111C256.701 154.014 256.709 152.482 255.895 152.579H255.874Z" fill="#98CECD"/>
<path d="M239.084 108.268L243.098 113.782C243.178 113.874 243.276 113.941 243.383 113.974C243.489 114.007 243.602 114.006 243.708 113.972C243.815 113.938 243.912 113.87 243.991 113.777C244.07 113.684 244.127 113.568 244.158 113.44C245.006 110.755 244.845 107.972 245.044 105.149C245.263 102.23 245.872 99.374 246.845 96.6887C248.801 91.2423 252.117 86.665 256.332 83.593C257.031 83.0825 256.391 81.755 255.692 82.2707C251.536 85.2851 248.202 89.6967 246.099 94.9631C245.07 97.5258 244.356 100.255 243.98 103.066C243.556 106.379 243.942 109.851 242.924 113.032L243.988 112.69L239.995 107.186C239.453 106.445 238.558 107.533 239.097 108.268H239.084Z" fill="#98CECD"/>
<path d="M172.428 175.574C194.292 174.771 216.162 174.601 238.037 175.064C238.855 175.064 238.855 173.532 238.037 173.532C216.167 173.063 194.298 173.233 172.428 174.043C171.61 174.073 171.606 175.605 172.428 175.574Z" fill="#98CECD"/>
<path d="M242.606 160.472C250.081 164.005 257.27 168.356 264.085 173.471C264.78 173.981 265.42 172.669 264.725 172.148C257.82 166.971 250.536 162.569 242.962 158.997C242.204 158.634 241.873 160.115 242.628 160.472H242.606Z" fill="#98CECD"/>
<path d="M256.179 153.534C248.6 164.176 244.21 177.577 243.713 191.586C243.679 192.571 244.951 192.571 244.984 191.586C245.466 177.979 249.724 164.961 257.078 154.616C257.608 153.871 256.713 152.783 256.179 153.534Z" fill="#98CECD"/>
<path d="M86.6464 170.014L134.024 169.269L139.471 169.182C140.45 169.182 141.429 169.141 142.408 169.136C143.786 169.136 144.714 170.515 144.689 172.2C144.625 175.773 142.76 175.646 140.319 175.773L134.431 176.095L110.456 177.366C106.162 177.596 101.864 177.877 97.5699 178.056C93.6956 178.199 86.3285 176.677 88.0495 169.887C88.2868 168.942 87.0618 168.539 86.8202 169.478C85.9724 172.817 87.473 176.207 89.8891 177.959C93.3183 180.44 97.837 179.598 101.622 179.393L131.057 177.785L138.204 177.402C140.035 177.3 142.582 177.749 144.265 176.723C146.24 175.523 146.588 170.76 145.342 168.753C144.702 167.732 143.803 167.64 142.798 167.594C140.162 167.472 137.479 167.681 134.838 167.722L120.163 167.957L86.6294 168.467C85.8113 168.467 85.8113 169.999 86.6294 169.999L86.6464 170.014Z" fill="#98CECD"/>
<path d="M278.064 357.643C276.996 358.45 275.775 358.904 274.673 359.614C273.571 360.323 272.499 361.39 272.185 362.861C272.068 363.317 272.088 363.809 272.24 364.25C272.514 364.782 272.934 365.183 273.427 365.383C275.666 366.581 278.084 367.216 280.534 367.249C282.984 367.282 285.413 366.713 287.674 365.577C288.469 365.116 289.291 364.724 290.132 364.403C291.169 364.148 292.224 364.018 293.282 364.015C294.394 363.936 295.5 363.766 296.592 363.504C297.142 363.431 297.662 363.17 298.093 362.754C298.486 362.208 298.723 361.524 298.767 360.803C299.269 356.826 298.512 352.766 296.648 349.428C296.413 348.96 296.098 348.558 295.724 348.249C295.267 347.965 294.766 347.803 294.253 347.774C292.133 347.463 289.912 346.891 287.771 346.829C286.237 346.789 285.465 347.667 284.38 348.938C282.138 351.639 280.828 355.565 278.064 357.643Z" fill="#323444"/>
<path d="M309.3 357.265C309.3 359.767 309.551 362.417 310.809 364.413C311.385 365.276 312.083 366.011 312.87 366.583C315.532 368.625 319.058 369.376 321.864 367.645C322.318 367.4 322.705 367.007 322.984 366.511C323.407 365.623 323.183 364.515 322.945 363.535L318.885 346.584C316.261 347.069 312.403 347.412 310.072 349.015C308.381 350.174 309.3 355.029 309.3 357.265Z" fill="#323444"/>
<path d="M275.682 252.893C275.436 253.827 274.546 254.261 274.059 255.047C273.487 255.971 273.546 257.253 273.754 258.376C274.01 260.032 274.656 261.565 275.614 262.792C276.101 263.4 276.701 263.859 277.365 264.131C278.028 264.403 278.736 264.479 279.429 264.355C280.794 264.043 281.973 262.588 282.019 260.918C281.995 260.159 281.86 259.411 281.621 258.708L278.73 248.64C278.718 248.568 278.694 248.501 278.659 248.442C278.624 248.383 278.579 248.334 278.527 248.298C278.417 248.268 278.303 248.292 278.209 248.364C277.526 248.752 276.157 249.16 275.759 250.013C275.36 250.866 275.971 251.968 275.682 252.893Z" fill="#FBB3B2"/>
<path d="M274.33 252.387C275.386 252.188 276.31 251.443 277.297 250.953C278.285 250.462 279.523 250.273 280.353 251.09C280.591 251.325 280.82 251.647 281.129 251.642C280.708 249.145 280.072 246.709 279.23 244.371C279.201 244.26 279.143 244.161 279.065 244.091C278.949 244.034 278.82 244.034 278.705 244.091L275.852 244.989C274.796 245.321 274.673 245.219 274.754 246.47C274.775 247.026 275.013 252.387 274.33 252.387Z" fill="#323444"/>
<path d="M274.017 179.684C273.593 180.471 273.593 181.451 273.593 182.375C273.593 186.893 273.631 191.437 274.186 195.91C274.318 196.982 274.483 198.054 274.568 199.136C274.664 200.643 274.684 202.156 274.627 203.665L274.203 223.321C274.152 225.726 274.051 228.31 272.817 230.199C272.443 230.832 272.267 231.604 272.321 232.379C272.643 237.311 273.322 242.202 273.996 247.078C275.081 246.488 276.266 246.216 277.456 246.285C278.645 246.353 279.803 246.759 280.837 247.471C282.976 239.371 284.159 230.95 284.351 222.453C284.449 218.272 284.3 214.065 284.834 209.935C285.729 202.981 285.364 195.849 284.707 188.854C284.499 186.638 284.059 184.356 282.88 182.641C281.765 181.14 280.279 180.109 278.641 179.7C277.073 179.204 275.67 179.715 274.017 179.684Z" fill="#5B5583"/>
<path opacity="0.1" d="M274.017 179.684C273.593 180.471 273.593 181.451 273.593 182.375C273.593 186.893 273.631 191.437 274.186 195.91C274.318 196.982 274.483 198.054 274.568 199.136C274.664 200.643 274.684 202.156 274.627 203.665L274.203 223.321C274.152 225.726 274.051 228.31 272.817 230.199C272.443 230.832 272.267 231.604 272.321 232.379C272.643 237.311 273.322 242.202 273.996 247.078C275.081 246.488 276.266 246.216 277.456 246.285C278.645 246.353 279.803 246.759 280.837 247.471C282.976 239.371 284.159 230.95 284.351 222.453C284.449 218.272 284.3 214.065 284.834 209.935C285.729 202.981 285.364 195.849 284.707 188.854C284.499 186.638 284.059 184.356 282.88 182.641C281.765 181.14 280.279 180.109 278.641 179.7C277.073 179.204 275.67 179.715 274.017 179.684Z" fill="black"/>
<path d="M279.196 236.688C276.353 254.235 277.905 272.404 283.655 288.887C284.152 290.107 284.501 291.407 284.69 292.747C284.923 295.248 283.965 297.653 283.418 300.073C282.146 305.577 282.88 311.438 283.694 317.069C284.033 319.418 284.382 321.765 284.741 324.11C285.092 326.397 285.432 328.884 284.55 330.956C285.309 334.765 285.758 338.538 286.517 342.347C286.597 342.648 286.622 342.967 286.589 343.281C286.436 343.78 286.166 344.214 285.813 344.532C285.248 345.223 284.841 346.079 284.634 347.016C284.426 347.953 284.425 348.94 284.63 349.878C286.568 348.203 289.268 348.79 291.48 349.878C293.693 350.965 295.872 352.43 298.263 352.43C297.915 349.05 297.58 345.502 298.614 342.332C299.216 340.494 300.276 338.758 300.246 336.792C300.217 335.031 299.322 333.458 299.106 331.717C299.026 330.634 299.06 329.543 299.208 328.47C299.776 322.221 299.132 315.91 298.487 309.671C298.414 308.441 298.174 307.234 297.775 306.098C297.474 305.362 297.025 304.658 297.033 303.836C297.033 302.881 297.673 302.105 297.911 301.196C298.335 299.522 297.555 297.245 298.729 296.208C301.823 293.472 300.636 286.936 300.569 282.316C300.515 278.33 300.374 274.348 300.145 270.369C302.093 276.967 302.889 283.979 302.484 290.965C302.349 293.252 302.099 295.657 302.841 297.77C303.409 299.394 304.536 300.732 304.841 302.452C305.032 303.514 304.896 304.612 304.939 305.694C304.981 306.777 305.286 307.956 306.062 308.502C306.121 313.424 306.486 318.688 306.55 323.61C306.508 326.126 306.679 328.64 307.058 331.115C307.248 331.902 307.354 332.715 307.372 333.535C307.276 334.562 307.05 335.566 306.702 336.511C305.963 339.146 305.77 341.958 306.14 344.703C306.509 347.448 307.43 350.043 308.822 352.262C309.822 350.123 311.907 348.989 313.942 348.811C315.977 348.632 317.986 349.25 319.957 349.872C319.656 346.889 320.148 343.868 321.364 341.244C321.69 340.653 321.94 340.006 322.106 339.324C322.335 338.028 321.801 336.736 321.513 335.454C321.042 333.412 321.207 331.212 321.318 329.078C321.688 321.93 321.425 314.756 320.533 307.675C320.396 306.281 320.124 304.91 319.724 303.591C319.571 303.121 319.385 302.672 319.258 302.197C319.058 301.345 318.944 300.468 318.918 299.583L318.431 291.414C318.088 285.691 319.648 280.039 320.737 274.453C321.224 271.952 321.754 269.455 322.081 266.913C322.526 263.451 322.598 259.913 323.251 256.497C323.836 253.434 324.891 250.447 325.111 247.307C325.451 242.442 323.772 237.739 322.144 233.277C321.466 231.439 318.902 231.623 317.253 231.296C305.558 228.984 293.24 228.968 282.21 234.181C281.069 234.75 280.042 235.605 279.196 236.688Z" fill="#3C354C"/>
<path d="M287.627 146.069L288.924 152.145C289.277 153.538 289.472 154.983 289.505 156.439C289.519 156.97 289.421 157.497 289.221 157.97C289.008 158.36 288.734 158.696 288.416 158.961C287.53 159.773 286.915 161.667 285.902 162.229C286.423 163.321 287.144 162.611 288.085 163.158C289.743 164.128 291.26 165.522 293.057 166.002C294.753 166.451 296.533 166.027 298.216 165.491C300.602 164.71 302.976 163.633 304.896 161.749C306.817 159.865 307.91 158.2 307.902 155.224C305.782 155.525 303.896 152.947 302.959 150.629C302.634 149.748 302.395 148.824 302.247 147.877L301.111 141.857C299.873 142.184 298.865 143.251 297.682 143.808C296.499 144.364 295.1 144.415 293.786 144.487C291.454 144.615 289.134 144.977 286.852 145.569C286.538 145.646 286.144 145.886 286.22 146.253" fill="#FBB3B2"/>
<path opacity="0.1" d="M287.627 146.069L288.924 152.145C289.277 153.538 289.472 154.983 289.505 156.439C289.519 156.97 289.421 157.497 289.221 157.97C289.008 158.36 288.734 158.696 288.416 158.961C287.53 159.773 286.915 161.667 285.902 162.229C286.423 163.321 287.144 162.611 288.085 163.158C289.743 164.128 291.26 165.522 293.057 166.002C294.753 166.451 296.533 166.027 298.216 165.491C300.602 164.71 302.976 163.633 304.896 161.749C306.817 159.865 307.91 158.2 307.902 155.224C305.782 155.525 303.896 152.947 302.959 150.629C302.634 149.748 302.395 148.824 302.247 147.877L301.111 141.857C299.873 142.184 298.865 143.251 297.682 143.808C296.499 144.364 295.1 144.415 293.786 144.487C291.454 144.615 289.134 144.977 286.852 145.569C286.538 145.646 286.144 145.886 286.22 146.253" fill="black"/>
<path d="M293.197 149.419C299.396 149.419 304.422 143.366 304.422 135.899C304.422 128.433 299.396 122.38 293.197 122.38C286.998 122.38 281.973 128.433 281.973 135.899C281.973 143.366 286.998 149.419 293.197 149.419Z" fill="#FBB3B2"/>
<path d="M296.287 158.185C296.887 156.623 297.754 155.232 298.83 154.1C300.412 152.431 302.573 151.078 302.946 148.586L306.371 153.391C306.558 153.614 306.702 153.882 306.795 154.177C306.838 154.454 306.832 154.739 306.777 155.013C306.721 155.287 306.618 155.543 306.473 155.765C305.625 157.393 304.29 158.558 303.027 159.737C300.132 162.499 297.36 165.444 294.723 168.559C294.607 168.722 294.451 168.836 294.278 168.886C294.114 168.891 293.953 168.836 293.816 168.728C291.541 167.289 289.528 165.317 287.894 162.928C287.771 162.749 287.619 162.545 287.419 162.56C287.299 162.587 287.189 162.656 287.102 162.759C285.961 163.883 284.715 165.225 283.253 165.052C285.147 163.413 286.22 160.676 286.618 157.904C286.697 156.955 286.859 156.019 287.102 155.111C287.227 154.657 287.444 154.247 287.732 153.918C288.02 153.588 288.372 153.349 288.755 153.222C287.831 154.922 288.462 157.332 289.704 158.706C290.911 159.939 292.358 160.784 293.909 161.161C295.35 161.488 295.774 159.522 296.287 158.185Z" fill="#323444"/>
<path d="M281.684 238.076C283.283 238.551 284.796 239.358 286.347 239.955C289.175 241.022 292.151 241.398 295.1 241.063C296.008 241.039 296.891 240.701 297.644 240.088C297.843 239.894 298.025 239.664 298.237 239.485C298.592 239.229 298.976 239.038 299.377 238.919C303.265 237.453 306.52 234.293 309.678 231.199C309.78 231.097 309.894 230.969 309.886 230.806C309.871 230.695 309.826 230.592 309.758 230.515L308.097 228.218C303.739 229.111 299.276 228.774 294.855 228.641C293.947 228.593 293.038 228.622 292.133 228.728C291.26 228.851 290.4 229.116 289.539 229.341C286.271 230.198 282.931 230.525 279.62 231.087C279.389 231.107 279.164 231.191 278.963 231.332C278.824 231.462 278.704 231.621 278.611 231.802L277.45 233.767C276.999 234.428 276.667 235.195 276.475 236.019C276.204 237.55 276.772 238.061 277.853 237.862C279.129 237.637 280.43 237.71 281.684 238.076Z" fill="#323444"/>
<path d="M294.676 166.221C293.38 164.621 291.91 163.238 290.306 162.111C289.658 161.615 288.94 161.269 288.187 161.09C287.808 161 287.417 161.011 287.042 161.122C286.668 161.233 286.317 161.442 286.016 161.733C285.639 162.137 285.402 162.698 285.037 163.122C284.579 163.586 284.053 163.944 283.486 164.179C281.556 165.172 279.727 166.427 278.035 167.921C277.112 168.699 276.281 169.623 275.563 170.668C273.643 173.629 273.355 177.657 273.406 181.415C273.444 184.029 275.525 185.969 276.958 187.925C278.302 189.849 279.518 191.897 280.595 194.051C281.366 195.522 282.172 197.115 282.074 198.866C281.994 200.301 281.299 201.648 281.409 203.078C281.447 203.588 281.583 204.058 281.621 204.553C281.697 205.575 281.362 206.596 281.277 207.617C281.163 209.062 281.553 210.496 281.574 211.951C281.559 212.947 281.453 213.939 281.26 214.907C280.447 219.574 279.425 224.266 279.633 229.029L277.284 229.54C277.507 229.803 277.675 230.125 277.775 230.48C277.875 230.835 277.904 231.214 277.86 231.585C277.815 231.957 277.699 232.31 277.521 232.617C277.342 232.925 277.106 233.177 276.831 233.354C280.498 234.829 284.461 234.084 288.348 234.079C291.565 234.079 294.77 234.589 297.983 234.518C301.196 234.446 304.511 233.747 307.16 231.557C307.881 230.964 308.542 230.27 309.301 229.754C310.317 229.12 311.412 228.689 312.543 228.478C314.639 227.997 316.769 227.767 318.902 227.794C319.944 227.794 321.08 227.845 321.911 227.089C322.827 226.252 323.06 224.736 323.183 223.362C323.306 221.912 323.382 220.457 323.403 219.002C323.439 217.869 323.389 216.734 323.255 215.612C323.128 214.791 322.962 213.98 322.759 213.182L321.161 206.402C320.5 203.604 321.419 200.535 321.614 197.635C321.661 196.951 321.669 196.155 321.233 195.716C321.076 195.557 320.86 195.45 320.809 195.205C320.786 195.089 320.783 194.968 320.801 194.85C320.818 194.733 320.856 194.621 320.911 194.521C321.759 192.479 323.03 190.677 324.192 188.833C326.142 185.601 327.953 182.249 329.617 178.791C329.096 171.556 326.567 164.743 322.437 159.451C321.589 158.343 320.618 157.281 319.431 156.781C318.656 156.496 317.851 156.339 317.041 156.316C313.717 156.046 310.258 155.806 307.363 153.794C307.156 153.621 306.92 153.501 306.672 153.442C306.032 153.355 305.566 154.116 305.151 154.718C304.082 156.25 302.51 157.128 301.128 158.256C298.551 160.365 296.537 163.265 294.676 166.221Z" fill="#5B5583"/>
<path d="M329.906 180.879C330.567 183.401 330.503 186.097 330.719 188.726C330.847 190.313 331.078 191.885 331.41 193.428C331.562 194.277 331.834 195.087 332.216 195.823C332.597 196.497 333.144 197.043 333.386 197.804C333.518 198.319 333.576 198.858 333.559 199.397L333.61 202.92C333.719 204.786 333.483 206.659 332.919 208.403L331.092 215.096C330.105 218.721 329.092 222.402 327.311 225.558C327.061 226.092 326.681 226.521 326.222 226.788C325.863 226.902 325.495 226.971 325.124 226.992C324.478 227.131 323.892 227.537 323.467 228.14C323.043 228.743 322.806 229.505 322.797 230.295C322.373 229.549 321.843 228.897 321.233 228.371L317.515 224.797C316.244 223.551 314.917 222.285 313.374 221.565C315.449 220.784 317.292 219.295 318.678 217.278C320.064 215.26 320.934 212.801 321.182 210.2C321.181 209.426 321.326 208.661 321.606 207.964C321.915 207.361 322.488 206.902 322.53 206.192C322.581 205.299 321.742 204.625 321.742 203.731C321.742 203.139 322.106 202.649 322.267 202.092C322.418 201.405 322.418 200.682 322.267 199.994L321.754 196.563C321.724 196.219 321.638 195.886 321.5 195.583C321.308 195.292 321.095 195.022 320.864 194.776C319.982 193.587 320.372 191.713 320.864 190.248C321.993 186.995 323.448 183.921 325.196 181.093C325.818 180.144 326.394 179.152 326.921 178.122C327.371 177.183 327.472 175.881 327.947 175.059C328.558 176.988 329.384 178.893 329.906 180.879Z" fill="#5B5583"/>
<path d="M313.243 221.774C313.053 221.943 312.89 222.151 312.759 222.387C312.26 223.142 311.595 223.713 310.839 224.036C311.263 224.404 311.649 224.766 312.047 225.139C314.995 227.881 317.695 230.991 320.101 234.416C320.368 233.267 321.966 233.349 322.356 232.251C322.448 231.937 322.477 231.601 322.441 231.271C322.36 229.551 322.156 227.842 321.83 226.165C321.702 225.301 321.412 224.484 320.983 223.776C320.389 222.913 319.465 222.499 318.583 222.142C317.248 221.58 314.599 220.789 313.243 221.774Z" fill="#323444"/>
<path d="M307.944 225.787C306.672 226.921 305.558 228.34 304.129 229.116C303.12 229.667 301.972 229.907 301.09 230.729C301.569 232.001 302.815 232.659 303.972 232.608C305.131 232.471 306.241 231.981 307.198 231.184C307.957 230.622 308.847 229.969 309.674 230.362C309.801 231.138 309.25 231.868 309.25 232.654C309.25 233.44 309.792 234.012 310.326 234.426C312.87 236.402 316.142 236.238 319.173 236.009C319.347 236.016 319.518 235.955 319.66 235.835C319.726 235.743 319.776 235.636 319.807 235.52C319.838 235.404 319.85 235.282 319.843 235.161C319.881 234.354 319.898 233.553 319.902 232.746C319.988 232.096 319.917 231.429 319.7 230.825C319.482 230.221 319.126 229.704 318.673 229.336C317.028 227.633 315.254 226.12 313.374 224.817C311.509 223.515 309.618 224.286 307.944 225.787Z" fill="#FBB3B2"/>
<path d="M297.139 130.247C295.257 130.518 293.888 132.29 294.079 134.214C294.27 136.139 295.948 137.467 297.83 137.191C299.712 136.915 301.081 135.149 300.891 133.229C300.7 131.309 299.021 129.977 297.139 130.247ZM297.779 136.66C296.185 136.89 294.765 135.761 294.6 134.138C294.435 132.514 295.601 131.013 297.19 130.783C298.78 130.554 300.204 131.682 300.369 133.306C300.535 134.929 299.369 136.43 297.779 136.66Z" fill="#3C354C"/>
<path d="M287.966 131.575C286.084 131.845 284.715 133.617 284.906 135.537C285.097 137.456 286.775 138.789 288.657 138.518C290.539 138.248 291.909 136.476 291.718 134.551C291.527 132.626 289.848 131.304 287.966 131.575ZM288.606 137.982C287.013 138.212 285.593 137.084 285.432 135.465C285.27 133.847 286.428 132.34 288.021 132.106C289.615 131.871 291.035 133.004 291.196 134.628C291.357 136.251 290.196 137.752 288.606 137.982Z" fill="#3C354C"/>
<path d="M281.154 132.56L285.245 133.612L284.842 134.909L280.985 133.545L281.154 132.56Z" fill="#3C354C"/>
<path d="M303.955 129.262L300.183 131.452L300.831 132.596L304.311 130.171L303.955 129.262Z" fill="#3C354C"/>
<path d="M291.341 133.285L294.21 132.872L294.062 133.729L291.599 133.928L291.341 133.285Z" fill="#3C354C"/>
<path d="M285.775 132.126C286.045 131.427 286.189 130.666 286.199 129.895C286.209 129.433 286.274 128.976 286.394 128.537C286.602 127.979 286.919 127.491 287.318 127.113C288.64 125.765 290.535 125.07 292.404 124.973C294.443 124.86 296.47 125.388 298.288 126.505C298.843 126.818 299.34 127.263 299.75 127.812C300.344 128.685 300.471 129.813 301.069 130.676C301.477 131.2 301.99 131.588 302.559 131.802C303.127 132.017 303.733 132.051 304.316 131.902C304.523 131.013 304.252 130.074 304.358 129.165C304.525 128.386 304.751 127.627 305.032 126.898C305.689 124.565 304.731 121.859 302.756 120.465C302.065 119.955 301.247 119.623 300.73 118.933C300.212 118.244 300.089 117.529 299.733 116.84C298.788 115.017 296.342 114.165 294.481 115.007C293.896 115.273 293.379 115.676 292.786 115.962C291.684 116.508 290.429 116.605 289.217 116.789C288.022 116.922 286.853 117.291 285.758 117.882C284.711 118.505 283.833 119.505 283.592 120.7C283.477 121.251 283.503 121.823 283.388 122.369C282.803 125.142 279.027 126.49 278.815 129.318C278.738 130.339 279.2 131.319 279.777 132.152C280.175 132.718 281.129 134.235 281.803 134.454C282.477 134.674 282.99 133.903 283.634 133.637C284.652 133.254 285.266 133.173 285.775 132.126Z" fill="#CBCEDA"/>
<path d="M333.593 311.948C333.593 337.599 346.954 358.358 363.464 358.358L333.593 311.948Z" fill="#46455B"/>
<path d="M363.464 358.363C363.464 332.422 378.377 311.433 396.803 311.433L363.464 358.363Z" fill="#98CECD"/>
<path d="M344.419 314.277C344.419 338.645 352.94 358.363 363.465 358.363L344.419 314.277Z" fill="#98CECD"/>
<path d="M363.464 358.363C363.464 325.218 380.7 298.393 401.996 298.393L363.464 358.363Z" fill="#46455B"/>
<path opacity="0.1" d="M362.172 367.226C366.273 367.226 369.598 366.549 369.598 365.715C369.598 364.88 366.273 364.204 362.172 364.204C358.07 364.204 354.745 364.88 354.745 365.715C354.745 366.549 358.07 367.226 362.172 367.226Z" fill="#98CECD"/>
<path d="M357.183 358.69C357.183 358.69 361.421 358.532 362.693 357.439C363.965 356.346 369.208 355.034 369.526 356.791C369.844 358.547 375.884 365.526 371.107 365.572C366.33 365.618 359.993 364.674 358.721 363.739C357.45 362.805 357.183 358.69 357.183 358.69Z" fill="#A8A8A8"/>
<path opacity="0.2" d="M371.196 364.959C366.415 365.005 360.086 364.061 358.81 363.126C357.84 362.417 357.454 359.859 357.322 358.685H357.183C357.183 358.685 357.45 362.8 358.726 363.734C360.001 364.668 366.33 365.613 371.112 365.567C372.493 365.567 372.968 364.959 372.943 364.086C372.752 364.617 372.248 364.949 371.196 364.959Z" fill="black"/>
<path d="M9.5332 326.938C9.5332 347.361 20.16 363.862 33.2962 363.862L9.5332 326.938Z" fill="#46455B"/>
<path d="M33.2961 363.862C33.2961 343.225 45.1649 326.525 59.8186 326.525L33.2961 363.862Z" fill="#98CECD"/>
<path d="M18.1423 328.797C18.1423 348.198 24.9245 363.872 33.2962 363.872L18.1423 328.797Z" fill="#98CECD"/>
<path d="M33.2961 363.862C33.2961 337.492 47.0088 316.15 63.9515 316.15L33.2961 363.862Z" fill="#46455B"/>
<path opacity="0.1" d="M32.2661 370.918C35.5296 370.918 38.1751 370.378 38.1751 369.713C38.1751 369.047 35.5296 368.508 32.2661 368.508C29.0027 368.508 26.3572 369.047 26.3572 369.713C26.3572 370.378 29.0027 370.918 32.2661 370.918Z" fill="#98CECD"/>
<path d="M28.2986 364.122C28.2986 364.122 31.6685 363.994 32.6816 363.101C33.6946 362.207 37.8699 361.186 38.12 362.59C38.3701 363.994 43.1854 369.539 39.3917 369.575C35.5979 369.61 30.5494 368.86 29.5363 368.12C28.5232 367.379 28.2986 364.122 28.2986 364.122Z" fill="#A8A8A8"/>
<path opacity="0.2" d="M39.4468 369.131C35.6318 369.166 30.6045 368.416 29.5914 367.671C28.82 367.109 28.5148 365.072 28.4088 364.137H28.2986C28.2986 364.137 28.5105 367.41 29.5236 368.156C30.5367 368.901 35.5767 369.646 39.3789 369.611C40.4768 369.611 40.8583 369.131 40.8371 368.431C40.6845 368.84 40.2649 369.1 39.4468 369.131Z" fill="black"/>
</g>
<defs>
<clipPath id="clip0">
<rect width="402" height="387" fill="white"/>
</clipPath>
</defs>
</svg>
