<svg width="355" height="312" viewBox="0 0 355 312" fill="none" xmlns="http://www.w3.org/2000/svg">
<g clip-path="url(#clip0)">
<path d="M251.901 73.0084H250.26V26.7646C250.26 23.2499 249.588 19.7695 248.28 16.5223C246.973 13.275 245.056 10.3245 242.64 7.83919C240.225 5.35386 237.357 3.3824 234.2 2.03734C231.044 0.692294 227.661 2.7719e-06 224.244 0H129.01C125.593 -8.31541e-06 122.21 0.692272 119.054 2.03731C115.897 3.38235 113.029 5.35381 110.613 7.83913C108.197 10.3245 106.281 13.275 104.974 16.5222C103.666 19.7694 102.993 23.2498 102.993 26.7646V280.461C102.993 287.56 105.734 294.367 110.613 299.387C115.492 304.406 122.11 307.226 129.009 307.226H224.244C231.144 307.226 237.761 304.406 242.64 299.387C247.519 294.368 250.26 287.56 250.26 280.461V105.925H251.901L251.901 73.0084Z" fill="#3F3D56"/>
<path d="M225.294 6.9634H212.863C213.434 8.40528 213.652 9.96968 213.498 11.5188C213.344 13.0679 212.821 14.5541 211.977 15.8466C211.133 17.139 209.992 18.1981 208.656 18.9303C207.32 19.6626 205.83 20.0457 204.316 20.0458H149.758C148.244 20.0457 146.754 19.6626 145.418 18.9304C144.082 18.1981 142.941 17.139 142.097 15.8466C141.253 14.5541 140.73 13.0679 140.576 11.5188C140.422 9.96967 140.64 8.40527 141.211 6.96338H129.601C124.448 6.96338 119.506 9.06919 115.862 12.8176C112.219 16.566 110.172 21.6498 110.172 26.9509V280.275C110.172 282.9 110.674 285.499 111.651 287.924C112.627 290.349 114.058 292.553 115.862 294.409C117.667 296.265 119.808 297.737 122.166 298.741C124.523 299.746 127.049 300.263 129.601 300.263H225.294C227.845 300.263 230.372 299.746 232.729 298.741C235.086 297.737 237.228 296.265 239.032 294.409C240.836 292.553 242.267 290.349 243.244 287.924C244.22 285.499 244.723 282.9 244.723 280.275V26.9509C244.723 24.3261 244.22 21.727 243.244 19.302C242.267 16.877 240.836 14.6736 239.032 12.8176C237.228 10.9616 235.086 9.4893 232.729 8.48484C230.372 7.48038 227.845 6.96339 225.294 6.9634Z" fill="white"/>
<path d="M343.339 130.457C341.328 136.584 338.244 142.166 331.958 142.166C325.672 142.166 320.93 136.913 320.576 130.457C320.124 122.207 325.527 118.714 331.958 118.748C339.555 118.789 345.726 123.186 343.339 130.457Z" fill="#2F2E41"/>
<path d="M343.04 130.194H320.577V159.465H343.04V130.194Z" fill="#2F2E41"/>
<path d="M343.699 152.001H345.61C347.022 154.072 347.981 156.432 348.421 158.921C348.86 161.409 348.771 163.966 348.157 166.416C346.035 174.715 347.733 176.244 347.733 176.244C347.733 176.244 350.497 185.231 347.524 198.772C344.552 212.312 350.28 215.992 350.28 215.992L344.973 205.072L342.001 176.244L343.699 152.001Z" fill="#E6E6E6"/>
<path d="M337.012 141.409C337.012 141.409 335.313 148.397 336.162 148.397C337.012 148.397 339.984 152.11 339.984 152.11L341.894 159.317L340.408 164.559L335.313 163.467L328.944 156.26L327.034 154.294L325.335 147.961C325.335 147.961 327.458 145.34 325.972 143.156C324.486 140.972 337.012 141.409 337.012 141.409Z" fill="#FBBEBE"/>
<path d="M285.637 160.847L280.967 152.984C280.967 152.984 275.925 141.508 272.316 145.658C268.707 149.808 277.782 158.226 277.782 158.226L282.453 164.559L285.637 160.847Z" fill="#FBBEBE"/>
<path d="M347.627 229.205L344.23 254.758C344.23 254.758 344.655 256.724 340.409 263.931C336.163 271.138 324.699 286.863 324.699 286.863L321.302 280.311C321.302 280.311 325.336 259.563 332.342 255.195L331.492 223.745L347.627 229.205Z" fill="#FBBEBE"/>
<path d="M321.303 277.69L325.973 286.863C325.973 286.863 322.152 292.382 323.638 293.474C325.124 294.566 327.034 304.394 323.001 303.302C318.967 302.21 315.783 297.842 315.783 297.187C315.783 296.532 318.118 292.978 316.844 290.794C315.571 288.61 314.721 287.955 314.721 287.955L312.18 291.431L311.118 290.776L315.783 283.587C315.783 283.587 316.42 281.84 318.967 280.748L321.303 277.69Z" fill="#2F2E41"/>
<path d="M331.542 225.58C331.542 225.58 333.191 249.735 329.582 256.068V287.518L324.699 288.173C324.699 288.173 314.838 271.523 318.447 255.143C322.056 238.763 314.721 223.745 314.721 223.745L331.542 225.58Z" fill="#FBBEBE"/>
<path d="M330.325 146.76C335.249 146.76 339.241 142.653 339.241 137.587C339.241 132.521 335.249 128.414 330.325 128.414C325.401 128.414 321.409 132.521 321.409 137.587C321.409 142.653 325.401 146.76 330.325 146.76Z" fill="#FBBEBE"/>
<path d="M339.347 161.72L330.431 150.145L325.336 146.65L323.213 149.49L317.269 151.237C317.269 151.237 313.447 152.11 309.414 156.915C305.38 161.72 298.162 164.559 298.162 164.559C298.162 164.559 285.212 160.191 285.212 159.318C285.212 158.444 279.056 165.214 280.542 167.835C282.028 170.456 289.111 178.463 299.513 176.934C309.916 175.405 313.872 173.95 313.872 173.95C313.872 173.95 315.783 183.997 321.302 185.962C326.822 187.928 344.867 189.238 344.867 189.238L348.688 176.134C348.688 176.134 352.934 170.456 347.202 162.157C347.202 162.157 347.092 157.515 346.476 154.427C346.236 153.225 345.92 152.259 345.504 151.892C344.018 150.582 336.163 148.398 336.163 148.398C336.163 148.398 337.437 152.766 338.074 152.984C338.71 153.202 340.196 160.628 339.347 161.72Z" fill="#E6E6E6"/>
<path d="M312.079 252.364C322.77 251.599 328.995 253.401 331.771 254.775C332.288 255.015 334.213 255.519 334.213 255.602C334.213 256.257 348.184 257.904 353.491 256.594C358.798 255.283 348.582 201.796 346.247 199.394C343.912 196.991 345.171 188.199 345.171 188.199C345.171 188.199 323.744 185.198 321.833 184.761C320.98 184.567 320.549 184.894 320.334 185.318C320.001 185.954 319.497 186.477 318.882 186.827C314.375 189.498 310.758 207.966 308.034 218.176C305.062 229.314 312.079 252.364 312.079 252.364Z" fill="#2F2E41"/>
<path d="M330.431 285.552C330.431 285.552 332.928 294.936 334.464 302.369C334.464 302.369 335.526 304.949 339.347 306.914C343.168 308.88 338.699 312.144 335.09 311.926C331.481 311.707 328.084 312.144 327.66 311.052C327.235 309.96 325.973 305.208 325.973 305.208L325.276 311.782L323.153 312L323.85 303.461C323.85 303.461 322.151 300.185 324.487 294.725L323.897 286.344C323.897 286.344 329.794 287.736 330.431 285.552Z" fill="#2F2E41"/>
<path opacity="0.1" d="M330.486 229.323C331.003 229.564 331.489 229.867 331.934 230.227C332.047 228.164 332.696 215.682 331.917 215.883L330.486 229.323Z" fill="black"/>
<path d="M326.634 124.955C326.634 124.955 326.535 124.39 322.673 125.88C318.811 127.37 316.496 138.364 318.427 144.82C319.205 147.422 318.572 149.298 317.539 150.611C313.662 155.536 315.188 162.934 320.835 165.467C320.995 165.538 321.158 165.609 321.323 165.679L323.737 167.168C323.737 167.168 320.66 163.003 322.2 157.675C323.537 153.136 323.702 148.316 322.679 143.691C322.503 142.911 322.302 142.107 322.074 141.286C320.143 134.333 321.082 135.136 327.84 128.183C327.84 128.183 331.702 131.163 335.082 132.653C338.461 134.143 341.357 135.633 338.943 140.599C336.53 145.565 330.737 150.035 334.599 156.491C338.461 162.947 338.943 160.464 338.461 162.947L337.978 165.43L340.874 162.451L338.943 166.424C338.943 166.424 345.219 166.424 347.15 161.457L348.116 162.451C348.116 162.451 351.977 155.498 344.736 149.042C344.736 149.042 342.323 147.552 345.702 142.586C349.081 137.619 346.486 126.942 342.141 124.955C337.796 122.969 326.634 124.955 326.634 124.955Z" fill="#2F2E41"/>
<path d="M26.3253 137.307L25.9692 146.752L33.1103 147.037L33.4663 137.592L26.3253 137.307Z" fill="#98CECD"/>
<path d="M58.5381 170.387C58.5381 170.387 68.4273 165.526 68.2691 169.724C68.1108 173.922 58.3008 176.684 58.3008 176.684L58.5381 170.387Z" fill="#FFB9B9"/>
<path d="M53.1124 205.906C53.1124 205.906 57.778 217.654 59.5018 226.131C61.2257 234.609 63.8509 246.275 60.474 254.549C57.0971 262.823 47.4962 287.14 47.3973 289.764C47.2984 292.387 48.2197 295.052 46.1794 294.97C44.1391 294.889 33.0362 291.293 32.5854 289.698C32.1347 288.104 36.3735 284.068 36.3735 284.068L46.8405 250.326L35.9198 228.344L28.0427 261.138L26.4999 302.068C26.4999 302.068 18.9279 299.664 17.8287 301.722C17.8287 301.722 14.4362 296.857 14.0052 294.738C13.5743 292.618 15.6074 252.234 15.6074 252.234C15.6074 252.234 8.65698 206.235 14.2678 206.459C19.8786 206.683 41.8555 192.844 53.1124 205.906Z" fill="#2F2E41"/>
<path d="M46.2585 292.871C46.2585 292.871 51.4341 304.639 51.9244 305.184C52.4147 305.73 55.7874 311.119 53.237 311.018C50.6867 310.916 44.6647 308.048 40.2323 303.667C35.7999 299.286 29.9559 291.695 30.4858 291.191C31.0156 290.686 34.6455 289.255 34.6455 289.255L46.2585 292.871Z" fill="#2F2E41"/>
<path d="M25.5789 299.404C25.5789 299.404 25.8912 304.672 26.8322 306.811C27.7732 308.951 27.6545 312.099 25.1042 311.998C22.5538 311.896 15.9624 311.904 15.9624 311.904C15.9624 311.904 15.571 308.735 16.1009 308.231C16.6307 307.726 18.8886 300.713 17.9278 299.098C16.967 297.484 25.5789 299.404 25.5789 299.404Z" fill="#2F2E41"/>
<path d="M21.806 128.455C21.806 128.455 16.369 137.172 14.2496 139.19C12.1301 141.208 18.0928 145.65 18.0928 145.65L28.7648 147.127C28.7648 147.127 28.6305 137.136 29.1801 136.107C29.7298 135.078 21.806 128.455 21.806 128.455Z" fill="#FFB9B9"/>
<path d="M31.0819 139.861C31.0819 139.861 28.8834 143.978 26.8431 143.897C24.8028 143.815 14.2495 139.19 13.7988 137.595C13.3481 136.001 10.3032 149.018 10.3032 149.018L36.1264 195.769L42.4252 191.291L39.3732 163.841L36.8666 149.026L31.0819 139.861Z" fill="white"/>
<path d="M12.8461 181.702C13.9127 183.833 14.4566 186.2 14.4303 188.597C14.4264 188.702 14.4224 188.807 14.4134 188.912C14.169 193.769 12.4299 199.386 11.8059 203.47C11.3532 206.4 11.482 208.539 13.1488 209.042C17.1899 210.254 12.5596 211.121 28.1939 216.474C43.8281 221.828 46.5565 217.207 46.5961 216.157C46.6356 215.108 44.382 207.135 44.9118 206.63C45.4417 206.126 52.3256 213.233 54.4054 212.264C56.4852 211.296 54.6428 205.968 54.6428 205.968C54.6428 205.968 49.9574 194.744 50.0563 192.121C50.1552 189.497 42.9591 177.123 42.9591 177.123L38.0645 144.344C38.0645 144.344 36.1824 140.065 33.6518 139.439C32.0576 139.098 30.3971 139.408 29.0216 140.305L33.2563 149.933L37.7241 166.929L36.9766 173.205C36.9766 173.205 31.7812 161.962 28.3689 157.621C24.9566 153.281 17.6814 143.006 17.6814 143.006C17.6814 143.006 15.9829 137.11 17.2651 135.348C18.5475 133.581 11.9165 133.316 9.08926 140.561C7.59079 144.4 5.15794 150.126 3.6339 155.457C2.27583 160.18 1.63431 164.596 2.97977 167.119C5.03614 170.975 10.209 176.042 12.8461 181.702Z" fill="#3F3D56"/>
<path opacity="0.1" d="M2.97976 167.119C5.03615 170.975 10.209 176.042 12.8461 181.702C13.5349 179.149 14.3752 176.508 14.3752 176.508C14.3752 176.508 17.5981 158.768 8.06491 154.184C6.48533 154.027 4.90553 154.481 3.63389 155.458C2.27582 160.18 1.63432 164.596 2.97976 167.119Z" fill="black"/>
<path d="M40.8238 166.001L48.9059 168.426L60.1275 168.873L61.2819 178.905L42.8401 180.271C42.8401 180.271 38.2339 166.949 40.8238 166.001Z" fill="#3F3D56"/>
<path d="M27.645 199.729C27.645 199.729 38.4572 201.575 35.9894 204.922C33.5216 208.269 23.9434 204.75 23.9434 204.75L27.645 199.729Z" fill="#FFB9B9"/>
<path opacity="0.1" d="M14.4136 188.912C14.1692 193.769 12.4301 199.385 11.8062 203.47C15.2505 206.824 18.5259 209.782 19.7602 209.831C22.3106 209.933 26.411 209.571 27.9214 210.157C29.4319 210.742 30.3177 200.793 30.3177 200.793C30.3177 200.793 29.4163 197.604 25.395 195.867C22.6808 194.691 17.478 191.504 14.4136 188.912Z" fill="black"/>
<path d="M8.1836 151.035C8.1836 151.035 -0.448079 149.64 0.0182358 164.373C0.484551 179.107 -0.89163 188.512 2.57999 191.278C6.05161 194.044 17.3283 206.581 19.8787 206.683C22.4291 206.785 26.5294 206.423 28.0399 207.008C29.5503 207.594 30.4362 197.644 30.4362 197.644C30.4362 197.644 29.5347 194.455 25.5135 192.718C21.4923 190.981 12.0185 184.822 12.0976 182.723C12.1767 180.624 14.4939 173.359 14.4939 173.359C14.4939 173.359 17.7167 155.62 8.1836 151.035Z" fill="#3F3D56"/>
<path d="M29.417 141.363C35.6192 141.363 40.6471 136.19 40.6471 129.81C40.6471 123.429 35.6192 118.257 29.417 118.257C23.2149 118.257 18.187 123.429 18.187 129.81C18.187 136.19 23.2149 141.363 29.417 141.363Z" fill="#FFB9B9"/>
<path d="M36.9788 113.251C37.2496 113.491 37.574 113.659 37.923 113.739C38.0982 113.771 38.2786 113.73 38.4249 113.626C38.5712 113.522 38.6715 113.362 38.7038 113.182C38.9057 113.759 39.281 114.254 39.7752 114.596C40.2998 114.877 41.111 114.641 41.1866 114.038C41.2632 114.496 41.4603 114.924 41.7564 115.275C41.9109 115.443 42.1235 115.542 42.3481 115.55C42.5728 115.557 42.7913 115.474 42.9563 115.316C42.7266 116.608 42.8684 117.936 42.7962 119.247C42.7241 120.558 42.3843 121.948 41.4215 122.81C40.0175 124.067 37.9062 123.757 36.0593 123.519C35.78 123.458 35.4902 123.475 35.219 123.566C34.5275 123.869 34.5589 124.859 34.5495 125.633C34.4931 126.989 33.9712 128.281 33.0764 129.28C32.1816 130.278 30.9718 130.918 29.6619 131.086C28.9288 131.202 28.1808 131.014 27.5823 130.563C27.0579 130.106 26.7901 129.361 26.1892 129.017C25.2118 128.459 24.0264 129.274 23.3118 130.158C22.5972 131.043 21.8929 132.131 20.7858 132.293C19.3217 132.508 18.2066 130.972 17.6595 129.559C16.9046 127.578 16.543 125.462 16.5959 123.334C16.6488 121.207 17.1151 119.113 17.9674 117.174C21.0245 110.318 31.4677 109.234 36.9788 113.251Z" fill="#2F2E41"/>
<path d="M69.6677 163.991C73.3456 159.73 79.5095 160.048 84.269 161.959C90.159 164.323 94.4207 169.582 99.1767 173.642C101.623 175.804 104.37 177.578 107.326 178.906C110.274 180.166 113.405 180.914 116.591 181.121C122.792 181.55 128.956 179.842 134.109 176.266C138.938 172.88 142.662 168.073 144.793 162.474C145.05 161.791 145.279 161.097 145.484 160.395C145.712 159.613 144.524 159.279 144.297 160.059C142.607 165.752 139.214 170.753 134.602 174.349C129.692 178.16 123.659 180.12 117.513 179.9C114.348 179.793 111.224 179.132 108.275 177.944C105.306 176.688 102.551 174.952 100.113 172.803C95.3384 168.738 91.0927 163.569 85.2794 161.025C80.565 158.962 74.4843 158.334 70.1952 161.75C69.6895 162.153 69.2215 162.604 68.7972 163.096C68.2728 163.703 69.1404 164.602 69.6677 163.991H69.6677Z" fill="#2F2E41"/>
<path d="M268.936 141.329C268.164 136.073 263.672 132.625 259.025 131.096C252.859 129.067 246.458 130.605 240.249 131.583C236.907 132.11 233.517 132.457 230.143 132.058C225.724 131.509 221.502 129.861 217.841 127.257C214.18 124.652 211.191 121.17 209.131 117.111C206.356 111.46 205.494 105.018 206.682 98.8062C206.835 98.027 207.023 97.2563 207.239 96.4933C207.276 96.3335 207.252 96.1652 207.17 96.0237C207.089 95.8823 206.958 95.7789 206.804 95.7352C206.65 95.6915 206.486 95.7111 206.345 95.7897C206.205 95.8683 206.1 95.9999 206.052 96.1566C204.343 102.291 204.606 108.83 206.804 114.798C208.957 120.622 212.889 125.569 218.008 128.899C223.201 132.273 229.303 133.858 235.43 133.425C238.994 133.184 242.501 132.447 246.028 131.909C249.161 131.431 252.414 131.056 255.567 131.559C260.267 132.309 265.626 134.872 267.309 139.814C267.512 140.416 267.659 141.036 267.749 141.665C267.867 142.469 269.053 142.127 268.936 141.329V141.329Z" fill="#2F2E41"/>
<path d="M177.447 223.579C176.19 222.285 174.697 221.259 173.054 220.559C171.412 219.859 169.651 219.499 167.873 219.499C166.094 219.499 164.334 219.859 162.691 220.559C161.048 221.259 159.555 222.285 158.298 223.579C157.041 224.872 156.043 226.408 155.363 228.098C154.682 229.788 154.332 231.6 154.332 233.429C154.332 235.258 154.682 237.07 155.363 238.76C156.043 240.45 157.041 241.985 158.298 243.279L177.447 262.979L196.596 243.279C197.854 241.985 198.852 240.45 199.534 238.76C200.215 237.069 200.565 235.258 200.565 233.428C200.566 231.598 200.216 229.786 199.535 228.096C198.855 226.405 197.857 224.869 196.6 223.576C195.342 222.282 193.849 221.256 192.206 220.556C190.562 219.855 188.801 219.495 187.023 219.496C185.244 219.496 183.483 219.857 181.84 220.557C180.197 221.258 178.704 222.285 177.447 223.579Z" fill="#98CECD"/>
<path d="M280.296 63.9387H162.326V87.9001H280.296V63.9387Z" fill="#E6E6E6"/>
<path d="M164.841 85.3126H277.781V66.5259H164.841V85.3126Z" fill="white"/>
<path d="M174.728 82.921C178.57 82.921 181.685 79.7166 181.685 75.7637C181.685 71.8109 178.57 68.6064 174.728 68.6064C170.885 68.6064 167.771 71.8109 167.771 75.7637C167.771 79.7166 170.885 82.921 174.728 82.921Z" fill="#98CECD"/>
<path d="M260.029 72.9631H191.365V74.5191H260.029V72.9631Z" fill="#E6E6E6"/>
<path d="M260.029 77.0085H191.365V78.5645H260.029V77.0085Z" fill="#E6E6E6"/>
<path d="M205.614 126.416H87.644V150.377H205.614V126.416Z" fill="#E6E6E6"/>
<path d="M90.1592 147.79H203.099V129.003H90.1592V147.79Z" fill="white"/>
<path d="M100.046 145.398C103.888 145.398 107.003 142.194 107.003 138.241C107.003 134.288 103.888 131.083 100.046 131.083C96.2037 131.083 93.0889 134.288 93.0889 138.241C93.0889 142.194 96.2037 145.398 100.046 145.398Z" fill="#98CECD"/>
<path d="M185.347 135.44H116.683V136.996H185.347V135.44Z" fill="#E6E6E6"/>
<path d="M185.347 139.486H116.683V141.042H185.347V139.486Z" fill="#E6E6E6"/>
</g>
<defs>
<clipPath id="clip0">
<rect width="355" height="312" fill="white"/>
</clipPath>
</defs>
</svg>
