<svg width="411" height="423" viewBox="0 0 411 423" fill="none" xmlns="http://www.w3.org/2000/svg">
<path d="M101.367 292.741L139.149 225.713L54.534 165.014L10.8364 242.535L80.824 292.741H101.367Z" fill="#F0F0F0"/>
<path d="M154.908 313.651H61.3188V292.398H154.908V313.651ZM62.5343 312.28H153.692V293.769H62.5343V312.28Z" fill="#3F3D56"/>
<path d="M143.361 309.88C146.718 309.88 149.439 306.811 149.439 303.024C149.439 299.238 146.718 296.168 143.361 296.168C140.005 296.168 137.284 299.238 137.284 303.024C137.284 306.811 140.005 309.88 143.361 309.88Z" fill="#45D7D4"/>
<path d="M126.345 309.88C129.701 309.88 132.422 306.811 132.422 303.024C132.422 299.238 129.701 296.168 126.345 296.168C122.988 296.168 120.268 299.238 120.268 303.024C120.268 306.811 122.988 309.88 126.345 309.88Z" fill="#45D7D4"/>
<path d="M109.329 309.88C112.685 309.88 115.406 306.811 115.406 303.024C115.406 299.238 112.685 296.168 109.329 296.168C105.972 296.168 103.251 299.238 103.251 303.024C103.251 306.811 105.972 309.88 109.329 309.88Z" fill="#45D7D4"/>
<path d="M92.3126 309.88C95.6689 309.88 98.3898 306.811 98.3898 303.024C98.3898 299.238 95.6689 296.168 92.3126 296.168C88.9562 296.168 86.2354 299.238 86.2354 303.024C86.2354 306.811 88.9562 309.88 92.3126 309.88Z" fill="#45D7D4"/>
<path d="M75.2964 309.88C78.6528 309.88 81.3736 306.811 81.3736 303.024C81.3736 299.238 78.6528 296.168 75.2964 296.168C71.9401 296.168 69.2192 299.238 69.2192 303.024C69.2192 306.811 71.9401 309.88 75.2964 309.88Z" fill="#45D7D4"/>
<path d="M266.121 77.47V25.3663H289.214V0H176.178V127.517H272.805V115.049C272.805 112.725 273.211 110.424 274 108.277C274.788 106.13 275.944 104.179 277.4 102.535C278.857 100.892 280.587 99.5882 282.49 98.6989C284.393 97.8095 286.433 97.3517 288.493 97.3517H289.214V77.47H266.121Z" fill="#F0F0F0"/>
<path d="M461.807 421.629H-11V423H461.807V421.629Z" fill="#3F3D56"/>
<path opacity="0.1" d="M396.781 167.966C405.843 167.966 413.189 159.678 413.189 149.455C413.189 139.232 405.843 130.945 396.781 130.945C387.719 130.945 380.373 139.232 380.373 149.455C380.373 159.678 387.719 167.966 396.781 167.966Z" fill="black"/>
<path opacity="0.1" d="M410.758 247.493C410.758 248.904 410.372 250.281 409.652 251.436C408.933 252.59 407.915 253.466 406.738 253.944C405.56 254.422 404.281 254.478 403.074 254.105C401.868 253.732 400.793 252.948 399.996 251.86L399.99 251.853C399.877 251.323 399.82 250.78 399.819 250.235C399.819 248.824 400.206 247.447 400.925 246.292C401.645 245.138 402.663 244.262 403.84 243.784C405.017 243.306 406.297 243.25 407.503 243.623C408.71 243.996 409.785 244.78 410.582 245.868C410.582 245.869 410.582 245.87 410.583 245.871C410.583 245.871 410.583 245.872 410.584 245.873C410.585 245.874 410.585 245.874 410.586 245.874C410.587 245.875 410.587 245.875 410.588 245.875C410.701 246.405 410.758 246.948 410.758 247.493Z" fill="black"/>
<path opacity="0.1" d="M410.758 299.596C410.758 301.008 410.372 302.385 409.652 303.539C408.933 304.694 407.915 305.57 406.738 306.047C405.56 306.525 404.281 306.581 403.074 306.208C401.868 305.835 400.793 305.051 399.996 303.963L399.99 303.957C399.877 303.427 399.82 302.884 399.819 302.339C399.819 300.927 400.206 299.55 400.925 298.396C401.645 297.241 402.663 296.365 403.84 295.888C405.017 295.41 406.297 295.354 407.503 295.727C408.71 296.1 409.785 296.884 410.582 297.972C410.582 297.972 410.582 297.973 410.583 297.974C410.583 297.975 410.583 297.976 410.584 297.976C410.585 297.977 410.585 297.978 410.586 297.978C410.587 297.978 410.587 297.978 410.588 297.978C410.701 298.508 410.758 299.051 410.758 299.596Z" fill="black"/>
<path d="M305.015 32.9077H273.414V68.5576H305.015V32.9077Z" fill="#F0F0F0"/>
<path d="M396.781 58.9594C395.339 58.9594 393.929 58.4769 392.729 57.5729C391.53 56.669 390.595 55.3841 390.043 53.8808C389.491 52.3775 389.347 50.7234 389.628 49.1275C389.91 47.5317 390.604 46.0658 391.624 44.9152C392.644 43.7647 393.944 42.9811 395.358 42.6637C396.773 42.3463 398.239 42.5092 399.572 43.1319C400.904 43.7545 402.043 44.809 402.845 46.1619C403.646 47.5148 404.074 49.1054 404.074 50.7325C404.071 52.9137 403.302 55.0048 401.935 56.5471C400.568 58.0894 398.714 58.957 396.781 58.9594ZM396.781 43.8768C395.579 43.8768 394.404 44.2789 393.405 45.0322C392.405 45.7855 391.626 46.8562 391.166 48.1089C390.706 49.3617 390.586 50.7401 390.82 52.07C391.055 53.3999 391.634 54.6215 392.484 55.5803C393.334 56.5391 394.416 57.192 395.595 57.4565C396.774 57.7211 397.996 57.5853 399.107 57.0664C400.217 56.5475 401.166 55.6688 401.834 54.5414C402.502 53.414 402.858 52.0885 402.858 50.7325C402.856 48.9149 402.215 47.1723 401.076 45.8871C399.937 44.6018 398.392 43.8788 396.781 43.8768Z" fill="#3F3D56"/>
<path d="M361.192 122.701H345.392V104.876H361.192V122.701ZM346.607 121.33H359.977V106.247H346.607V121.33Z" fill="#3F3D56"/>
<path d="M181.101 182.324C181.98 182.324 182.693 180.946 182.693 179.245C182.693 177.544 181.98 176.166 181.101 176.166C180.221 176.166 179.508 177.544 179.508 179.245C179.508 180.946 180.221 182.324 181.101 182.324Z" fill="#FFB8B8"/>
<path d="M361.951 330.67C365.307 330.67 368.028 327.601 368.028 323.814C368.028 320.028 365.307 316.959 361.951 316.959C358.594 316.959 355.874 320.028 355.874 323.814C355.874 327.601 358.594 330.67 361.951 330.67Z" fill="#45D7D4"/>
<path d="M23.6138 352.692C25.8073 352.692 27.5854 350.686 27.5854 348.211C27.5854 345.737 25.8073 343.731 23.6138 343.731C21.4203 343.731 19.6421 345.737 19.6421 348.211C19.6421 350.686 21.4203 352.692 23.6138 352.692Z" fill="#FF6584"/>
<path d="M43.6798 371.563H42.4644V422.577H43.6798V371.563Z" fill="#3F3D56"/>
<path d="M43.0722 378.777C46.604 378.777 49.4671 375.547 49.4671 371.563C49.4671 367.579 46.604 364.349 43.0722 364.349C39.5404 364.349 36.6772 367.579 36.6772 371.563C36.6772 375.547 39.5404 378.777 43.0722 378.777Z" fill="#3F3D56"/>
<path d="M43.0723 403.004C43.0723 403.004 42.1587 380.838 23.4307 383.415L43.0723 403.004Z" fill="#3F3D56"/>
<path d="M243.536 312.419L170.039 295.77L166.104 313.155L239.602 329.804L243.536 312.419Z" fill="#45D7D4"/>
<path d="M278.907 230.457L171.032 206.02L167.401 222.068L275.276 246.505L278.907 230.457Z" fill="#F0F0F0"/>
<path d="M257.294 411.837L122.527 381.308C118.314 380.348 114.702 377.542 112.483 373.506C110.264 369.47 109.62 364.533 110.69 359.778L174.6 77.3592C175.68 72.6067 178.388 68.4291 182.128 65.7428C185.868 63.0565 190.336 62.0809 194.551 63.03L329.318 93.5589C333.53 94.5189 337.142 97.3248 339.361 101.361C341.58 105.397 342.225 110.334 341.154 115.089L277.244 397.508C276.164 402.26 273.457 406.438 269.716 409.124C265.976 411.81 261.509 412.786 257.294 411.837ZM194.248 64.3673C190.347 63.489 186.213 64.3918 182.752 66.8778C179.291 69.3637 176.785 73.2298 175.785 77.6277L111.876 360.047C110.885 364.447 111.482 369.015 113.535 372.751C115.588 376.486 118.931 379.082 122.829 379.971L257.596 410.5C261.497 411.378 265.631 410.475 269.093 407.989C272.554 405.503 275.059 401.637 276.059 397.239L339.969 114.82C340.96 110.42 340.363 105.852 338.309 102.116C336.256 98.3812 332.914 95.7846 329.015 94.8962L194.248 64.3673Z" fill="#3F3D56"/>
<path d="M242.905 88.0423C242.201 87.883 241.567 87.4919 241.082 86.9186C240.597 86.3453 240.283 85.6155 240.179 84.8214C240.076 84.0274 240.188 83.2048 240.502 82.4576C240.815 81.7105 241.315 81.0723 241.94 80.6239C242.564 80.1755 243.284 79.937 244.009 79.9384C244.734 79.9399 245.431 80.1813 246.012 80.6322C246.593 81.083 247.032 81.7231 247.274 82.4714C247.515 83.2196 247.548 84.0426 247.369 84.836C247.127 85.8995 246.521 86.8343 245.684 87.4354C244.847 88.0365 243.848 88.2548 242.905 88.0423ZM244.418 81.3558C243.949 81.2496 243.455 81.3026 242.999 81.5082C242.542 81.7138 242.144 82.0626 241.854 82.5107C241.564 82.9588 241.395 83.4859 241.369 84.0254C241.343 84.565 241.461 85.0927 241.708 85.5419C241.955 85.991 242.32 86.3415 242.756 86.5488C243.193 86.7562 243.682 86.8113 244.161 86.707C244.64 86.6027 245.088 86.3437 245.448 85.9629C245.808 85.5821 246.064 85.0965 246.183 84.5675C246.343 83.8582 246.247 83.1217 245.916 82.5196C245.585 81.9175 245.046 81.499 244.418 81.3558Z" fill="#3F3D56"/>
<path d="M278.935 91.2836L252.855 85.3757L252.552 86.713L278.632 92.6209L278.935 91.2836Z" fill="#3F3D56"/>
<path d="M330.154 114.133L318.049 167.625C305.474 164.776 294.689 156.408 288.066 144.362C281.444 132.316 279.527 117.579 282.737 103.392L330.154 114.133Z" fill="#45D7D4"/>
<path d="M267.197 395.101L120.796 361.937L184.498 80.4346L330.899 113.599L267.197 395.101ZM122.284 360.868L266.314 393.495L329.411 114.668L185.38 82.0404L122.284 360.868Z" fill="#3F3D56"/>
<path d="M281.604 157.963C290.442 159.966 299.436 153.506 301.692 143.535C303.949 133.564 298.613 123.858 289.774 121.856C280.936 119.854 271.942 126.314 269.686 136.285C267.429 146.255 272.765 155.961 281.604 157.963Z" fill="#45D7D4"/>
<path d="M210.968 98.3808L188.444 93.2786L186.326 102.64L208.849 107.742L210.968 98.3808Z" fill="#3F3D56"/>
<path d="M203.291 190.131L180.768 185.029L178.649 194.39L201.172 199.492L203.291 190.131Z" fill="#3F3D56"/>
<path d="M281.96 244.504L172.899 219.799L176.833 202.414L285.894 227.119L281.96 244.504ZM174.387 218.73L281.077 242.898L284.406 228.188L177.716 204.02L174.387 218.73Z" fill="#3F3D56"/>
<path d="M267.407 281.275L159.532 256.838L155.901 272.885L263.776 297.322L267.407 281.275Z" fill="#F0F0F0"/>
<path d="M191.791 240.949L169.268 235.846L167.15 245.208L189.673 250.31L191.791 240.949Z" fill="#3F3D56"/>
<path d="M270.46 295.322L161.4 270.616L165.334 253.231L274.394 277.937L270.46 295.322ZM162.888 269.548L269.577 293.716L272.906 279.006L166.217 254.837L162.888 269.548Z" fill="#3F3D56"/>
<path d="M245.251 326.867L170.569 309.949L174.806 291.226L249.488 308.144L245.251 326.867ZM172.057 308.88L244.369 325.261L248 309.213L175.688 292.832L172.057 308.88Z" fill="#3F3D56"/>
<path d="M280.509 237.146C280.197 238.523 279.517 239.78 278.56 240.748C277.604 241.715 276.417 242.344 275.164 242.55C273.91 242.756 272.65 242.528 271.556 241.897C270.461 241.267 269.585 240.265 269.048 239.028L269.044 239.02C268.653 238.116 268.454 237.115 268.463 236.091C268.471 235.067 268.687 234.046 269.094 233.105C269.501 232.164 270.088 231.326 270.813 230.654C271.537 229.982 272.38 229.493 273.278 229.223C274.176 228.954 275.107 228.91 276.001 229.097C276.895 229.283 277.73 229.694 278.442 230.299C279.155 230.905 279.728 231.689 280.118 232.593C280.508 233.497 280.706 234.499 280.696 235.523C280.696 235.524 280.696 235.524 280.696 235.525C280.696 235.526 280.696 235.527 280.696 235.528C280.697 235.529 280.697 235.529 280.698 235.53C280.699 235.53 280.699 235.531 280.7 235.531C280.693 236.072 280.629 236.615 280.509 237.146Z" fill="#45D7D4"/>
<path d="M274.532 247.039C277.806 247.781 281.137 245.388 281.972 241.696C282.808 238.003 280.832 234.408 277.558 233.666C274.285 232.925 270.954 235.317 270.118 239.01C269.283 242.703 271.259 246.298 274.532 247.039Z" fill="#45D7D4"/>
<path d="M269.009 287.964C268.697 289.34 268.017 290.598 267.06 291.565C266.104 292.532 264.917 293.161 263.664 293.367C262.41 293.573 261.15 293.345 260.056 292.715C258.961 292.084 258.085 291.082 257.548 289.845L257.544 289.837C257.153 288.933 256.954 287.932 256.963 286.908C256.971 285.884 257.187 284.864 257.594 283.922C258.001 282.981 258.588 282.143 259.313 281.471C260.037 280.799 260.88 280.31 261.778 280.041C262.676 279.771 263.607 279.728 264.501 279.914C265.395 280.1 266.23 280.511 266.942 281.117C267.655 281.722 268.228 282.506 268.618 283.41C269.008 284.315 269.206 285.316 269.196 286.34C269.196 286.341 269.195 286.342 269.196 286.343C269.196 286.344 269.196 286.344 269.196 286.345C269.197 286.346 269.197 286.347 269.198 286.347C269.199 286.348 269.199 286.348 269.2 286.348C269.193 286.89 269.129 287.432 269.009 287.964Z" fill="#45D7D4"/>
<path d="M263.033 297.857C266.306 298.598 269.637 296.206 270.473 292.513C271.309 288.82 269.332 285.225 266.059 284.484C262.786 283.742 259.454 286.135 258.619 289.828C257.783 293.521 259.759 297.115 263.033 297.857Z" fill="#45D7D4"/>
</svg>
