<svg width="371" height="318" viewBox="0 0 371 318" fill="none" xmlns="http://www.w3.org/2000/svg">
<g clip-path="url(#clip0)">
<path d="M325.455 154.896H322.152V309.744H325.455V154.896Z" fill="#3F3D56"/>
<path d="M355.933 174.629C356.143 228.775 324.051 272.846 324.051 272.846C324.051 272.846 291.618 229.128 291.408 174.982C291.198 120.835 323.29 76.7644 323.29 76.7644C323.29 76.7644 355.723 120.482 355.933 174.629Z" fill="#3F3D56"/>
<path d="M259.422 227.754H257.723V307.396H259.422V227.754Z" fill="#3F3D56"/>
<path d="M275.098 237.903C275.206 265.752 258.7 288.419 258.7 288.419C258.7 288.419 242.019 265.934 241.911 238.085C241.803 210.236 258.308 187.569 258.308 187.569C258.308 187.569 274.989 210.054 275.098 237.903Z" fill="#3F3D56"/>
<path d="M292.901 318C318.317 318 338.921 314.251 338.921 309.626C338.921 305.002 318.317 301.253 292.901 301.253C267.485 301.253 246.882 305.002 246.882 309.626C246.882 314.251 267.485 318 292.901 318Z" fill="#3F3D56"/>
<path d="M296.697 114.47C292.798 106.65 285.084 106.286 285.084 106.286C285.084 106.286 277.568 105.145 272.746 117.055C268.252 128.156 262.049 138.875 271.747 141.473L273.499 135.001L274.584 141.955C275.965 142.073 277.35 142.101 278.734 142.039C289.12 141.641 299.011 142.156 298.692 137.732C298.269 131.851 300.448 121.995 296.697 114.47Z" fill="#2F2E41"/>
<path d="M282.656 129.197C282.656 129.197 287.695 137.571 284.672 144.349C281.649 151.128 291.726 158.305 291.726 158.305L299.116 139.166C299.116 139.166 290.382 132.387 292.733 126.007L282.656 129.197Z" fill="#FBBEBE"/>
<path d="M286.015 132.786C290.839 132.786 294.749 128.144 294.749 122.419C294.749 116.693 290.839 112.052 286.015 112.052C281.192 112.052 277.282 116.693 277.282 122.419C277.282 128.144 281.192 132.786 286.015 132.786Z" fill="#FBBEBE"/>
<path d="M255.791 134.403L263.089 123.225C263.089 123.225 265.659 111.508 269.381 112.102C273.103 112.696 267.911 126.154 267.911 126.154L260.659 138.527L255.791 134.403Z" fill="#FBBEBE"/>
<path d="M292.734 283.11L295.085 297.864L300.124 299.459L298.78 281.914L292.734 283.11Z" fill="#FBBEBE"/>
<path d="M343.456 267.161L352.525 281.914L356.22 283.908L359.243 277.927L350.174 263.971L343.456 267.161Z" fill="#FBBEBE"/>
<path d="M290.718 151.925L285.115 143.169C285.115 143.169 274.259 145.546 273.251 146.742C272.243 147.938 275.938 169.869 275.938 169.869C275.938 169.869 276.61 175.85 279.633 179.04L282.656 181.432L307.513 175.451L308.448 162.322C308.789 157.54 308.284 152.726 306.966 148.19C305.648 143.653 303.546 139.493 300.795 135.976L296.47 136.678L290.718 151.925Z" fill="#575A89"/>
<path d="M274.594 147.539L272.915 146.742L265.189 145.944C265.189 145.944 262.502 145.147 263.174 143.552C263.845 141.957 264.517 141.558 263.174 141.159C261.83 140.761 261.494 140.362 261.83 139.166C262.166 137.969 264.181 135.577 264.181 135.577L258.471 129.995C258.471 129.995 258.162 130.254 257.662 130.734C254.827 133.459 245.856 143.29 252.424 153.121C260.15 164.685 269.22 171.463 276.61 169.071L274.594 147.539Z" fill="#575A89"/>
<path d="M281.984 179.438V185.021C281.984 185.021 278.961 191.799 279.969 198.179C280.977 204.559 281.312 207.749 281.312 207.749C281.422 213.175 282.215 218.551 283.664 223.698C286.015 231.673 278.289 283.908 288.031 284.705C297.772 285.503 303.146 286.3 306.17 282.313C309.193 278.325 301.131 209.742 301.131 209.742C301.131 209.742 328.675 277.927 334.386 275.136C340.096 272.344 354.54 265.965 352.861 262.376C351.181 258.787 308.857 179.04 308.857 179.04L307.513 175.451L281.984 179.438Z" fill="#2F2E41"/>
<path d="M298.108 295.073C298.108 295.073 292.733 294.674 292.733 296.668C292.733 298.661 290.046 305.44 290.046 305.44C290.046 305.44 288.031 313.415 293.405 312.617C298.78 311.82 302.139 304.642 302.139 304.642L300.795 297.066L298.108 295.073Z" fill="#2F2E41"/>
<path d="M354.204 281.117C354.204 281.117 349.502 277.528 349.837 279.92C350.173 282.313 350.509 288.693 352.861 289.091C355.212 289.49 362.266 291.883 362.602 292.68C362.938 293.478 371 296.668 371 291.484C371 286.3 365.961 282.313 365.961 282.313L360.251 277.129C360.251 277.129 356.556 276.731 355.884 279.522C355.212 282.313 354.204 281.117 354.204 281.117Z" fill="#2F2E41"/>
<path d="M286.029 112.946C289.109 112.946 291.606 109.982 291.606 106.325C291.606 102.669 289.109 99.7048 286.029 99.7048C282.948 99.7048 280.451 102.669 280.451 106.325C280.451 109.982 282.948 112.946 286.029 112.946Z" fill="#2F2E41"/>
<path d="M279.864 104.583C279.864 102.948 280.374 101.371 281.296 100.155C282.217 98.9398 283.485 98.172 284.854 97.9999C284.659 97.9753 284.463 97.9629 284.267 97.9626C282.788 97.9626 281.369 98.6602 280.324 99.9018C279.278 101.143 278.69 102.827 278.69 104.583C278.69 106.339 279.278 108.023 280.324 109.265C281.369 110.506 282.788 111.204 284.267 111.204C284.463 111.203 284.659 111.191 284.854 111.167C283.485 110.994 282.217 110.227 281.296 109.011C280.374 107.796 279.864 106.218 279.864 104.583Z" fill="#2F2E41"/>
<path d="M294.973 113.717L287.352 108.978L276.828 110.917L274.651 122.332L280.071 122.084L281.585 117.891V122.015L284.086 121.901L285.538 115.224L286.445 122.332L295.336 122.116L294.973 113.717Z" fill="#2F2E41"/>
<path d="M294.517 180.362L282.764 180.739C282.764 180.739 272.736 183.055 273.299 178.251C273.861 173.446 283.645 175.126 283.645 175.126L294.353 173.187L294.517 180.362Z" fill="#FBBEBE"/>
<path d="M303.815 135.3C304.406 135.194 305.009 135.341 305.516 135.716C306.024 136.091 306.401 136.669 306.582 137.345C308.883 145.951 315.971 174.752 308.928 178.703C300.634 183.357 294.58 183.152 294.58 183.152L291.34 173.683L294.29 170.397L297.439 146.363L298.948 136.175L303.815 135.3Z" fill="#575A89"/>
<path opacity="0.4" d="M301.635 151.327L300.291 167.277L288.535 173.258L301.635 169.669V151.327Z" fill="black"/>
<path d="M238.231 98.6729C242.018 99.8639 245.294 102.689 247.419 106.596L248.518 108.616L248.573 108.699L267.849 115.394C268.202 115.517 268.501 115.8 268.681 116.181C268.86 116.562 268.907 117.012 268.81 117.434L267.313 123.947C267.265 124.16 267.181 124.358 267.067 124.532C266.954 124.706 266.812 124.851 266.651 124.959C266.49 125.068 266.312 125.137 266.128 125.164C265.945 125.191 265.758 125.174 265.58 125.115L246.299 118.718L246.298 118.718L244.362 119.587C240.796 121.188 236.885 121.345 233.236 120.036L238.231 98.6729Z" fill="#3F3D56"/>
<path d="M258.53 117.563C258.713 116.822 257.913 115.892 256.743 115.486C255.573 115.079 254.477 115.35 254.294 116.091C254.111 116.832 254.912 117.762 256.082 118.168C257.251 118.574 258.348 118.303 258.53 117.563Z" fill="#575A89"/>
<path d="M257.546 118.245C257.993 118.245 258.355 117.815 258.355 117.285C258.355 116.754 257.993 116.324 257.546 116.324C257.099 116.324 256.737 116.754 256.737 117.285C256.737 117.815 257.099 118.245 257.546 118.245Z" fill="#3F3D56"/>
<path d="M239.842 111.01C241.45 105.126 240.935 99.656 238.694 98.7932C236.452 97.9303 233.332 102.001 231.724 107.885C230.117 113.77 230.631 119.24 232.873 120.102C235.115 120.965 238.235 116.894 239.842 111.01Z" fill="#98CECD"/>
<path opacity="0.4" d="M239.243 110.802C240.792 105.132 240.371 99.8478 238.333 98.6982C238.455 98.7164 238.576 98.7482 238.694 98.7931C240.936 99.656 241.45 105.126 239.842 111.01C238.235 116.894 235.115 120.965 232.873 120.102C232.792 120.071 232.712 120.033 232.635 119.989C234.84 120.322 237.721 116.376 239.243 110.802Z" fill="black"/>
<path d="M238.484 98.6938L194.736 58.4111C187 51.2364 179.577 43.5993 172.494 35.5293C160.023 21.4189 143.094 10.1373 123.384 4.13095C75.4965 -10.4619 37.5599 15.413 20.3052 53.4064C-6.06176 111.464 -26.2685 205.676 90.6423 155.527C116.211 144.56 142.092 143.394 161.716 137.617L232.774 120.226L238.484 98.6938Z" fill="#98CECD"/>
<path d="M107.144 30.9083C108.443 30.9083 109.496 29.6586 109.496 28.1171C109.496 26.5756 108.443 25.3259 107.144 25.3259C105.846 25.3259 104.793 26.5756 104.793 28.1171C104.793 29.6586 105.846 30.9083 107.144 30.9083Z" fill="#F2F2F2"/>
<path d="M152.821 34.5688H152.209V33.8423H152.09V34.5688H151.478V34.7107H152.09V35.4372H152.209V34.7107H152.821V34.5688Z" fill="#F2F2F2"/>
<path d="M214.292 95.177H213.68V94.4504H213.561V95.177H212.949V95.3189H213.561V96.0454H213.68V95.3189H214.292V95.177Z" fill="#F2F2F2"/>
<path d="M209.925 113.918H209.313V113.191H209.194V113.918H208.582V114.06H209.194V114.786H209.313V114.06H209.925V113.918Z" fill="#F2F2F2"/>
<path d="M22.1527 129.867H21.5407V129.141H21.4211V129.867H20.8091V130.009H21.4211V130.736H21.5407V130.009H22.1527V129.867Z" fill="#F2F2F2"/>
<path d="M49.0253 42.9421H48.4132V42.2156H48.2937V42.9421H47.6816V43.084H48.2937V43.8105H48.4132V43.084H49.0253V42.9421Z" fill="#F2F2F2"/>
<path d="M153.493 117.107H152.881V116.381H152.761V117.107H152.149V117.249H152.761V117.976H152.881V117.249H153.493V117.107Z" fill="#F2F2F2"/>
<path d="M89.3344 17.4228H88.7223V16.6963H88.6027V17.4228H87.9907V17.5647H88.6027V18.2912H88.7223V17.5647H89.3344V17.4228Z" fill="#F2F2F2"/>
<path d="M89.5696 74.8325L88.8071 74.9721C89.0456 76.7823 89.2337 78.6325 89.3715 80.4627L90.1407 80.3829C90.0029 78.5288 89.8115 76.6627 89.5696 74.8325Z" fill="#E6E6E6"/>
<path d="M87.4836 63.9309L86.7446 64.1981C87.1914 65.9525 87.5911 67.7508 87.9304 69.5412L88.6862 69.3378C88.3402 67.5275 87.9338 65.7093 87.4836 63.9309Z" fill="#E6E6E6"/>
<path d="M84.1547 53.4761L83.4526 53.8589C84.0976 55.5296 84.7022 57.2442 85.2498 58.9587L85.972 58.6358C85.4177 56.9012 84.8097 55.1627 84.1547 53.4761Z" fill="#E6E6E6"/>
<path d="M79.6536 43.675L79.002 44.1655C79.8316 45.7126 80.6278 47.3155 81.3667 48.9225L82.0453 48.4838C81.2996 46.857 80.4934 45.2381 79.6536 43.675Z" fill="#E6E6E6"/>
<path d="M74.0576 34.6914L73.4697 35.2855C74.4707 36.6811 75.4449 38.1405 76.3653 39.6158L76.9833 39.0696C76.0562 37.5783 75.072 36.1029 74.0576 34.6914Z" fill="#E6E6E6"/>
<path d="M67.4802 26.6929L66.9663 27.3747C68.1218 28.5988 69.2538 29.8868 70.3321 31.1986L70.8864 30.5566C69.7947 29.2288 68.6492 27.929 67.4802 26.6929Z" fill="#E6E6E6"/>
<path d="M60.05 19.8264L59.6167 20.584C60.8999 21.6088 62.1696 22.7013 63.3889 23.8297L63.8659 23.108C62.6298 21.9676 61.3466 20.8632 60.05 19.8264Z" fill="#E6E6E6"/>
<path d="M53.2881 15.0576V16.0943C54.0909 16.5928 54.887 17.1151 55.6663 17.6494L56.0526 16.8559C55.1457 16.2339 54.2241 15.6344 53.2881 15.0576Z" fill="#E6E6E6"/>
<path d="M89.6216 86.119L90.3937 86.1023C90.4079 87.0278 90.409 87.9582 90.3969 88.868L89.6248 88.8537C89.6366 87.9543 89.6355 87.0342 89.6216 86.119Z" fill="#E6E6E6"/>
<path d="M44.222 153.384L43.4595 153.523C43.698 155.334 43.8861 157.184 44.0238 159.014L44.793 158.934C44.6553 157.08 44.4638 155.214 44.222 153.384Z" fill="#E6E6E6"/>
<path d="M42.136 142.482L41.397 142.75C41.8437 144.504 42.2435 146.302 42.5827 148.093L43.3385 147.889C42.9925 146.079 42.5861 144.261 42.136 142.482Z" fill="#E6E6E6"/>
<path d="M38.807 132.027L38.105 132.41C38.7499 134.081 39.3546 135.795 39.9021 137.51L40.6243 137.187C40.07 135.452 39.462 133.714 38.807 132.027Z" fill="#E6E6E6"/>
<path d="M34.306 122.227L33.6543 122.717C34.484 124.264 35.2801 125.867 36.0191 127.474L36.6976 127.035C35.9519 125.409 35.1457 123.79 34.306 122.227Z" fill="#E6E6E6"/>
<path d="M28.7099 113.243L28.1221 113.837C29.1231 115.233 30.0972 116.692 31.0176 118.167L31.6357 117.621C30.7085 116.13 29.7243 114.654 28.7099 113.243Z" fill="#E6E6E6"/>
<path d="M22.1326 105.244L21.6187 105.926C22.7742 107.15 23.9062 108.438 24.9844 109.75L25.5387 109.108C24.447 107.78 23.3015 106.48 22.1326 105.244Z" fill="#E6E6E6"/>
<path d="M14.7024 98.3779L14.269 99.1355C15.5522 100.16 16.8219 101.253 18.0413 102.381L18.5183 101.66C17.2821 100.519 15.999 99.4147 14.7024 98.3779Z" fill="#E6E6E6"/>
<path d="M7.94043 93.6091V94.6459C8.74325 95.1443 9.53935 95.6666 10.3187 96.201L10.705 95.4075C9.79799 94.7854 8.87648 94.186 7.94043 93.6091Z" fill="#E6E6E6"/>
<path d="M44.2739 164.67L45.0461 164.654C45.0602 165.579 45.0613 166.51 45.0492 167.419L44.2772 167.405C44.2889 166.506 44.2879 165.586 44.2739 164.67Z" fill="#E6E6E6"/>
<path d="M199.412 113.909L198.649 114.048C198.888 115.859 199.076 117.709 199.214 119.539L199.983 119.459C199.845 117.605 199.654 115.739 199.412 113.909Z" fill="#E6E6E6"/>
<path d="M197.325 103.007L196.586 103.274C197.033 105.029 197.433 106.827 197.772 108.618L198.528 108.414C198.182 106.604 197.776 104.786 197.325 103.007Z" fill="#E6E6E6"/>
<path d="M193.997 92.5525L193.295 92.9353C193.94 94.606 194.544 96.3206 195.092 98.0351L195.814 97.7121C195.26 95.9776 194.652 94.2391 193.997 92.5525Z" fill="#E6E6E6"/>
<path d="M189.496 82.7515L188.844 83.2419C189.674 84.789 190.47 86.3919 191.209 87.9988L191.888 87.5602C191.142 85.9334 190.336 84.3145 189.496 82.7515Z" fill="#E6E6E6"/>
<path d="M183.899 73.7678L183.312 74.3619C184.313 75.7575 185.287 77.2169 186.207 78.6922L186.825 78.146C185.898 76.6547 184.914 75.1793 183.899 73.7678Z" fill="#E6E6E6"/>
<path d="M177.322 65.7693L176.808 66.4511C177.964 67.6753 179.096 68.9632 180.174 70.275L180.728 69.6331C179.636 68.3053 178.491 67.0054 177.322 65.7693Z" fill="#E6E6E6"/>
<path d="M169.892 58.9028L169.458 59.6604C170.742 60.6852 172.011 61.7777 173.231 62.9062L173.708 62.1844C172.472 61.0441 171.188 59.9396 169.892 58.9028Z" fill="#E6E6E6"/>
<path d="M163.13 54.134V55.1708C163.933 55.6692 164.729 56.1915 165.509 56.7258L165.895 55.9323C164.988 55.3103 164.066 54.7109 163.13 54.134Z" fill="#E6E6E6"/>
<path d="M199.464 125.195L200.236 125.179C200.25 126.104 200.251 127.035 200.239 127.944L199.467 127.93C199.479 127.031 199.478 126.111 199.464 125.195Z" fill="#E6E6E6"/>
<path d="M50.1492 79.7058H49.5798V79.0295H49.4686V79.7058H48.8989V79.8374H49.4686V80.5136H49.5798V79.8374H50.1492V79.7058Z" fill="#F2F2F2"/>
<path d="M43.5852 120.52H43.0159V119.843H42.9047V120.52H42.335V120.652H42.9047V121.327H43.0159V120.652H43.5852V120.52Z" fill="#F2F2F2"/>
<path d="M24.3254 156.289H23.7557V155.613H23.6446V156.289H23.0752V156.421H23.6446V157.097H23.7557V156.421H24.3254V156.289Z" fill="#F2F2F2"/>
<path d="M77.9033 110.922C72.3966 101.206 70.0056 89.4683 71.1639 77.8387C72.3222 66.209 76.9531 55.4572 84.2168 47.5329C91.4804 39.6086 100.896 35.0365 110.756 34.6459C120.616 34.2553 130.267 38.072 137.96 45.4037C145.652 52.7355 150.877 63.097 152.686 74.6091C154.495 86.1211 152.768 98.0216 147.82 108.152C142.871 118.283 135.028 125.973 125.712 129.828C116.397 133.683 106.226 133.448 97.0439 129.165C96.4486 131.687 95.3358 133.995 93.805 135.881C92.2742 137.767 90.3732 139.174 88.2723 139.974C86.1713 140.775 83.9359 140.944 81.7663 140.467C79.5966 139.991 77.5604 138.883 75.8398 137.243C74.1193 135.603 72.7681 133.483 71.9074 131.071C71.0466 128.659 70.7031 126.032 70.9075 123.424C71.112 120.816 71.858 118.309 73.0789 116.127C74.2998 113.945 75.9573 112.157 77.9033 110.922Z" fill="#3F3D56"/>
<path d="M111.9 55.5989C121.358 55.5989 127.864 61.8256 127.864 70.7765C127.864 76.7039 125.443 80.8052 120.778 84.0682C116.389 87.0918 114.902 89.3071 114.902 93.1389C114.902 93.4495 114.85 93.757 114.75 94.0439C114.65 94.3309 114.503 94.5916 114.318 94.8112C114.133 95.0308 113.913 95.205 113.672 95.3238C113.43 95.4427 113.171 95.5039 112.909 95.5039H108.074C107.558 95.5039 107.062 95.2659 106.69 94.8401C106.319 94.4143 106.101 93.8339 106.083 93.2214L106.075 92.9293C105.646 86.7625 107.462 82.9307 112.027 79.7574C116.289 76.7339 118.079 74.8179 118.079 71.1059C118.079 67.3938 115.053 64.6696 111.295 64.6696C108.439 64.6696 106.179 66.3198 105.142 69.0141C104.778 69.9261 104.201 70.6952 103.48 71.2304C102.759 71.7655 101.924 72.0444 101.074 72.0339C97.7978 72.0339 95.6338 67.8987 97.1658 64.4616C99.5891 59.0246 104.702 55.5989 111.9 55.5989ZM105.268 106.91C105.268 103.467 107.689 100.743 110.665 100.743C113.666 100.743 116.087 103.437 116.087 106.91C116.087 110.382 113.666 113.076 110.665 113.076C107.664 113.076 105.268 110.382 105.268 106.91Z" fill="#98CECD"/>
</g>
<defs>
<clipPath id="clip0">
<rect width="371" height="318" fill="white"/>
</clipPath>
</defs>
</svg>
