<svg width="411" height="297" viewBox="0 0 411 297" fill="none" xmlns="http://www.w3.org/2000/svg">
<g clip-path="url(#clip0)">
<path d="M38.2234 292.732L37.4495 292.48C46.0791 237.013 67.7661 186.644 98.5154 150.651C121.763 123.482 149.412 105.311 178.86 97.8489C208.308 90.3871 238.585 93.8802 266.841 107.999C295.097 122.118 320.402 146.399 340.373 178.554C360.344 210.71 374.324 249.683 380.997 291.803L380.224 292.057C361.957 176.131 291.661 95.1672 209.277 95.1672C127.972 95.1672 56.0339 178.255 38.2234 292.732Z" fill="#3F3D56"/>
<path d="M337.847 157.208C349.746 157.208 359.391 143.267 359.391 126.069C359.391 108.872 349.746 94.9307 337.847 94.9307C325.948 94.9307 316.302 108.872 316.302 126.069C316.302 143.267 325.948 157.208 337.847 157.208Z" fill="#FF6584"/>
<path d="M329.662 250.563H328.869V295.853H329.662V250.563Z" fill="#3F3D56"/>
<path d="M336.984 256.335C337.034 272.172 329.325 285.062 329.325 285.062C329.325 285.062 321.534 272.275 321.484 256.438C321.433 240.601 329.142 227.711 329.142 227.711C329.142 227.711 336.933 240.498 336.984 256.335Z" fill="#98CECD"/>
<path opacity="0.1" d="M336.984 256.335C337.034 272.172 329.325 285.062 329.325 285.062C329.325 285.062 321.534 272.275 321.484 256.438C321.433 240.601 329.142 227.711 329.142 227.711C329.142 227.711 336.933 240.498 336.984 256.335Z" fill="black"/>
<path opacity="0.4" d="M179.734 160.517C186.58 160.517 192.129 152.497 192.129 142.603C192.129 132.709 186.58 124.688 179.734 124.688C172.889 124.688 167.339 132.709 167.339 142.603C167.339 152.497 172.889 160.517 179.734 160.517Z" fill="#98CECD"/>
<path opacity="0.4" d="M156.795 163.726C161.597 163.726 165.489 158.099 165.489 151.159C165.489 144.219 161.597 138.592 156.795 138.592C151.993 138.592 148.1 144.219 148.1 151.159C148.1 158.099 151.993 163.726 156.795 163.726Z" fill="#98CECD"/>
<path opacity="0.4" d="M63.5801 199.843C68.3821 199.843 72.2749 194.217 72.2749 187.277C72.2749 180.336 68.3821 174.71 63.5801 174.71C58.7781 174.71 54.8853 180.336 54.8853 187.277C54.8853 194.217 58.7781 199.843 63.5801 199.843Z" fill="#98CECD"/>
<path opacity="0.4" d="M320.663 159.043C327.508 159.043 333.058 151.023 333.058 141.129C333.058 131.235 327.508 123.215 320.663 123.215C313.818 123.215 308.268 131.235 308.268 141.129C308.268 151.023 313.818 159.043 320.663 159.043Z" fill="#98CECD"/>
<path d="M3.46292 290.818C4.13485 294.407 6.4363 296.631 6.4363 296.631C6.4363 296.631 7.64838 293.034 6.97646 289.444C6.30454 285.854 4.00308 283.631 4.00308 283.631C4.00308 283.631 2.791 287.228 3.46292 290.818Z" fill="#3F3D56"/>
<path d="M4.45015 290.046C6.2939 292.64 6.51912 296.628 6.51912 296.628C6.51912 296.628 3.75501 296.41 1.91126 293.816C0.067501 291.222 -0.157715 287.234 -0.157715 287.234C-0.157715 287.234 2.6064 287.452 4.45015 290.046Z" fill="#98CECD"/>
<path d="M246.218 290.818C246.889 294.407 249.191 296.631 249.191 296.631C249.191 296.631 250.403 293.034 249.731 289.444C249.059 285.854 246.758 283.631 246.758 283.631C246.758 283.631 245.546 287.228 246.218 290.818Z" fill="#3F3D56"/>
<path d="M247.205 290.046C249.049 292.64 249.274 296.628 249.274 296.628C249.274 296.628 246.51 296.41 244.666 293.816C242.822 291.222 242.597 287.234 242.597 287.234C242.597 287.234 245.361 287.452 247.205 290.046Z" fill="#98CECD"/>
<path d="M8.02696 263.833L6.38599 259.88L21.7025 240.905H61.0883V246.439L46.8657 268.577L30.4548 273.32L8.02696 263.833Z" fill="#3F3D56"/>
<path d="M67.868 252.04V239.67H62.7114V243.571L61.0883 240.905L47.9597 259.88L45.7713 263.042L43.0364 278.855L47.9597 296.248H73.1225V260.67L67.868 252.04Z" fill="#CCCCCC"/>
<path d="M47.9596 259.88H6.38599V296.248H47.9596V259.88Z" fill="#F2F2F2"/>
<path d="M42.216 271.344H33.4636V282.412H42.216V271.344Z" fill="#3F3D56"/>
<path d="M29.9081 270.948H22.2498V296.248H29.9081V270.948Z" fill="#CCCCCC"/>
<path d="M13.4975 274.901V270.948H10.2156V274.901H13.2238H13.4975Z" fill="#3F3D56"/>
<path d="M13.2238 278.064H10.2156V282.017H13.4975V278.064H13.2238Z" fill="#3F3D56"/>
<path d="M18.9674 270.948H15.6853V274.901H18.9674V270.948Z" fill="#3F3D56"/>
<path d="M18.9674 278.064H15.6853V282.017H18.9674V278.064Z" fill="#3F3D56"/>
<path d="M59.7208 275.297V271.344H56.4385V275.297H59.4471H59.7208Z" fill="#3F3D56"/>
<path d="M59.4471 278.459H56.4385V282.412H59.7208V278.459H59.4471Z" fill="#3F3D56"/>
<path d="M65.1911 271.344H61.9089V275.297H65.1911V271.344Z" fill="#3F3D56"/>
<path d="M65.1911 278.459H61.9089V282.412H65.1911V278.459Z" fill="#3F3D56"/>
<path d="M166.294 263.833L164.653 259.88L179.969 240.905H219.355V246.439L205.132 268.577L188.721 273.32L166.294 263.833Z" fill="#3F3D56"/>
<path d="M226.135 252.04V239.67H220.978V243.571L219.355 240.905L206.226 259.88L204.038 263.042L201.303 278.855L206.226 296.248H231.389V260.67L226.135 252.04Z" fill="#CCCCCC"/>
<path d="M206.226 259.88H164.653V296.248H206.226V259.88Z" fill="#F2F2F2"/>
<path d="M200.483 271.344H191.73V282.412H200.483V271.344Z" fill="#3F3D56"/>
<path d="M188.174 270.948H180.516V296.248H188.174V270.948Z" fill="#CCCCCC"/>
<path d="M171.764 274.901V270.948H168.482V274.901H171.49H171.764Z" fill="#3F3D56"/>
<path d="M171.49 278.064H168.482V282.017H171.764V278.064H171.49Z" fill="#3F3D56"/>
<path d="M177.234 270.948H173.952V274.901H177.234V270.948Z" fill="#3F3D56"/>
<path d="M177.234 278.064H173.952V282.017H177.234V278.064Z" fill="#3F3D56"/>
<path d="M217.987 275.297V271.344H214.705V275.297H217.714H217.987Z" fill="#3F3D56"/>
<path d="M217.714 278.459H214.705V282.412H217.987V278.459H217.714Z" fill="#3F3D56"/>
<path d="M223.457 271.344H220.175V275.297H223.457V271.344Z" fill="#3F3D56"/>
<path d="M223.457 278.459H220.175V282.412H223.457V278.459Z" fill="#3F3D56"/>
<path d="M92.2684 197.421L89.5334 194.258L104.85 174.492H143.688V191.886L118.526 216.396L92.2684 197.421Z" fill="#3F3D56"/>
<path d="M150.77 185.58V174.887H145.613V177.506L143.688 174.492L131.107 194.258L126.184 199.002L118.55 279.609L130.062 296.248H156.817V195.049L150.77 185.58Z" fill="#CCCCCC"/>
<path d="M131.107 194.258H89.5332V296.248H131.107V194.258Z" fill="#F2F2F2"/>
<path d="M113.329 271.344H105.67V296.248H113.329V271.344Z" fill="#CCCCCC"/>
<path d="M97.4651 278.459V274.506H94.1831V278.459H97.1918H97.4651Z" fill="#3F3D56"/>
<path d="M97.1918 281.622H94.1831V285.575H97.4651V281.622H97.1918Z" fill="#3F3D56"/>
<path d="M102.935 274.506H99.6533V278.459H102.935V274.506Z" fill="#3F3D56"/>
<path d="M102.935 281.622H99.6533V285.575H102.935V281.622Z" fill="#3F3D56"/>
<path d="M119.893 278.459V274.506H116.611V278.459H119.62H119.893Z" fill="#3F3D56"/>
<path d="M119.62 281.622H116.611V285.575H119.893V281.622H119.62Z" fill="#3F3D56"/>
<path d="M125.363 274.506H122.081V278.459H125.363V274.506Z" fill="#3F3D56"/>
<path d="M125.363 281.622H122.081V285.575H125.363V281.622Z" fill="#3F3D56"/>
<path d="M142.868 199.397V195.444H139.586V199.397H142.594H142.868Z" fill="#3F3D56"/>
<path d="M142.594 202.56H139.586V206.513H142.868V202.56H142.594Z" fill="#3F3D56"/>
<path d="M148.338 195.444H145.056V199.397H148.338V195.444Z" fill="#3F3D56"/>
<path d="M148.338 202.56H145.056V206.513H148.338V202.56Z" fill="#3F3D56"/>
<path d="M142.868 221.535V217.582H139.586V221.535H142.594H142.868Z" fill="#3F3D56"/>
<path d="M142.594 224.697H139.586V228.65H142.868V224.697H142.594Z" fill="#3F3D56"/>
<path d="M148.338 217.582H145.056V221.535H148.338V217.582Z" fill="#3F3D56"/>
<path d="M148.338 224.697H145.056V228.65H148.338V224.697Z" fill="#3F3D56"/>
<path d="M142.868 243.672V239.719H139.586V243.672H142.594H142.868Z" fill="#3F3D56"/>
<path d="M142.594 246.834H139.586V250.787H142.868V246.834H142.594Z" fill="#3F3D56"/>
<path d="M148.338 239.719H145.056V243.672H148.338V239.719Z" fill="#3F3D56"/>
<path d="M148.338 246.834H145.056V250.788H148.338V246.834Z" fill="#3F3D56"/>
<path d="M142.868 265.809V261.856H139.586V265.809H142.594H142.868Z" fill="#3F3D56"/>
<path d="M142.594 268.972H139.586V272.925H142.868V268.972H142.594Z" fill="#3F3D56"/>
<path d="M148.338 261.856H145.056V265.809H148.338V261.856Z" fill="#3F3D56"/>
<path d="M148.338 268.972H145.056V272.925H148.338V268.972Z" fill="#3F3D56"/>
<path d="M125.91 199.397H94.1831V208.885H125.91V199.397Z" fill="#3F3D56"/>
<path d="M125.91 218.372H94.1831V227.859H125.91V218.372Z" fill="#3F3D56"/>
<path d="M125.91 237.347H94.1831V246.835H125.91V237.347Z" fill="#3F3D56"/>
<path d="M125.91 256.322H94.1831V265.809H125.91V256.322Z" fill="#3F3D56"/>
<path d="M252.121 197.421L249.386 194.258L264.703 174.492H303.541V191.886L278.379 216.396L252.121 197.421Z" fill="#3F3D56"/>
<path d="M310.623 185.58V174.887H305.466V177.506L303.542 174.492L290.96 194.258L286.037 199.002L278.403 279.609L289.916 296.248H316.67V195.049L310.623 185.58Z" fill="#CCCCCC"/>
<path d="M290.96 194.258H249.386V296.248H290.96V194.258Z" fill="#F2F2F2"/>
<path d="M273.182 271.344H265.524V296.248H273.182V271.344Z" fill="#CCCCCC"/>
<path d="M257.318 278.459V274.506H254.036V278.459H257.045H257.318Z" fill="#3F3D56"/>
<path d="M257.045 281.622H254.036V285.575H257.318V281.622H257.045Z" fill="#3F3D56"/>
<path d="M262.789 274.506H259.507V278.459H262.789V274.506Z" fill="#3F3D56"/>
<path d="M262.789 281.622H259.507V285.575H262.789V281.622Z" fill="#3F3D56"/>
<path d="M279.746 278.459V274.506H276.464V278.459H279.473H279.746Z" fill="#3F3D56"/>
<path d="M279.473 281.622H276.464V285.575H279.746V281.622H279.473Z" fill="#3F3D56"/>
<path d="M285.216 274.506H281.934V278.459H285.216V274.506Z" fill="#3F3D56"/>
<path d="M285.216 281.622H281.934V285.575H285.216V281.622Z" fill="#3F3D56"/>
<path d="M302.721 199.397V195.444H299.439V199.397H302.447H302.721Z" fill="#3F3D56"/>
<path d="M302.447 202.56H299.439V206.513H302.721V202.56H302.447Z" fill="#3F3D56"/>
<path d="M308.191 195.444H304.909V199.397H308.191V195.444Z" fill="#3F3D56"/>
<path d="M308.191 202.56H304.909V206.513H308.191V202.56Z" fill="#3F3D56"/>
<path d="M302.721 221.535V217.582H299.439V221.535H302.447H302.721Z" fill="#3F3D56"/>
<path d="M302.447 224.697H299.439V228.65H302.721V224.697H302.447Z" fill="#3F3D56"/>
<path d="M308.191 217.582H304.909V221.535H308.191V217.582Z" fill="#3F3D56"/>
<path d="M308.191 224.697H304.909V228.65H308.191V224.697Z" fill="#3F3D56"/>
<path d="M302.721 243.672V239.719H299.439V243.672H302.447H302.721Z" fill="#3F3D56"/>
<path d="M302.447 246.834H299.439V250.787H302.721V246.834H302.447Z" fill="#3F3D56"/>
<path d="M308.191 239.719H304.909V243.672H308.191V239.719Z" fill="#3F3D56"/>
<path d="M308.191 246.834H304.909V250.788H308.191V246.834Z" fill="#3F3D56"/>
<path d="M302.721 265.809V261.856H299.439V265.809H302.447H302.721Z" fill="#3F3D56"/>
<path d="M302.447 268.972H299.439V272.925H302.721V268.972H302.447Z" fill="#3F3D56"/>
<path d="M308.191 261.856H304.909V265.809H308.191V261.856Z" fill="#3F3D56"/>
<path d="M308.191 268.972H304.909V272.925H308.191V268.972Z" fill="#3F3D56"/>
<path d="M285.763 199.397H254.036V208.885H285.763V199.397Z" fill="#3F3D56"/>
<path d="M285.763 218.372H254.036V227.859H285.763V218.372Z" fill="#3F3D56"/>
<path d="M285.763 237.347H254.036V246.835H285.763V237.347Z" fill="#3F3D56"/>
<path d="M285.763 256.322H254.036V265.809H285.763V256.322Z" fill="#3F3D56"/>
<path d="M339.783 197.421L337.048 194.258L352.364 174.492H391.203V191.886L366.04 216.396L339.783 197.421Z" fill="#3F3D56"/>
<path d="M398.284 185.58V174.887H393.127V177.506L391.203 174.492L378.621 194.258L373.698 199.002L366.065 279.609L377.577 296.248H404.331V195.049L398.284 185.58Z" fill="#CCCCCC"/>
<path d="M378.622 194.258H337.048V296.248H378.622V194.258Z" fill="#F2F2F2"/>
<path d="M360.843 271.344H353.185V296.248H360.843V271.344Z" fill="#CCCCCC"/>
<path d="M344.98 278.459V274.506H341.698V278.459H344.706H344.98Z" fill="#3F3D56"/>
<path d="M344.706 281.622H341.698V285.575H344.98V281.622H344.706Z" fill="#3F3D56"/>
<path d="M350.45 274.506H347.168V278.459H350.45V274.506Z" fill="#3F3D56"/>
<path d="M350.45 281.622H347.168V285.575H350.45V281.622Z" fill="#3F3D56"/>
<path d="M367.407 278.459V274.506H364.125V278.459H367.134H367.407Z" fill="#3F3D56"/>
<path d="M367.134 281.622H364.125V285.575H367.407V281.622H367.134Z" fill="#3F3D56"/>
<path d="M372.878 274.506H369.595V278.459H372.878V274.506Z" fill="#3F3D56"/>
<path d="M372.878 281.622H369.595V285.575H372.878V281.622Z" fill="#3F3D56"/>
<path d="M390.382 199.397V195.444H387.1V199.397H390.109H390.382Z" fill="#3F3D56"/>
<path d="M390.109 202.56H387.1V206.513H390.382V202.56H390.109Z" fill="#3F3D56"/>
<path d="M395.853 195.444H392.571V199.397H395.853V195.444Z" fill="#3F3D56"/>
<path d="M395.853 202.56H392.571V206.513H395.853V202.56Z" fill="#3F3D56"/>
<path d="M390.382 221.535V217.582H387.1V221.535H390.109H390.382Z" fill="#3F3D56"/>
<path d="M390.109 224.697H387.1V228.65H390.382V224.697H390.109Z" fill="#3F3D56"/>
<path d="M395.853 217.582H392.571V221.535H395.853V217.582Z" fill="#3F3D56"/>
<path d="M395.853 224.697H392.571V228.65H395.853V224.697Z" fill="#3F3D56"/>
<path d="M390.382 243.672V239.719H387.1V243.672H390.109H390.382Z" fill="#3F3D56"/>
<path d="M390.109 246.834H387.1V250.787H390.382V246.834H390.109Z" fill="#3F3D56"/>
<path d="M395.853 239.719H392.571V243.672H395.853V239.719Z" fill="#3F3D56"/>
<path d="M395.853 246.834H392.571V250.788H395.853V246.834Z" fill="#3F3D56"/>
<path d="M390.382 265.809V261.856H387.1V265.809H390.109H390.382Z" fill="#3F3D56"/>
<path d="M390.109 268.972H387.1V272.925H390.382V268.972H390.109Z" fill="#3F3D56"/>
<path d="M395.853 261.856H392.571V265.809H395.853V261.856Z" fill="#3F3D56"/>
<path d="M395.853 268.972H392.571V272.925H395.853V268.972Z" fill="#3F3D56"/>
<path d="M373.425 199.397H341.698V208.885H373.425V199.397Z" fill="#3F3D56"/>
<path d="M373.425 218.372H341.698V227.859H373.425V218.372Z" fill="#3F3D56"/>
<path d="M373.425 237.347H341.698V246.835H373.425V237.347Z" fill="#3F3D56"/>
<path d="M373.425 256.322H341.698V265.809H373.425V256.322Z" fill="#3F3D56"/>
<path d="M432 295.853H-19V297H432V295.853Z" fill="#3F3D56"/>
<path d="M81.7511 250.563H80.9578V295.853H81.7511V250.563Z" fill="#3F3D56"/>
<path d="M89.0726 256.335C89.1231 272.172 81.414 285.062 81.414 285.062C81.414 285.062 73.623 272.275 73.5725 256.438C73.522 240.601 81.2311 227.711 81.2311 227.711C81.2311 227.711 89.0221 240.498 89.0726 256.335Z" fill="#98CECD"/>
<path d="M161.083 250.563H160.289V295.853H161.083V250.563Z" fill="#3F3D56"/>
<path d="M168.404 256.335C168.455 272.172 160.746 285.062 160.746 285.062C160.746 285.062 152.955 272.275 152.904 256.438C152.854 240.601 160.563 227.711 160.563 227.711C160.563 227.711 168.354 240.498 168.404 256.335Z" fill="#98CECD"/>
<path d="M319.349 250.563H318.556V295.853H319.349V250.563Z" fill="#3F3D56"/>
<path d="M326.671 256.335C326.721 272.172 319.012 285.062 319.012 285.062C319.012 285.062 311.221 272.275 311.171 256.438C311.12 240.601 318.829 227.711 318.829 227.711C318.829 227.711 326.62 240.498 326.671 256.335Z" fill="#98CECD"/>
<path d="M214.036 98.6356C222.361 98.6356 229.109 96.4411 229.109 93.734C229.109 91.0268 222.361 88.8323 214.036 88.8323C205.712 88.8323 198.963 91.0268 198.963 93.734C198.963 96.4411 205.712 98.6356 214.036 98.6356Z" fill="#98CECD"/>
<path d="M231.093 25.225C231.093 39.1564 213.64 78.5416 213.64 78.5416C213.64 78.5416 196.187 39.1564 196.187 25.225C196.187 18.5349 198.026 12.1189 201.299 7.38824C204.572 2.65763 209.011 0 213.64 0C218.269 0 222.708 2.65763 225.981 7.38824C229.254 12.1189 231.093 18.5349 231.093 25.225Z" fill="#98CECD"/>
<path d="M213.64 39.5574C219.117 39.5574 223.556 33.1406 223.556 25.225C223.556 17.3094 219.117 10.8926 213.64 10.8926C208.163 10.8926 203.723 17.3094 203.723 25.225C203.723 33.1406 208.163 39.5574 213.64 39.5574Z" fill="#F2F2F2"/>
</g>
<defs>
<clipPath id="clip0">
<rect width="451" height="297" fill="white" transform="translate(-19)"/>
</clipPath>
</defs>
</svg>
