<svg width="389" height="305" viewBox="0 0 389 305" fill="none" xmlns="http://www.w3.org/2000/svg">
<g clip-path="url(#clip0)">
<path opacity="0.1" d="M27.4908 246.255C38.1879 246.255 46.8597 242.93 46.8597 238.829C46.8597 234.727 38.1879 231.403 27.4908 231.403C16.7937 231.403 8.12195 234.727 8.12195 238.829C8.12195 242.93 16.7937 246.255 27.4908 246.255Z" fill="black"/>
<path opacity="0.1" d="M340.397 276.957C351.094 276.957 359.766 273.632 359.766 269.531C359.766 265.43 351.094 262.105 340.397 262.105C329.7 262.105 321.028 265.43 321.028 269.531C321.028 273.632 329.7 276.957 340.397 276.957Z" fill="black"/>
<path opacity="0.1" d="M229.366 8.55394C199.891 20.8302 167.941 21.4011 138.264 9.84422C96.203 -6.53037 41.2729 -10.7215 20.9183 64.3148C-13.8208 192.513 57.25 238.272 57.25 238.272C57.25 238.272 106.869 250.265 134.342 271.935C173.369 302.716 221.162 313.006 266.184 298.572C294.975 289.34 319.651 274.195 326.705 249.415C346.436 180.111 333.911 138.455 369.618 120.182C405.326 101.91 385.458 34.2158 360.063 32.6795C334.668 31.1433 274.84 46.8449 256.332 15.6134C249.734 4.52527 239.64 4.26999 229.366 8.55394Z" fill="black"/>
<path d="M339.614 270.585C339.614 270.585 344.779 251.629 338.641 237.678C336.027 231.844 335.239 225.253 336.394 218.894C336.965 215.88 337.79 212.928 338.86 210.076" stroke="#535461" stroke-width="2" stroke-miterlimit="10"/>
<path d="M335.038 201.262C335.038 203.582 338.938 210.322 338.938 210.322C338.938 210.322 342.837 203.587 342.837 201.262C342.837 200.146 342.426 199.076 341.695 198.287C340.963 197.498 339.97 197.054 338.936 197.054C337.901 197.054 336.908 197.498 336.177 198.287C335.445 199.076 335.034 200.146 335.034 201.262H335.038Z" fill="#98CECD"/>
<path d="M328.591 214.132C329.761 216.082 336.433 219.451 336.433 219.451C336.433 219.451 336.312 211.51 335.142 209.561C334.863 209.097 334.503 208.697 334.081 208.384C333.66 208.07 333.185 207.85 332.684 207.734C332.183 207.619 331.666 207.611 331.162 207.711C330.659 207.811 330.178 208.016 329.748 208.317C329.319 208.617 328.948 209.005 328.657 209.46C328.367 209.915 328.162 210.427 328.055 210.967C327.948 211.507 327.94 212.064 328.033 212.607C328.126 213.151 328.317 213.669 328.595 214.132H328.591Z" fill="#98CECD"/>
<path d="M328.87 236.118C330.794 237.162 338.129 236.443 338.129 236.443C338.129 236.443 334.307 229.653 332.383 228.608C331.459 228.106 330.388 228.02 329.406 228.369C328.424 228.718 327.61 229.474 327.144 230.47C326.679 231.465 326.599 232.62 326.922 233.679C327.246 234.739 327.947 235.616 328.87 236.118Z" fill="#98CECD"/>
<path d="M332.559 252.706C334.281 254.099 341.632 254.711 341.632 254.711C341.632 254.711 338.929 247.322 337.199 245.944C336.367 245.28 335.325 245 334.302 245.165C333.279 245.33 332.359 245.927 331.743 246.823C331.128 247.72 330.868 248.844 331.021 249.947C331.174 251.05 331.727 252.043 332.559 252.706Z" fill="#98CECD"/>
<path d="M344.62 219.901C343.074 221.521 335.873 223.197 335.873 223.197C335.873 223.197 337.638 215.487 339.183 213.868C339.925 213.09 340.923 212.663 341.958 212.679C342.992 212.695 343.978 213.153 344.699 213.953C345.42 214.754 345.817 215.83 345.802 216.945C345.787 218.061 345.362 219.124 344.62 219.901Z" fill="#98CECD"/>
<path d="M348.704 239.353C346.78 240.397 339.446 239.678 339.446 239.678C339.446 239.678 343.268 232.888 345.192 231.867C346.115 231.364 347.186 231.278 348.168 231.627C349.151 231.976 349.964 232.732 350.43 233.728C350.896 234.724 350.976 235.878 350.652 236.937C350.328 237.997 349.628 238.874 348.704 239.376V239.353Z" fill="#98CECD"/>
<path d="M350.267 258.851C348.545 260.244 341.193 260.856 341.193 260.856C341.193 260.856 343.896 253.468 345.627 252.089C346.458 251.426 347.5 251.145 348.523 251.31C349.546 251.475 350.467 252.072 351.082 252.969C351.697 253.865 351.957 254.989 351.804 256.092C351.651 257.195 351.098 258.188 350.267 258.851Z" fill="#98CECD"/>
<path d="M27.4995 238.884C27.4995 238.884 38.5569 198.449 25.4334 168.652C19.9241 156.153 18.1163 142.127 20.6429 128.565C21.8609 122.133 23.6229 115.834 25.9069 109.749" stroke="#535461" stroke-width="2" stroke-miterlimit="10"/>
<path d="M17.742 90.9282C17.742 95.8852 26.0663 110.264 26.0663 110.264C26.0663 110.264 34.3863 95.8759 34.3863 90.9282C34.3863 88.5476 33.5093 86.2644 31.9482 84.581C30.387 82.8976 28.2697 81.9519 26.062 81.9519C23.8542 81.9519 21.7369 82.8976 20.1758 84.581C18.6147 86.2644 17.7377 88.5476 17.7377 90.9282H17.742Z" fill="#98CECD"/>
<path d="M3.98134 118.391C6.48208 122.568 20.716 129.744 20.716 129.744C20.716 129.744 20.4578 112.794 17.9571 108.635C16.7337 106.698 14.8562 105.353 12.7257 104.889C10.5953 104.424 8.38085 104.877 6.55574 106.15C4.73063 107.423 3.43959 109.415 2.95854 111.7C2.47748 113.986 2.84457 116.384 3.98134 118.382V118.391Z" fill="#98CECD"/>
<path d="M4.58029 165.324C8.68649 167.556 24.3408 166.015 24.3408 166.015C24.3408 166.015 16.1629 151.525 12.0782 149.307C11.102 148.776 10.0385 148.457 8.9482 148.37C7.85794 148.282 6.76236 148.427 5.72398 148.796C4.68561 149.165 3.72479 149.751 2.89639 150.52C2.06799 151.289 1.38822 152.227 0.895901 153.28C0.403582 154.332 0.108354 155.479 0.0270701 156.655C-0.0542133 157.83 0.0800413 159.012 0.422168 160.132C1.11313 162.393 2.60884 164.266 4.58029 165.338V165.324Z" fill="#98CECD"/>
<path d="M12.4349 200.723C16.1322 203.671 31.8038 205.003 31.8038 205.003C31.8038 205.003 26.0361 189.222 22.3345 186.289C20.5594 184.873 18.3355 184.276 16.1521 184.629C13.9686 184.981 12.0045 186.254 10.6917 188.169C9.37892 190.083 8.82507 192.481 9.15198 194.835C9.47889 197.19 10.6598 199.308 12.4349 200.723Z" fill="#98CECD"/>
<path d="M38.1954 130.686C34.8984 134.139 19.5325 137.717 19.5325 137.717C19.5325 137.717 23.2943 121.259 26.5913 117.806C28.1752 116.144 30.3064 115.229 32.5161 115.262C34.7258 115.294 36.833 116.272 38.3741 117.98C39.9152 119.688 40.7639 121.986 40.7337 124.369C40.7034 126.752 39.7966 129.024 38.2127 130.686H38.1954Z" fill="#98CECD"/>
<path d="M46.9113 172.23C42.8051 174.463 27.1508 172.922 27.1508 172.922C27.1508 172.922 35.3287 158.432 39.4134 156.213C40.3896 155.682 41.4531 155.364 42.5434 155.276C43.6336 155.189 44.7292 155.333 45.7676 155.702C46.806 156.071 47.7668 156.657 48.5952 157.426C49.4236 158.196 50.1034 159.134 50.5957 160.186C51.088 161.239 51.3832 162.386 51.4645 163.561C51.5458 164.737 51.4115 165.918 51.0694 167.038C50.7273 168.158 50.184 169.194 49.4705 170.087C48.7571 170.98 47.8875 171.713 46.9113 172.244V172.23Z" fill="#98CECD"/>
<path d="M50.2472 213.844C46.5499 216.792 30.8783 218.124 30.8783 218.124C30.8783 218.124 36.6459 202.343 40.3475 199.41C42.1226 197.994 44.3465 197.397 46.53 197.75C48.7134 198.102 50.6776 199.376 51.9903 201.29C53.3031 203.204 53.857 205.602 53.5301 207.956C53.2031 210.311 52.0223 212.429 50.2472 213.844Z" fill="#98CECD"/>
<path d="M163.193 139.142L139.206 135.791C138.233 135.657 137.484 135.257 137.51 134.909C137.553 134.561 138.371 134.399 139.365 134.552L163.301 138.288C163.96 138.39 164.459 138.659 164.429 138.896C164.399 139.119 163.848 139.235 163.193 139.142Z" fill="#98CECD"/>
<path d="M163.344 139.583L139.284 136.901C138.307 136.794 137.476 136.989 137.446 137.337C137.416 137.685 138.195 138.052 139.167 138.144L163.271 140.465C163.934 140.53 164.476 140.391 164.498 140.154C164.515 139.904 164.003 139.658 163.344 139.583Z" fill="#98CECD"/>
<path d="M199.439 159.1L223.422 155.749C224.395 155.614 225.144 155.215 225.118 154.867C225.075 154.519 224.257 154.356 223.263 154.51L199.327 158.246C198.669 158.348 198.169 158.617 198.2 158.854C198.23 159.077 198.781 159.193 199.439 159.1Z" fill="#98CECD"/>
<path d="M199.284 159.541L223.345 156.858C224.322 156.752 225.152 156.946 225.182 157.295C225.213 157.643 224.433 158.009 223.461 158.102L199.357 160.423C198.694 160.488 198.152 160.349 198.131 160.112C198.113 159.861 198.626 159.615 199.284 159.541Z" fill="#98CECD"/>
<path d="M120.1 186.878H114.25V277.319H120.1V186.878Z" fill="#40414D"/>
<path d="M247.857 186.878H242.008V277.319H247.857V186.878Z" fill="#40414D"/>
<path d="M112.017 179.517H247.168C249.68 179.517 252.088 180.593 253.864 182.508C255.64 184.423 256.637 187.02 256.637 189.728V191.083H102.547V189.728C102.547 187.02 103.545 184.423 105.321 182.508C107.097 180.593 109.505 179.517 112.017 179.517Z" fill="#DFE6F5"/>
<path opacity="0.1" d="M111.586 179.517H246.738C249.249 179.517 251.658 180.593 253.434 182.508C255.209 184.423 256.207 187.02 256.207 189.728V191.083H102.117V189.728C102.117 187.02 103.115 184.423 104.89 182.508C106.666 180.593 109.075 179.517 111.586 179.517Z" fill="black"/>
<path d="M112.017 177.41H247.168C249.68 177.41 252.088 178.486 253.864 180.401C255.64 182.316 256.637 184.913 256.637 187.621V188.976H102.547V187.621C102.547 184.913 103.545 182.316 105.321 180.401C107.097 178.486 109.505 177.41 112.017 177.41Z" fill="#DFE6F5"/>
<path d="M179.592 170.049C186.056 170.049 191.295 164.399 191.295 157.429C191.295 150.459 186.056 144.809 179.592 144.809C173.129 144.809 167.889 150.459 167.889 157.429C167.889 164.399 173.129 170.049 179.592 170.049Z" fill="#FFD77C" stroke="#FFAB50" stroke-miterlimit="10"/>
<path d="M179.592 167.431C184.715 167.431 188.868 162.953 188.868 157.429C188.868 151.905 184.715 147.427 179.592 147.427C174.47 147.427 170.317 151.905 170.317 157.429C170.317 162.953 174.47 167.431 179.592 167.431Z" fill="#FFD77C" stroke="#FFAB50" stroke-miterlimit="10"/>
<path d="M179.592 165.05C183.496 165.05 186.66 161.638 186.66 157.429C186.66 153.22 183.496 149.808 179.592 149.808C175.689 149.808 172.525 153.22 172.525 157.429C172.525 161.638 175.689 165.05 179.592 165.05Z" fill="#FFD77C" stroke="#FFAB50" stroke-miterlimit="10"/>
<path d="M179.592 161.713C181.786 161.713 183.565 159.795 183.565 157.429C183.565 155.063 181.786 153.145 179.592 153.145C177.398 153.145 175.62 155.063 175.62 157.429C175.62 159.795 177.398 161.713 179.592 161.713Z" fill="#FFD77C" stroke="#FFAB50" stroke-miterlimit="10"/>
<path d="M172.766 176.885C179.229 176.885 184.469 171.235 184.469 164.266C184.469 157.296 179.229 151.646 172.766 151.646C166.302 151.646 161.063 157.296 161.063 164.266C161.063 171.235 166.302 176.885 172.766 176.885Z" fill="#FFD77C" stroke="#FFAB50" stroke-miterlimit="10"/>
<path d="M172.766 174.268C177.889 174.268 182.041 169.79 182.041 164.266C182.041 158.742 177.889 154.264 172.766 154.264C167.643 154.264 163.49 158.742 163.49 164.266C163.49 169.79 167.643 174.268 172.766 174.268Z" fill="#FFD77C" stroke="#FFAB50" stroke-miterlimit="10"/>
<path d="M172.766 171.887C176.669 171.887 179.833 168.475 179.833 164.266C179.833 160.057 176.669 156.645 172.766 156.645C168.863 156.645 165.698 160.057 165.698 164.266C165.698 168.475 168.863 171.887 172.766 171.887Z" fill="#FFD77C" stroke="#FFAB50" stroke-miterlimit="10"/>
<path d="M172.766 168.55C174.96 168.55 176.739 166.632 176.739 164.266C176.739 161.9 174.96 159.982 172.766 159.982C170.572 159.982 168.793 161.9 168.793 164.266C168.793 166.632 170.572 168.55 172.766 168.55Z" fill="#FFD77C" stroke="#FFAB50" stroke-miterlimit="10"/>
<path d="M186.419 176.885C192.882 176.885 198.122 171.235 198.122 164.266C198.122 157.296 192.882 151.646 186.419 151.646C179.956 151.646 174.716 157.296 174.716 164.266C174.716 171.235 179.956 176.885 186.419 176.885Z" fill="#FFD77C" stroke="#FFAB50" stroke-miterlimit="10"/>
<path d="M186.419 174.268C191.542 174.268 195.694 169.79 195.694 164.266C195.694 158.742 191.542 154.264 186.419 154.264C181.296 154.264 177.143 158.742 177.143 164.266C177.143 169.79 181.296 174.268 186.419 174.268Z" fill="#FFD77C" stroke="#FFAB50" stroke-miterlimit="10"/>
<path d="M186.419 171.887C190.322 171.887 193.486 168.475 193.486 164.266C193.486 160.057 190.322 156.645 186.419 156.645C182.516 156.645 179.351 160.057 179.351 164.266C179.351 168.475 182.516 171.887 186.419 171.887Z" fill="#FFD77C" stroke="#FFAB50" stroke-miterlimit="10"/>
<path d="M186.419 168.55C188.613 168.55 190.392 166.632 190.392 164.266C190.392 161.9 188.613 159.982 186.419 159.982C184.225 159.982 182.446 161.9 182.446 164.266C182.446 166.632 184.225 168.55 186.419 168.55Z" fill="#FFD77C" stroke="#FFAB50" stroke-miterlimit="10"/>
<path d="M155.209 160.59H203.971V163.059C203.971 165.497 203.526 167.911 202.661 170.164C201.796 172.416 200.527 174.463 198.929 176.187C197.33 177.911 195.432 179.278 193.343 180.211C191.254 181.144 189.015 181.624 186.755 181.624H172.426C170.165 181.624 167.926 181.144 165.837 180.211C163.748 179.278 161.851 177.911 160.252 176.187C158.653 174.463 157.385 172.416 156.52 170.164C155.654 167.911 155.209 165.497 155.209 163.059V160.59Z" fill="#98CECD"/>
<path opacity="0.1" d="M199.572 160.585C199.446 166.07 197.336 171.284 193.694 175.114C190.052 178.945 185.166 181.09 180.079 181.091H170.399C171.811 181.438 173.254 181.616 174.703 181.62H184.456C187.019 181.621 189.556 181.078 191.924 180.021C194.291 178.965 196.443 177.415 198.255 175.462C200.067 173.509 201.505 171.19 202.486 168.637C203.467 166.084 203.971 163.348 203.971 160.585H199.572Z" fill="black"/>
<path d="M244.934 262.068V255.76H118.15V262.068H244.934Z" fill="#40414D"/>
<path d="M70.6147 233.732H65.4969V283.942H70.6147V233.732Z" fill="#40414D"/>
<path d="M111.035 233.732H105.917V283.942H111.035V233.732Z" fill="#40414D"/>
<path d="M115.133 225.457C115.133 228.808 104.596 231.528 91.5976 231.528C78.5989 231.528 68.5745 228.813 68.5745 225.457C68.5745 222.101 78.5989 219.386 91.5976 219.386C104.596 219.386 115.133 222.12 115.133 225.457Z" fill="#F6C6CD"/>
<path d="M61.4036 225.452H115.128V230.511C115.128 231.804 114.652 233.044 113.805 233.957C112.957 234.871 111.808 235.385 110.609 235.385H69.1511C67.0963 235.385 65.1257 234.505 63.6728 232.938C62.2198 231.371 61.4036 229.246 61.4036 227.03V225.452Z" fill="#40414D"/>
<path d="M52.28 167.399L53.3885 167.129C54.1679 166.94 54.9854 167.091 55.6609 167.552C56.3365 168.012 56.8149 168.743 56.9909 169.583L70.4088 233.682L68.7293 234.091C67.3196 234.434 65.8412 234.159 64.6194 233.327C63.3975 232.495 62.5323 231.173 62.2141 229.653L49.9961 171.286C49.9088 170.869 49.8986 170.437 49.9663 170.016C50.0339 169.595 50.1779 169.192 50.3901 168.831C50.6022 168.47 50.8784 168.158 51.2027 167.912C51.527 167.666 51.8931 167.492 52.28 167.399Z" fill="#40414D"/>
<path d="M289.427 284.833H294.544V234.624H289.427V284.833Z" fill="#40414D"/>
<path d="M249.006 284.833H254.124V234.624H249.006V284.833Z" fill="#40414D"/>
<path d="M244.917 226.348C244.917 229.699 255.454 232.419 268.452 232.419C281.451 232.419 291.476 229.704 291.476 226.348C291.476 222.993 281.447 220.263 268.452 220.263C255.458 220.263 244.917 222.997 244.917 226.348Z" fill="#F6C6CD"/>
<path d="M290.89 236.281H249.432C248.234 236.281 247.084 235.767 246.236 234.853C245.389 233.939 244.913 232.7 244.913 231.407V226.348H298.638V227.926C298.638 230.142 297.821 232.267 296.368 233.834C294.916 235.4 292.945 236.281 290.89 236.281Z" fill="#40414D"/>
<path d="M291.32 234.982L289.64 234.573L303.06 170.465C303.236 169.624 303.714 168.893 304.39 168.433C305.065 167.973 305.883 167.821 306.662 168.011L307.771 168.281C308.55 168.47 309.228 168.986 309.655 169.715C310.081 170.443 310.222 171.325 310.046 172.165L297.826 230.542C297.508 232.06 296.645 233.381 295.425 234.213C294.205 235.046 292.728 235.322 291.32 234.982Z" fill="#40414D"/>
<path d="M293.141 206.804L294.652 206.288C294.652 206.288 292.07 187.686 292.095 171.014C292.095 170.55 292.095 170.054 292.095 169.575C292.126 168.536 292.16 167.505 292.207 166.498C292.268 165.208 292.28 163.978 292.272 162.785C292.414 146.731 286.547 139.95 286.547 139.95C286.547 139.95 279.661 129.358 275.533 127.298C275.176 126.091 274.767 124.541 274.405 122.74C274.539 122.642 274.668 122.545 274.793 122.443C276.497 121.079 278.128 119.612 279.678 118.047C281.795 115.908 283.827 113.299 283.715 110.357C283.727 110.07 283.718 109.783 283.689 109.498C283.298 105.948 279.876 103.274 278.494 99.9092C277.332 97.0826 277.681 93.9358 276.665 91.0675C275.649 88.1991 272.102 85.5304 269.425 87.0388C268.44 87.5958 267.846 88.5797 267.023 89.327C264.983 91.1835 261.695 91.3552 258.906 90.5105C256.117 89.6658 255.29 86.2219 251.391 86.2126C251.737 86.3378 252.068 86.5077 252.376 86.7185C252.051 86.6594 251.721 86.6283 251.391 86.6257C252.184 86.8964 252.887 87.4091 253.416 88.1018C253.945 88.7946 254.276 89.6377 254.369 90.5291C254.363 90.641 254.352 90.7526 254.335 90.8633C252.777 91.7683 250.728 91.2531 248.86 91.2206C246.992 91.1881 244.865 92.2046 245.051 93.8523C245.019 94.0395 245.019 94.2313 245.051 94.4185C245.296 95.667 246.845 96.6092 247.035 97.7649C247.035 97.7974 247.035 97.8252 247.035 97.8577C243.578 99.7204 239.838 100.896 235.995 101.329C235.87 101.329 235.926 101.492 236.106 101.729H235.995C235.293 101.807 240.2 105.989 240.759 106.263C242.808 107.266 245.257 108.004 247.426 108.774L247.616 108.839C246.885 110.67 246.509 112.643 246.51 114.636C246.51 121.784 251.274 127.79 257.726 129.488C258.932 131.006 260.197 132.672 261.351 134.329H261.269C261.269 134.329 253.853 144.967 254.089 160.854C254.068 162.846 254.166 164.836 254.382 166.814C249.613 166.521 239.365 165.166 231.57 159.012C221.055 150.718 209.326 153.206 211.771 158.181C214.215 163.157 226.736 167.301 228.755 167.719C228.944 167.756 229.383 167.867 230.012 168.035C227.524 168.54 225.819 169.427 225.923 170.62C226.125 172.899 236.842 180.158 243.312 180.571C247.586 180.845 252.729 182.265 256.788 183.513C257.18 193.051 255.041 195.91 255.041 195.91C255.041 195.91 255.678 196.333 256.732 196.931L256.28 198.324C253.655 199.958 250.418 201.661 247.474 202.348C243.722 203.179 240.075 204.488 236.61 206.247L222.049 213.835C220.749 214.486 219.624 215.483 218.78 216.733C217.937 217.983 217.402 219.444 217.228 220.978C216.91 224.195 217.809 228.214 222.682 231.403C222.983 234.016 224.464 237.065 228.35 239.859C235.883 245.262 255.678 261.446 258.372 263.655C258.424 267.605 257.942 275.528 253.422 276.762C247.758 278.312 252.316 284.188 256.896 283.956C257.982 284.4 259.165 284.493 260.3 284.225C265.155 282.982 282.949 276.335 284.163 266.393C284.213 265.963 284.236 265.528 284.232 265.094C284.302 263.399 283.91 261.719 283.104 260.262C283.294 260.711 283.448 261.177 283.564 261.655C282.092 258.034 278.507 255.76 275.718 254.479C275.718 254.447 275.718 254.41 275.718 254.377C275.288 254.196 274.857 254.048 274.504 253.913C274.511 253.644 274.493 253.375 274.448 253.11L246.544 232.377C246.544 232.377 258.678 221.595 271.216 223.257C283.754 224.919 285.751 222.463 285.751 222.463C285.751 222.463 292.181 215.868 292.827 208.275L293.232 208.159C293.232 208.159 293.202 207.681 293.141 206.804Z" fill="url(#paint0_linear)"/>
<path d="M259.065 260.805C259.065 260.805 260.206 274.344 254.498 275.987C248.791 277.63 254.12 284.193 258.682 282.949C263.244 281.705 279.992 275.152 281.133 265.312C282.273 255.472 269.718 252.182 269.718 252.182L259.065 260.805Z" fill="#B8616E"/>
<path opacity="0.05" d="M259.065 260.805C259.065 260.805 260.206 274.344 254.498 275.987C248.791 277.63 254.12 284.193 258.682 282.949C263.244 281.705 279.992 275.152 281.133 265.312C282.273 255.472 269.718 252.182 269.718 252.182L259.065 260.805Z" fill="black"/>
<path d="M261.359 261.214C261.359 261.214 262.5 274.753 256.792 276.396C251.085 278.039 256.414 284.602 260.976 283.358C265.539 282.114 282.286 275.56 283.427 265.721C284.567 255.881 272.012 252.59 272.012 252.59L261.359 261.214Z" fill="#B8616E"/>
<path opacity="0.1" d="M273.153 253.008L262.508 261.627C262.508 261.627 262.556 262.212 262.586 263.144C266.606 261.956 275.365 258.8 275.498 253.862C274.733 253.527 273.95 253.242 273.153 253.008Z" fill="black"/>
<path d="M266.494 135.039H261.927V138.734H266.494V135.039Z" fill="#F8BDC5"/>
<path d="M262.121 194.736C262.121 194.736 254.868 200.881 248.911 202.339C245.369 203.165 241.936 204.461 238.689 206.196L224.989 213.705C223.744 214.38 222.677 215.381 221.885 216.616C221.092 217.851 220.599 219.28 220.452 220.774C220.06 224.951 221.618 230.446 230.915 233.714L260.214 259.975L269.348 251.769L238.147 225.926L262.121 209.922V194.736Z" fill="#758AC8"/>
<path opacity="0.1" d="M262.121 194.736C262.121 194.736 254.868 200.881 248.911 202.339C245.369 203.165 241.936 204.461 238.689 206.196L224.989 213.705C223.744 214.38 222.677 215.381 221.885 216.616C221.092 217.851 220.599 219.28 220.452 220.774C220.06 224.951 221.618 230.446 230.915 233.714L260.214 259.975L269.348 251.769L238.147 225.926L262.121 209.922V194.736Z" fill="black"/>
<path d="M257.933 167.25C257.933 167.25 243.854 167.659 233.959 159.453C224.063 151.247 213.032 153.707 215.313 158.631C217.594 163.556 229.392 167.659 231.294 168.067C233.197 168.475 260.593 176.686 260.593 176.686L257.933 167.25Z" fill="#F8BDC5"/>
<path opacity="0.05" d="M257.933 167.25C257.933 167.25 243.854 167.659 233.959 159.453C224.063 151.247 213.032 153.707 215.313 158.631C217.594 163.556 229.392 167.659 231.294 168.067C233.197 168.475 260.593 176.686 260.593 176.686L257.933 167.25Z" fill="black"/>
<path d="M259.457 191.051L254.89 205.824C254.89 205.824 229.207 222.853 227.111 225.109C225.484 226.863 223.306 233.728 230.916 239.469C238.525 245.21 259.452 263.27 259.452 263.27C259.452 263.27 275.434 259.557 274.293 252.595L248.038 232.08C248.038 232.08 259.452 221.405 271.25 223.053C283.048 224.7 284.95 222.231 284.95 222.231C284.95 222.231 294.084 212.373 291.036 202.951C287.989 193.529 259.457 191.051 259.457 191.051Z" fill="#758AC8"/>
<path d="M253.749 124.188C253.749 124.188 266.688 139.37 265.926 143.881C265.164 148.392 276.2 130.751 276.2 130.751C276.2 130.751 272.757 121.723 273.536 111.875L253.749 124.188Z" fill="#F8BDC5"/>
<path opacity="0.1" d="M265.039 138.112C265.922 137.107 266.851 136.151 267.824 135.248C269.771 133.526 271.557 131.604 273.157 129.507C275.821 125.794 285.712 141.816 285.712 141.816C285.712 141.816 291.799 149.2 291.041 166.846C290.283 184.493 291.992 208.084 291.992 208.084L289.69 208.776C287.75 209.474 285.686 209.676 283.662 209.366C281.637 209.056 279.708 208.242 278.025 206.989C274.986 204.724 271.138 202.348 268.212 202.134C262.504 201.726 257.365 198.236 257.365 198.236C257.365 198.236 259.84 191.877 256.035 171.358C252.23 150.838 261.927 136.255 261.927 136.255C261.927 136.255 262.694 140.72 265.039 138.112Z" fill="black"/>
<path d="M293.322 206.233L291.041 207.054L289.685 207.541C287.745 208.24 285.682 208.442 283.657 208.132C281.633 207.822 279.703 207.008 278.021 205.754C274.986 203.494 271.134 201.113 268.207 200.9C262.508 200.487 256.052 195.975 256.052 195.975C256.052 195.975 259.857 190.642 256.052 170.123C252.247 149.604 261.949 135.039 261.949 135.039C261.949 135.039 262.715 139.481 265.061 136.868C265.941 135.864 266.87 134.91 267.841 134.009C269.788 132.287 271.574 130.364 273.174 128.268C275.838 124.555 285.729 140.576 285.729 140.576C285.729 140.576 291.816 147.961 291.058 165.607C290.976 167.464 290.942 169.376 290.937 171.311C290.882 187.825 293.322 206.233 293.322 206.233Z" fill="#5E52AD"/>
<path opacity="0.1" d="M271.633 166.02L272.012 175.048C272.012 175.048 251.843 176.278 247.659 171.766C243.475 167.255 259.065 185.036 262.508 186.126C265.741 187.152 274.087 188.057 278.464 188.15C279.715 188.193 280.95 187.844 282.02 187.145C283.089 186.445 283.948 185.425 284.49 184.21C285 183.013 285.165 181.679 284.963 180.38C284.202 175.048 284.963 163.556 284.963 163.556L271.633 166.02Z" fill="black"/>
<path d="M271.633 165.199L272.012 174.226C272.012 174.226 251.843 175.456 247.659 170.945C243.475 166.433 228.337 167.431 228.634 170.945C228.824 173.2 238.909 180.38 244.99 180.794C251.072 181.207 259.065 184.214 262.508 185.305C265.741 186.331 274.087 187.236 278.464 187.328C279.715 187.372 280.95 187.023 282.02 186.323C283.089 185.623 283.948 184.604 284.49 183.388C285 182.192 285.165 180.858 284.963 179.559C284.201 174.226 284.963 162.734 284.963 162.734L271.633 165.199Z" fill="#F8BDC5"/>
<path opacity="0.1" d="M276.2 138.938C276.2 138.938 267.45 140.168 268.59 154.12C269.731 168.072 271.255 169.302 271.255 169.302C271.255 169.302 284.193 168.072 285.712 167.659C287.232 167.245 286.474 152.068 286.474 152.068C286.474 152.068 286.091 138.53 276.2 138.938Z" fill="black"/>
<path d="M276.2 138.529C276.2 138.529 267.45 139.759 268.59 153.711C269.731 167.663 271.255 168.893 271.255 168.893C271.255 168.893 284.193 167.663 285.712 167.25C287.232 166.837 286.474 151.66 286.474 151.66C286.474 151.66 286.091 138.112 276.2 138.529Z" fill="#5E52AD"/>
<path opacity="0.1" d="M272.963 120.679C272.365 117.43 273.592 116.428 273.915 112.269L254.115 124.578C254.115 124.578 256.384 127.242 258.962 130.663C260.114 130.977 261.298 131.133 262.487 131.127C267.673 131.15 270.51 125.144 272.963 120.679Z" fill="black"/>
<path d="M262.117 130.732C269.892 130.732 276.196 123.935 276.196 115.55C276.196 107.166 269.892 100.369 262.117 100.369C254.341 100.369 248.038 107.166 248.038 115.55C248.038 123.935 254.341 130.732 262.117 130.732Z" fill="#F8BDC5"/>
<path opacity="0.1" d="M265.668 110.942C263.516 112.418 263.486 115.755 264.872 118.066C266.257 120.377 268.646 121.904 270.945 123.343C271.612 123.761 272.348 124.193 273.097 124.1C273.673 123.979 274.206 123.688 274.638 123.26C276.246 121.906 277.781 120.454 279.235 118.911C281.326 116.692 283.337 113.959 283.009 110.863C282.639 107.349 279.42 104.704 278.12 101.376C277.027 98.5911 277.354 95.4675 276.398 92.6224C275.443 89.7772 272.094 87.1456 269.589 88.6355C268.664 89.1831 268.104 90.1625 267.329 90.9004C265.41 92.7291 262.315 92.9101 259.689 92.0747C257.064 91.2393 256.285 87.8279 252.622 87.8186C254.442 88.5102 255.673 90.557 255.394 92.4228C253.926 93.3186 251.998 92.808 250.229 92.7755C248.46 92.743 246.355 93.8105 246.66 95.5278C246.927 96.9202 248.791 97.9553 248.516 99.3476C245.282 101.184 241.758 102.349 238.125 102.782C237.467 102.861 242.081 106.997 242.606 107.27C244.53 108.264 246.841 108.992 248.877 109.753C254.408 111.81 260.072 112.543 265.668 110.942Z" fill="black"/>
<path d="M265.668 110.529C263.516 112.005 263.486 115.342 264.872 117.653C266.257 119.964 268.646 121.491 270.945 122.93C271.612 123.348 272.348 123.78 273.097 123.687C273.673 123.566 274.206 123.275 274.638 122.847C276.246 121.493 277.781 120.041 279.235 118.498C281.326 116.279 283.337 113.545 283.009 110.45C282.639 106.936 279.42 104.291 278.12 100.963C277.027 98.178 277.354 95.0544 276.398 92.2093C275.443 89.3642 272.094 86.7325 269.589 88.2224C268.664 88.7701 268.104 89.7494 267.329 90.4874C265.41 92.316 262.315 92.4971 259.689 91.6616C257.064 90.8262 256.285 87.4148 252.622 87.4055C254.442 88.0971 255.673 90.1439 255.394 92.0097C253.926 92.9055 251.998 92.3949 250.229 92.3624C248.46 92.33 246.355 93.3975 246.66 95.1148C246.927 96.5071 248.791 97.5422 248.516 98.9346C245.282 100.771 241.758 101.936 238.125 102.369C237.467 102.448 242.081 106.583 242.606 106.857C244.53 107.851 246.841 108.579 248.877 109.34C254.408 111.401 260.072 112.121 265.668 110.529Z" fill="#916168"/>
<path opacity="0.1" d="M282.432 259.664C283.043 261.183 283.256 262.854 283.048 264.495C281.907 274.344 265.164 280.907 260.597 282.132C258.191 282.782 255.57 281.264 254.472 279.44C255.178 281.585 258.217 283.696 260.98 282.954C265.547 281.724 282.29 275.156 283.431 265.317C283.68 263.365 283.329 261.38 282.432 259.664Z" fill="white"/>
<path d="M161.506 270.854C161.166 270.028 159.402 268.417 150.892 268.069C145.064 267.832 143.08 264.514 142.542 261.274C144.457 261.005 145.955 260.634 146.446 260.118C146.446 260.118 146.42 259.97 146.377 259.705L146.446 259.65C146.074 257.313 145.879 254.947 145.865 252.576C145.854 250.547 146.053 248.524 146.459 246.543C146.696 245.233 146.795 243.899 146.756 242.565C146.803 234.675 144.234 220.806 144.234 220.806L143.881 209.282C143.845 207.844 143.451 206.443 142.74 205.226C142.029 204.009 141.027 203.021 139.839 202.366C138.994 201.895 138.058 201.644 137.106 201.633C137.106 201.633 123.616 199.34 111.474 198.092C110.613 197.344 107.579 195.33 100.623 196.486L96.6206 183.852C96.5882 183.699 96.5652 183.544 96.5517 183.388C96.6937 181.782 97.688 179.364 102.324 179.211L103.292 180.139C103.292 180.139 103.464 179.772 103.753 179.211C109.503 179.141 140.829 178.798 142.443 179.211C144.221 179.675 159.793 175.934 160.241 175.47C166.293 169.107 142.443 172.193 142.443 172.193C140.097 172.606 132.518 172.114 124.753 171.432C128.596 165.217 132.212 144.122 132.212 144.122C132.212 144.122 145.985 136.636 142 132.426C138.014 128.217 125.984 141.783 125.984 141.783C125.984 141.783 121.09 157.225 118.865 161.903C118.004 163.76 116.889 164.14 115.895 163.927C116.347 163.537 116.639 163.305 116.639 163.305C116.639 163.305 106.852 154.881 105.961 151.609C105.795 151.073 105.575 150.558 105.306 150.073C104.837 147.107 104.015 144.187 102.009 142.243C101.673 141.853 101.301 141.5 100.899 141.189C100.357 140.771 99.7411 140.409 99.2289 139.955C99.5173 138.525 99.853 137.04 100.202 135.601C107.467 134.673 113.114 128.175 113.114 120.285C113.113 119.095 112.982 117.909 112.723 116.753C113.808 116.83 114.894 116.603 115.875 116.094C116.855 115.584 117.697 114.811 118.318 113.847C119.786 111.489 119.738 108.278 118.507 105.79C117.999 104.78 117.332 103.872 116.536 103.107C115.268 101.73 113.721 100.687 112.017 100.062C110.54 99.51 108.909 99.1805 107.738 98.0991C107.215 97.3613 106.739 96.5859 106.314 95.7784C105.822 94.9856 105.244 94.2594 104.592 93.6156C102.44 91.2253 99.4011 89.754 96.3064 89.1042C92.5359 88.3105 88.6406 88.5937 84.8056 88.8768C83.3723 88.9835 81.6893 89.2574 81.0437 90.6034C80.5573 91.6152 80.8758 92.8265 80.8113 93.9544C80.609 97.5421 76.8041 99.524 73.4941 100.392C70.1842 101.26 66.2373 102.012 64.6404 105.159C63.1899 107.999 64.21 111.443 64.6748 114.631C65.4491 120.23 64.2962 125.941 61.4338 130.686C59.979 133.085 58.1023 135.22 56.9531 137.796C55.68 140.668 55.3844 143.931 56.1181 147.014C56.3333 147.914 56.6432 148.833 56.4883 149.752C56.3121 150.51 55.9663 151.21 55.4811 151.79C53.5019 154.425 51.0387 156.591 48.2462 158.151C45.4538 159.711 42.3924 160.631 39.2543 160.854C39.5178 161.797 40.0328 162.634 40.7349 163.263C41.6269 164.214 42.6672 164.989 43.8081 165.551C46.8138 167.177 49.9744 168.445 53.2343 169.334C55.4294 169.933 57.7236 170.36 59.9574 169.951C62.1913 169.543 64.3692 168.164 65.286 165.983C65.8198 164.721 65.8972 163.291 66.3707 162.005C67.3133 159.434 69.6505 157.768 71.2301 155.563C70.6982 161.244 70.4468 166.952 70.4769 172.662C70.4769 174.449 70.4769 176.059 70.4769 177.554C70.4769 184.001 70.0465 188.447 66.3406 196.5C65.8989 197.346 65.7053 198.317 65.7853 199.285C65.7048 199.807 65.7517 200.344 65.9215 200.841C66.0913 201.338 66.3781 201.779 66.7538 202.12C66.4955 203.727 66.3701 205.354 66.3793 206.985C66.3276 212.851 68.1655 220.727 77.9102 222.723L95.2604 221.795C95.2604 221.795 119.73 216.648 126.401 220.403C126.952 220.529 127.446 220.855 127.801 221.326C128.155 221.797 128.35 222.385 128.351 222.992C128.33 223.383 128.274 223.77 128.183 224.148C127.997 225.364 127.927 226.597 127.972 227.829C127.942 235.719 129.518 253.625 129.518 253.625V261.218C128.407 263.019 127.038 265.683 127.215 267.647C127.215 267.688 127.215 267.735 127.215 267.777C127.215 267.818 127.215 267.893 127.241 267.948C127.266 268.004 127.241 268.05 127.271 268.101C127.301 268.153 127.297 268.199 127.309 268.25C127.322 268.301 127.344 268.361 127.365 268.412C127.387 268.464 127.396 268.496 127.413 268.538C127.43 268.58 127.469 268.658 127.499 268.714L127.55 268.812C127.602 268.901 127.66 268.986 127.723 269.067C129.948 271.852 141.066 277.24 144.63 277.022C148.413 276.79 161.089 277.486 161.536 271.406C161.593 271.225 161.582 271.027 161.506 270.854Z" fill="url(#paint1_linear)"/>
<path d="M129.879 259.102C129.879 259.102 124.714 266.064 126.866 268.849C129.018 271.634 139.779 276.957 143.222 276.739C146.881 276.507 159.147 277.203 159.578 271.169C159.578 271.169 160.439 268.385 149.248 267.921C138.057 267.456 141.5 254.925 141.5 254.925L129.879 259.102Z" fill="#594C76"/>
<path opacity="0.1" d="M68.3291 200.621C68.3291 200.621 63.1641 219.651 78.6592 222.9L95.4455 221.971C95.4455 221.971 119.119 216.866 125.575 220.579C125.575 220.579 128.157 221.043 127.297 224.756C126.436 228.469 128.588 253.532 128.588 253.532V261.887C128.588 261.887 143.222 261.887 144.944 260.03C144.944 260.03 143.652 252.604 144.944 246.57C146.235 240.537 142.792 221.507 142.792 221.507L142.452 210.052C142.426 208.637 142.052 207.254 141.366 206.047C140.681 204.84 139.709 203.851 138.552 203.183C137.737 202.718 136.831 202.469 135.909 202.459C135.909 202.459 106.641 197.354 96.3106 198.282C85.9806 199.21 68.3291 200.621 68.3291 200.621Z" fill="black"/>
<path d="M68.3291 200.157C68.3291 200.157 63.1641 219.187 78.6592 222.435L95.4455 221.507C95.4455 221.507 119.119 216.402 125.575 220.115C125.575 220.115 128.157 220.579 127.297 224.292C126.436 228.005 128.588 253.068 128.588 253.068V261.423C128.588 261.423 143.222 261.423 144.944 259.566C144.944 259.566 143.652 252.14 144.944 246.106C146.235 240.073 142.792 221.043 142.792 221.043L142.452 209.588C142.426 208.173 142.052 206.79 141.366 205.583C140.681 204.376 139.709 203.387 138.552 202.719C137.737 202.253 136.831 202.005 135.909 201.995C135.909 201.995 106.641 196.89 96.3106 197.818C85.9806 198.746 68.3291 200.157 68.3291 200.157Z" fill="#8B9CD1"/>
<path d="M112.662 162.562C112.662 162.562 116.106 167.204 118.258 162.562C120.41 157.921 125.144 142.605 125.144 142.605C125.144 142.605 136.766 129.145 140.639 133.322C144.513 137.499 131.17 144.925 131.17 144.925C131.17 144.925 126.436 173.237 122.131 173.702C117.827 174.166 111.371 173.702 111.371 173.702L109.219 168.596L112.662 162.562Z" fill="#F8BDC5"/>
<path opacity="0.05" d="M112.662 162.562C112.662 162.562 116.106 167.204 118.258 162.562C120.41 157.921 125.144 142.605 125.144 142.605C125.144 142.605 136.766 129.145 140.639 133.322C144.513 137.499 131.17 144.925 131.17 144.925C131.17 144.925 126.436 173.237 122.131 173.702C117.827 174.166 111.371 173.702 111.371 173.702L109.219 168.596L112.662 162.562Z" fill="black"/>
<path d="M97.1671 139.356C97.1671 139.356 104.915 149.102 105.775 152.351C106.636 155.6 116.106 163.955 116.106 163.955C116.106 163.955 109.219 169.524 110.51 172.309C111.801 175.094 101.471 163.026 101.471 163.026L89.4196 143.997L97.1671 139.356Z" fill="#EB6475"/>
<path opacity="0.1" d="M97.1671 139.356C97.1671 139.356 104.915 149.102 105.775 152.351C106.636 155.6 116.106 163.955 116.106 163.955C116.106 163.955 109.219 169.524 110.51 172.309C111.801 175.094 101.471 163.026 101.471 163.026L89.4196 143.997L97.1671 139.356Z" fill="black"/>
<path d="M102.332 128.217C102.332 128.217 98.4584 141.677 98.4584 146.782C98.4584 151.887 82.1025 145.39 82.5329 142.605C82.9633 139.82 92.0021 129.609 92.4325 125.432C92.8629 121.255 102.332 128.217 102.332 128.217Z" fill="#F8BDC5"/>
<path opacity="0.1" d="M89.4195 137.499C89.4195 137.499 74.3549 133.322 72.2028 156.993C70.0507 180.664 73.9245 183.448 67.4682 197.837C61.0119 212.225 111.371 199.693 111.371 199.693C111.371 199.693 108.788 196.444 100.61 197.837L96.7367 185.305C96.7367 185.305 95.4454 179.735 102.763 179.735C110.08 179.735 106.636 163.491 106.636 163.491C106.636 163.491 102.763 149.567 100.61 148.174C98.4584 146.782 94.5846 138.428 89.4195 137.499Z" fill="black"/>
<path d="M89.4195 136.571C89.4195 136.571 74.3549 132.394 72.2028 156.064C70.0507 179.735 73.9245 182.52 67.4682 196.908C61.0119 211.296 111.371 198.765 111.371 198.765C111.371 198.765 108.788 195.516 100.61 196.908L96.7367 184.377C96.7367 184.377 95.4454 178.807 102.763 178.807C110.08 178.807 106.636 162.562 106.636 162.562C106.636 162.562 102.763 148.638 100.61 147.246C98.4584 145.854 94.5846 137.499 89.4195 136.571Z" fill="#EB6475"/>
<path d="M104.484 169.989C104.484 169.989 135.905 173.702 141.07 172.773C141.07 172.773 164.14 169.71 158.287 176.022C157.856 176.486 142.792 180.199 141.07 179.735C139.348 179.271 102.763 179.735 102.763 179.735L102.332 175.094L104.484 169.989Z" fill="#F8BDC5"/>
<path opacity="0.1" d="M80.3808 158.385L103.193 180.664C103.193 180.664 107.497 171.381 108.788 171.381C110.08 171.381 93.2933 143.997 93.2933 143.997C93.2933 143.997 88.9892 138.428 86.4066 141.212C83.8241 143.997 76.0766 142.141 80.3808 158.385Z" fill="black"/>
<path d="M79.9503 157.457L102.763 179.735C102.763 179.735 107.067 170.453 108.358 170.453C109.649 170.453 92.8629 143.069 92.8629 143.069C92.8629 143.069 88.5587 137.499 85.9762 140.284C83.3937 143.069 75.6462 141.212 79.9503 157.457Z" fill="#EB6475"/>
<path d="M98.4583 136.571C106.303 136.571 112.662 129.714 112.662 121.255C112.662 112.796 106.303 105.938 98.4583 105.938C90.6138 105.938 84.2545 112.796 84.2545 121.255C84.2545 129.714 90.6138 136.571 98.4583 136.571Z" fill="#F8BDC5"/>
<path opacity="0.1" d="M110.898 117.407C113.308 118.433 116.261 117.203 117.681 114.868C119.101 112.533 119.058 109.354 117.862 106.876C116.665 104.397 114.453 102.596 112.012 101.659C110.532 101.093 108.883 100.768 107.747 99.5981C107.028 98.8601 106.602 97.8622 106.064 96.9618C104.054 93.5829 100.469 91.5872 96.8229 90.8028C93.1772 90.0184 89.4068 90.2969 85.6966 90.5754C84.3106 90.6821 82.6836 90.9513 82.0552 92.288C81.5861 93.2905 81.8917 94.4926 81.8314 95.6112C81.6377 99.1711 77.9576 101.144 74.7424 101.998C71.5272 102.852 67.7997 103.655 66.233 106.792C64.8298 109.609 65.8327 113.025 66.2674 116.191C67.0108 121.72 65.8997 127.354 63.134 132.078C61.7265 134.459 59.9144 136.576 58.7997 139.133C57.5665 141.991 57.2808 145.219 57.9905 148.276C58.2014 149.172 58.4984 150.082 58.352 150.991C58.1833 151.739 57.8496 152.432 57.3793 153.01C55.4929 155.613 53.1212 157.76 50.4173 159.313C47.7134 160.865 44.7375 161.789 41.6819 162.024C42.1726 164.015 43.9588 165.273 45.659 166.201C48.5601 167.81 51.6174 169.068 54.7752 169.951C56.8972 170.545 59.1182 170.968 61.2789 170.564C63.4396 170.16 65.5443 168.791 66.4439 166.628C66.9604 165.375 67.0379 163.959 67.4941 162.678C68.5228 159.805 71.2646 158.069 72.7366 155.429C74.1441 152.904 74.6907 152.607 75.048 149.692C75.4052 146.777 76.1929 143.63 78.4139 141.918C80.7381 140.122 84.0093 140.465 86.5918 141.843C89.1744 143.222 90.7712 142.684 92.9276 144.707C96.7105 148.251 100.944 151.192 105.5 153.442C105.07 149.395 104.377 144.879 101.329 142.47C100.469 141.778 99.3796 141.249 98.9233 140.191C98.1959 138.506 99.4398 136.45 98.876 134.691C98.3121 132.932 96.1687 132.282 95.2174 130.686C94.4082 129.33 94.6278 127.488 95.3853 126.095C96.1428 124.703 97.3394 123.673 98.5317 122.698C99.5905 121.835 100.664 120.992 101.751 120.168C102.734 119.496 103.616 118.667 104.368 117.709C104.799 117.073 105.083 115.68 105.681 115.23C107.187 114.107 109.503 116.817 110.898 117.407Z" fill="black"/>
<path d="M110.467 116.943C112.878 117.968 115.83 116.739 117.251 114.404C118.671 112.069 118.628 108.89 117.431 106.412C116.235 103.933 114.022 102.132 111.582 101.195C110.101 100.628 108.453 100.304 107.317 99.134C106.598 98.396 106.172 97.3981 105.634 96.4977C103.624 93.1188 100.038 91.1231 96.3925 90.3387C92.7468 89.5543 88.9763 89.8328 85.2661 90.1113C83.8802 90.218 82.2532 90.4872 81.6248 91.8239C81.1556 92.8264 81.4612 94.0285 81.401 95.1471C81.2073 98.707 77.5272 100.68 74.312 101.534C71.0967 102.388 67.3693 103.191 65.8026 106.328C64.3994 109.145 65.4023 112.561 65.837 115.727C66.5804 121.256 65.4693 126.89 62.7036 131.614C61.2961 133.995 59.484 136.111 58.3692 138.669C57.1361 141.527 56.8504 144.754 57.56 147.812C57.771 148.708 58.0679 149.618 57.9216 150.527C57.7529 151.275 57.4192 151.968 56.9489 152.546C55.0625 155.149 52.6907 157.296 49.9868 158.849C47.2829 160.401 44.3071 161.325 41.2515 161.56C41.7421 163.551 43.5284 164.809 45.2285 165.737C48.1296 167.346 51.187 168.604 54.3448 169.487C56.4668 170.081 58.6878 170.504 60.8485 170.1C63.0092 169.696 65.1139 168.327 66.0135 166.164C66.53 164.911 66.6075 163.495 67.0637 162.214C68.0924 159.341 70.8342 157.605 72.3062 154.964C73.7137 152.44 74.2603 152.143 74.6176 149.228C74.9748 146.313 75.7625 143.166 77.9834 141.454C80.3077 139.657 83.5789 140.001 86.1614 141.379C88.7439 142.758 90.3408 142.219 92.4972 144.243C96.2801 147.787 100.514 150.728 105.07 152.978C104.639 148.931 103.946 144.415 100.899 142.006C100.038 141.314 98.9492 140.785 98.4929 139.727C97.7655 138.042 99.0094 135.986 98.4456 134.227C97.8817 132.468 95.7382 131.818 94.787 130.222C93.9778 128.866 94.1973 127.024 94.9549 125.631C95.7124 124.239 96.909 123.209 98.1012 122.234C99.1601 121.371 100.233 120.527 101.321 119.704C102.304 119.032 103.186 118.202 103.938 117.244C104.368 116.609 104.652 115.216 105.251 114.766C106.757 113.643 109.073 116.353 110.467 116.943Z" fill="#916168"/>
<g opacity="0.1">
<path opacity="0.1" d="M141.01 258.582C141.042 257.347 141.207 256.119 141.5 254.925L141.285 255.004C141.07 256.182 140.978 257.382 141.01 258.582Z" fill="white"/>
<path opacity="0.1" d="M143.222 275.811C139.779 276.029 129.018 270.705 126.866 267.92C126.583 267.543 126.41 267.085 126.367 266.602C126.304 266.994 126.315 267.395 126.401 267.781C126.487 268.167 126.645 268.531 126.866 268.849C129.018 271.633 139.779 276.957 143.222 276.739C146.881 276.507 159.147 277.203 159.578 271.169C159.61 271.003 159.589 270.829 159.518 270.677C158.532 276.238 146.79 275.583 143.222 275.811Z" fill="white"/>
</g>
<path d="M160.654 137.267H160.224V156.297H160.654V137.267Z" fill="#FFD77C" stroke="#FFAB50" stroke-width="0.25" stroke-miterlimit="10"/>
<path d="M161.084 137.267H160.654V156.297H161.084V137.267Z" fill="#FFD77C" stroke="#FFAB50" stroke-width="0.25" stroke-miterlimit="10"/>
<path d="M161.515 137.267H161.084V156.297H161.515V137.267Z" fill="#FFD77C" stroke="#FFAB50" stroke-width="0.25" stroke-miterlimit="10"/>
<path d="M161.945 137.267H161.515V156.297H161.945V137.267Z" fill="#FFD77C" stroke="#FFAB50" stroke-width="0.25" stroke-miterlimit="10"/>
<path d="M162.376 137.267H161.945V156.297H162.376V137.267Z" fill="#FFD77C" stroke="#FFAB50" stroke-width="0.25" stroke-miterlimit="10"/>
<path d="M162.806 137.267H162.376V156.297H162.806V137.267Z" fill="#FFD77C" stroke="#FFAB50" stroke-width="0.25" stroke-miterlimit="10"/>
<path d="M163.236 137.267H162.806V156.297H163.236V137.267Z" fill="#FFD77C" stroke="#FFAB50" stroke-width="0.25" stroke-miterlimit="10"/>
</g>
<defs>
<linearGradient id="paint0_linear" x1="253.039" y1="284.397" x2="253.039" y2="86.2126" gradientUnits="userSpaceOnUse">
<stop stop-color="#808080" stop-opacity="0.25"/>
<stop offset="0.54" stop-color="#808080" stop-opacity="0.12"/>
<stop offset="1" stop-color="#808080" stop-opacity="0.1"/>
</linearGradient>
<linearGradient id="paint1_linear" x1="46693.8" y1="135424" x2="46693.8" y2="58916.4" gradientUnits="userSpaceOnUse">
<stop stop-color="#808080" stop-opacity="0.25"/>
<stop offset="0.54" stop-color="#808080" stop-opacity="0.12"/>
<stop offset="1" stop-color="#808080" stop-opacity="0.1"/>
</linearGradient>
<clipPath id="clip0">
<rect width="389" height="305" fill="white"/>
</clipPath>
</defs>
</svg>
