<svg width="408" height="372" viewBox="0 0 408 372" fill="none" xmlns="http://www.w3.org/2000/svg">
<g clip-path="url(#clip0)">
<path opacity="0.1" d="M197.388 372C290.799 372 366.523 366.023 366.523 358.649C366.523 351.276 290.799 345.298 197.388 345.298C103.977 345.298 28.2524 351.276 28.2524 358.649C28.2524 366.023 103.977 372 197.388 372Z" fill="#98CECD"/>
<path opacity="0.1" d="M13.3742 42.5006C2.83494 56.5395 0.168704 74.3362 0.0234154 91.4C-0.0786791 103.433 1.36635 116.484 10.1936 125.358C21.8127 137.033 44.1204 139.334 49.877 154.253C54.9817 167.51 43.1034 180.848 31.6924 190.204C20.2813 199.56 7.17789 211.017 9.31009 224.948C10.6609 233.845 18.0706 240.828 25.4607 246.69C39.5104 257.861 55.3037 267.633 73.1074 272.387C105.409 281.001 140.297 272.083 170.565 258.58C189.197 250.269 210.829 240.069 229.332 248.616C234.217 250.873 238.363 254.282 242.867 257.106C255.963 265.269 271.956 268.276 287.522 270.827C310.336 274.581 334.312 277.713 356.294 270.944C378.276 264.174 397.273 244.376 393.908 223.26C390.735 203.367 370.536 190.401 354.441 176.813C348.763 172.019 342.983 165.665 344.396 158.69C345.519 153.159 350.805 149.307 355.517 145.733C380.318 126.815 398.546 100.698 406.925 72.0619C410.883 58.5502 412.313 42.9832 403.481 31.5894C396.358 22.3984 384.15 17.9839 372.539 14.3513C350.993 7.60887 328.909 1.91199 306.248 0.374945C283.587 -1.1621 260.176 1.76901 240.059 11.4962C230.412 16.1654 221.667 22.3135 211.925 26.8085C184.265 39.5695 151.673 37.8538 120.825 35.8386C109.803 35.1193 98.2816 33.8414 88.7122 28.3634C80.4661 23.6361 75.754 20.2493 65.5446 19.722C45.534 18.6899 24.8324 27.2106 13.3742 42.5006Z" fill="#98CECD"/>
<path d="M162.746 138.673L162.315 139.688L159.515 146.234L130.147 214.851L80.313 353.792L73.1899 353.855L123.051 214.851L157.029 135.452L159.515 136.85L162.315 138.428L162.746 138.673Z" fill="#535461"/>
<path d="M250.179 353.855L244.316 353.792L194.478 214.851L165.884 148.034L162.315 139.688L161.879 138.673L162.315 138.428L165.884 136.417L167.6 135.452L201.068 214.851L250.179 353.855Z" fill="#535461"/>
<path d="M165.888 116.788H159.515V353.855H165.888V116.788Z" fill="#535461"/>
<path d="M161.973 77.7324C159.823 77.7348 157.762 78.7076 156.242 80.4375C154.721 82.1673 153.866 84.5128 153.864 86.9591V90.2566C153.841 91.4857 154.033 92.7078 154.43 93.8511C154.827 94.9945 155.42 96.0362 156.176 96.915C156.931 97.7937 157.833 98.492 158.829 98.9687C159.825 99.4454 160.895 99.6909 161.975 99.6909C163.055 99.6909 164.125 99.4454 165.121 98.9687C166.116 98.492 167.019 97.7937 167.774 96.915C168.53 96.0362 169.123 94.9945 169.52 93.8511C169.917 92.7078 170.109 91.4857 170.086 90.2566V86.9591C170.082 84.5124 169.227 82.1669 167.706 80.4372C166.185 78.7075 164.123 77.7348 161.973 77.7324ZM168.055 90.2432C168.055 92.08 167.414 93.8416 166.273 95.1404C165.131 96.4392 163.583 97.1689 161.969 97.1689C160.355 97.1689 158.807 96.4392 157.665 95.1404C156.524 93.8416 155.883 92.08 155.883 90.2432V86.9457C155.883 85.1089 156.524 83.3474 157.665 82.0486C158.807 80.7498 160.355 80.0201 161.969 80.0201C163.583 80.0201 165.131 80.7498 166.273 82.0486C167.414 83.3474 168.055 85.1089 168.055 86.9457V90.2432Z" fill="#535461"/>
<path opacity="0.1" d="M201.067 214.851H194.478L165.884 148.034V214.851H159.515V146.233L130.147 214.851H123.051L157.029 135.452L159.515 136.85V116.788H165.884V136.417L167.6 135.452L201.067 214.851Z" fill="black"/>
<path opacity="0.1" d="M170.086 87.2898V90.2566C170.109 91.4857 169.917 92.7078 169.52 93.8511C169.123 94.9945 168.53 96.0362 167.774 96.915C167.019 97.7938 166.116 98.492 165.121 98.9687C164.125 99.4454 163.055 99.6909 161.975 99.6909C160.895 99.6909 159.825 99.4454 158.829 98.9687C157.833 98.492 156.931 97.7938 156.176 96.915C155.42 96.0362 154.827 94.9945 154.43 93.8511C154.033 92.7078 153.841 91.4857 153.864 90.2566V87.2898H155.89V90.2566C155.89 92.0934 156.532 93.855 157.673 95.1538C158.815 96.4526 160.363 97.1823 161.977 97.1823C163.591 97.1823 165.139 96.4526 166.281 95.1538C167.422 93.855 168.063 92.0934 168.063 90.2566V87.2898H170.086Z" fill="black"/>
<path d="M284.506 87.9509H39.4438V213.863H284.506V87.9509Z" fill="#535461"/>
<path d="M279.582 91.9053H43.7905V206.612H279.582V91.9053Z" fill="white"/>
<g opacity="0.2">
<path opacity="0.2" d="M78.2241 104.376H67.0762V110.153H78.2241V104.376Z" fill="#98CECD"/>
</g>
<g opacity="0.2">
<path opacity="0.2" d="M78.2241 115.551H67.0762V121.328H78.2241V115.551Z" fill="#98CECD"/>
</g>
<g opacity="0.2">
<path opacity="0.2" d="M78.2241 126.721H67.0762V132.499H78.2241V126.721Z" fill="#98CECD"/>
</g>
<g opacity="0.2">
<path opacity="0.2" d="M78.2241 137.891H67.0762V143.669H78.2241V137.891Z" fill="#98CECD"/>
</g>
<g opacity="0.2">
<path opacity="0.2" d="M78.2241 149.066H67.0762V154.843H78.2241V149.066Z" fill="#98CECD"/>
</g>
<g opacity="0.2">
<path opacity="0.2" d="M78.2241 160.237H67.0762V166.014H78.2241V160.237Z" fill="#98CECD"/>
</g>
<g opacity="0.2">
<path opacity="0.2" d="M78.2241 171.407H67.0762V177.184H78.2241V171.407Z" fill="#98CECD"/>
</g>
<g opacity="0.2">
<path opacity="0.2" d="M78.2241 182.577H67.0762V188.355H78.2241V182.577Z" fill="#98CECD"/>
</g>
<g opacity="0.2">
<path opacity="0.2" d="M99.2124 188.359H88.0645V194.136H99.2124V188.359Z" fill="#98CECD"/>
</g>
<g opacity="0.2">
<path opacity="0.2" d="M118.85 188.359H107.702V194.136H118.85V188.359Z" fill="#98CECD"/>
</g>
<g opacity="0.2">
<path opacity="0.2" d="M138.483 188.359H127.335V194.136H138.483V188.359Z" fill="#98CECD"/>
</g>
<g opacity="0.2">
<path opacity="0.2" d="M158.121 188.359H146.973V194.136H158.121V188.359Z" fill="#98CECD"/>
</g>
<g opacity="0.2">
<path opacity="0.2" d="M177.754 188.359H166.606V194.136H177.754V188.359Z" fill="#98CECD"/>
</g>
<g opacity="0.2">
<path opacity="0.2" d="M197.392 188.359H186.244V194.136H197.392V188.359Z" fill="#98CECD"/>
</g>
<g opacity="0.2">
<path opacity="0.2" d="M217.025 188.359H205.877V194.136H217.025V188.359Z" fill="#98CECD"/>
</g>
<g opacity="0.2">
<path opacity="0.2" d="M236.663 188.359H225.515V194.136H236.663V188.359Z" fill="#98CECD"/>
</g>
<g opacity="0.2">
<path opacity="0.2" d="M256.296 188.359H245.148V194.136H256.296V188.359Z" fill="#98CECD"/>
</g>
<path d="M99.2124 146.367H88.0645V182.577H99.2124V146.367Z" fill="#98CECD"/>
<path d="M118.85 129.612H107.702V182.582H118.85V129.612Z" fill="#98CECD"/>
<path d="M138.483 115.551H127.335V182.582H138.483V115.551Z" fill="#98CECD"/>
<path d="M158.121 122.838H146.973V182.577H158.121V122.838Z" fill="#98CECD"/>
<path d="M177.754 110.158H166.606V182.582H177.754V110.158Z" fill="#98CECD"/>
<g opacity="0.2">
<path opacity="0.2" d="M197.392 137.891H186.244V182.577H197.392V137.891Z" fill="#98CECD"/>
</g>
<g opacity="0.2">
<path opacity="0.2" d="M217.025 137.891H205.877V182.577H217.025V137.891Z" fill="#98CECD"/>
</g>
<g opacity="0.2">
<path opacity="0.2" d="M236.663 137.891H225.515V182.577H236.663V137.891Z" fill="#98CECD"/>
</g>
<g opacity="0.2">
<path opacity="0.2" d="M256.296 137.891H245.148V182.577H256.296V137.891Z" fill="#98CECD"/>
</g>
<path d="M243.869 137.793L148.41 144.478V146.595L245.903 142.194L243.869 137.793Z" fill="#535461"/>
<path d="M356.887 181.921C356.887 181.921 361.882 172.573 360.555 157.909C359.228 143.244 354.425 119.509 354.425 119.509C354.425 119.509 356.51 106.212 345.201 104.345C345.201 104.345 338.173 102.857 333.146 99.2598C331.277 97.9194 329.687 96.2974 328.827 94.3449C328.827 94.3449 328.76 94.5638 328.631 94.9659C328.52 94.7649 328.417 94.5576 328.324 94.3449C328.324 94.3449 328.297 94.4253 328.254 94.5683L326.334 91.1635C326.334 91.1635 326.07 91.4808 325.627 92.0036C324.855 90.7421 324.197 89.3948 323.663 87.9822C324.141 87.851 324.609 87.6808 325.065 87.4729C325.501 87.3088 325.894 87.0231 326.208 86.6418C326.483 86.207 326.661 85.7024 326.726 85.1718C327.032 83.4734 327.12 81.7335 326.985 80.0066C326.879 78.6661 326.64 77.3257 326.722 75.9629C326.809 74.5108 327.26 73.1078 327.323 71.6511C327.433 69.0864 326.314 66.6468 324.932 64.6138C324.107 63.4029 323.18 62.277 322.466 60.9812C321.845 59.8552 321.394 58.6131 320.726 57.5184C319.156 54.9716 316.536 53.4703 313.851 52.9385C311.165 52.4068 308.4 52.7375 305.71 53.2424C303.354 53.6892 300.998 54.3371 298.642 54.4935C296.585 54.6275 294.908 53.8366 293.023 55.3871C292.399 55.9108 291.88 56.5805 291.503 57.3512C291.125 58.1219 290.896 58.9757 290.832 59.8552C290.802 60.1547 290.822 60.458 290.891 60.7489C291.002 61.0502 291.134 61.3415 291.284 61.6202C292.12 63.4968 290.848 65.7264 291.013 67.8219C291.113 68.7486 291.486 69.6094 292.071 70.2647C292.655 70.9201 293.417 71.3315 294.233 71.4322C294.158 71.6109 294.076 71.7852 294.005 71.9684C292.962 74.6494 292.493 77.5737 292.636 80.501C292.78 83.4284 293.531 86.2753 294.829 88.8079C296.128 91.3405 297.935 93.4865 300.104 95.0696C302.273 96.6528 304.74 97.6279 307.305 97.9149L308.035 98.5539C309.684 100.006 311.538 101.744 313.324 103.634L313.289 103.665L312.998 103.478C312.455 103.967 311.883 104.415 311.286 104.818C309.633 105.971 306.967 107.468 303.967 107.638C303.967 107.638 298.595 110.877 296.746 121.56C294.091 124.268 288.409 129.156 280.901 130.43C270.35 132.217 257.341 132.802 257.341 132.802C257.341 132.802 257.235 133.017 257.086 133.41L255.884 133.16C255.884 133.16 255.884 133.325 255.833 133.606L255.362 133.365C251.636 131.511 244.191 128.808 243.248 136.256C241.984 146.247 250.356 145.099 250.356 145.099C252.011 144.383 253.707 143.796 255.433 143.343L255.9 143.24C255.979 143.5 256.091 143.747 256.23 143.973H257.369C257.764 144.904 258.242 145.787 258.794 146.609L285.331 145.947C285.331 145.947 289.866 144.822 294.052 145.536C292.226 161.068 290.07 178.1 290.07 178.1C290.07 178.1 285.555 205.074 288.716 207.894C290.55 207.197 292.42 206.627 294.315 206.187C294.344 207.854 294.499 209.515 294.779 211.151L296.801 226.213C296.801 226.213 297.586 241.602 300.213 250.788L302.53 263.344L304.47 272.834L305.561 288.942C307.06 295.765 308.144 302.698 308.805 309.692C309.83 320.514 315.394 338.002 316.136 340.303C314.235 343.364 310.332 348.556 305.436 349.092C298.446 349.86 298.277 354.655 303.162 356.379C308.047 358.104 318.327 356.379 318.327 356.379L332.824 352.3C332.389 355.343 332.161 357.747 332.479 358.006C333.406 358.774 347.475 362.921 347.982 356.281C348.021 355.733 348.056 355.201 348.088 354.686C348.297 350.433 347.797 346.172 346.615 342.13C346.501 341.733 346.399 341.331 346.309 340.928C346.517 340.663 346.709 340.381 346.882 340.084C346.882 340.084 347.895 322.158 348.653 315.733C348.712 315.219 348.751 314.593 348.771 313.887C349.12 306.184 346.65 285.921 346.65 285.921C346.65 285.921 343.599 272.74 343.713 266.681C343.731 266.178 343.806 265.679 343.937 265.198C343.937 265.198 343.937 265.077 343.898 264.876C343.898 264.791 343.933 264.702 343.957 264.621C343.957 264.621 342.41 252.557 342.626 245.382C342.656 244.311 342.787 243.248 343.018 242.209C343.264 240.846 343.389 239.459 343.391 238.067C343.588 233.152 343.36 224.663 343.046 216.701C343.081 216.567 343.116 216.433 343.144 216.276C343.207 215.642 343.141 215 342.951 214.399C342.928 213.886 342.908 213.376 342.885 212.871C343.014 212.367 343.12 211.83 343.215 211.276H343.419V211.308C343.419 211.308 356.62 210.588 359.656 206.562C359.656 206.562 356.589 195.718 354.889 186.903L356.887 181.921ZM299.997 148.19L299.789 148.106C300.123 146.765 300.519 145.206 300.967 143.57C300.586 145.34 300.256 146.948 299.997 148.19ZM313.395 103.737L313.454 103.799L313.391 103.759L313.395 103.737ZM329.887 336.313C329.177 333.529 326.353 322.18 326.444 316.769C326.463 316.299 326.536 315.833 326.66 315.384C326.921 314.403 327.054 313.384 327.052 312.359C327.335 306.711 325.434 296.591 325.434 296.591C325.434 296.591 321.182 282.941 321.508 272.101C321.508 271.829 321.535 271.556 321.551 271.283C321.622 270.256 321.676 269.143 321.716 267.968V267.946C321.877 263.759 321.841 258.719 321.735 254.019L321.712 253.844C321.567 247.62 321.296 242.017 321.182 239.801C321.574 243.005 324.087 262.946 325.171 266.208C325.171 266.208 325.764 275.408 328.458 283.187L331.411 303.409C331.411 303.409 332.169 327.475 333.429 334.28C333.995 337.309 334.474 339.351 334.831 340.683C334.321 343.395 333.496 347.939 332.942 351.701C332.616 349.248 331.47 339.901 329.891 336.313H329.887Z" fill="url(#paint0_linear)"/>
<path d="M317.263 336.934C317.263 336.934 312.335 347.099 305.404 347.859C298.474 348.618 298.309 353.368 303.15 355.079C307.992 356.791 318.182 355.079 318.182 355.079L332.711 350.995C332.711 350.995 330.955 334.651 328.619 333.797C326.283 332.944 317.263 336.934 317.263 336.934Z" fill="#4C4C78"/>
<path d="M334.972 337.122C334.972 337.122 331.297 355.932 332.224 356.697C333.15 357.461 347.086 361.54 347.589 354.985C347.628 354.434 347.663 353.907 347.695 353.403C347.901 349.188 347.405 344.966 346.234 340.96C345.841 339.619 345.567 338.185 345.669 337.122C345.9 334.463 334.972 337.122 334.972 337.122Z" fill="#4C4C78"/>
<path d="M330.413 98.9649C330.413 98.9649 319.14 130.474 321.146 120.354C322.474 113.652 313.894 104.747 307.961 99.5145C304.941 96.8336 302.608 95.1312 302.608 95.1312C302.608 95.1312 323.773 67.0534 322.273 79.1665C321.862 82.4841 322.261 85.8665 323.428 88.9429C325.764 95.2608 330.413 98.9649 330.413 98.9649Z" fill="#FFB9B9"/>
<path d="M258.401 143.727C257.805 143.553 256.831 143.664 255.822 143.91C254.112 144.359 252.432 144.94 250.791 145.648C250.791 145.648 242.494 146.788 243.747 136.886C244.678 129.505 252.056 132.186 255.751 134.018C257.007 134.648 257.84 135.175 257.84 135.175L258.401 143.727Z" fill="#FFB9B9"/>
<path opacity="0.1" d="M258.401 143.727C257.804 143.553 256.831 143.664 255.821 143.91C254.918 141.319 255.605 135.175 255.751 134.018C257.007 134.648 257.84 135.175 257.84 135.175L258.401 143.727Z" fill="black"/>
<path d="M258.437 134.272L256.265 133.825C256.265 133.825 255.154 142.315 256.607 144.549H259.104L258.437 134.272Z" fill="#CBCDDA"/>
<path d="M301.988 149.763C301.988 149.763 295.352 145.246 294.559 150.947C293.766 156.649 292.721 166.389 292.721 166.389L290.883 178.788L288.504 203.631L288.838 207.858C288.838 207.858 295.906 205.15 297.563 206.102C299.22 207.054 300.571 195.651 300.571 195.651L303.319 183.869L303.736 158.883L301.988 149.763Z" fill="#4C4C78"/>
<path opacity="0.1" d="M301.988 149.763C301.988 149.763 295.352 145.246 294.559 150.947C293.766 156.649 292.721 166.389 292.721 166.389L290.883 178.788L288.504 203.631L288.838 207.858C288.838 207.858 295.906 205.15 297.563 206.102C299.22 207.054 300.571 195.651 300.571 195.651L303.319 183.869L303.736 158.883L301.988 149.763Z" fill="black"/>
<path d="M298.411 120.497C298.411 120.497 291.523 129.335 281.067 131.113C270.61 132.892 257.707 133.468 257.707 133.468C257.707 133.468 254.451 140.094 259.148 147.15L285.457 146.488C285.457 146.488 291.28 145.05 295.792 146.488L298.411 120.497Z" fill="#4C4C78"/>
<path opacity="0.05" d="M298.411 120.497C298.411 120.497 291.523 129.335 281.067 131.113C270.61 132.892 257.707 133.468 257.707 133.468C257.707 133.468 254.451 140.094 259.148 147.15L285.457 146.488C285.457 146.488 291.28 145.05 295.792 146.488L298.411 120.497Z" fill="black"/>
<path opacity="0.1" d="M322.313 88.6703C319.745 94.9257 315.28 99.5368 308.805 99.5368C308.518 99.5368 308.239 99.5368 307.961 99.5145C304.941 96.8336 302.608 95.1312 302.608 95.1312C302.608 95.1312 323.773 67.0534 322.273 79.1665C321.81 82.8751 321.28 85.8866 322.313 88.6703Z" fill="black"/>
<path d="M324.936 80.6055C324.933 84.2363 323.985 87.7848 322.211 90.8023C320.436 93.8199 317.915 96.171 314.966 97.5584C312.018 98.9458 308.774 99.3072 305.644 98.5969C302.515 97.8867 299.641 96.1366 297.386 93.568C295.131 90.9993 293.596 87.7275 292.975 84.1662C292.354 80.6048 292.674 76.9139 293.896 73.56C295.119 70.206 297.187 67.3398 299.841 65.3235C302.495 63.3073 305.614 62.2316 308.805 62.2325C310.926 62.2277 313.026 62.6999 314.986 63.6218C316.946 64.5436 318.727 65.8971 320.226 67.6044C321.725 69.3116 322.913 71.3391 323.721 73.5702C324.529 75.8013 324.942 78.1922 324.936 80.6055Z" fill="#FFB9B9"/>
<path d="M334.795 192.801C334.795 192.801 298.811 196.415 297.492 191.188C296.172 185.96 301.163 171.805 301.163 171.805L299.537 152.042L299.479 151.287C299.479 151.287 303.986 129.907 303.821 128.2C303.664 126.663 311.078 108.724 312.602 105.055C312.782 104.631 312.876 104.398 312.876 104.398L313.163 104.586L313.289 104.671L315.052 105.842L322.014 103.965L330.405 98.9651L331.191 153.66L334.795 192.801Z" fill="#CBCDDA"/>
<path opacity="0.1" d="M316.093 105.059C316.093 105.059 313.631 104.3 312.668 107.101C312.292 108.306 311.846 109.48 311.333 110.618L310.375 117.123L308.62 127.4L307.324 172.864L307.909 180.938L311.125 174.432L311.71 131.935V126.65C311.899 122.079 312.806 117.585 314.388 113.379L314.836 112.186L317.632 108.098L316.093 105.059Z" fill="black"/>
<path d="M315.594 104.488C315.594 104.488 313.128 103.728 312.17 106.53C311.793 107.734 311.345 108.909 310.831 110.046L309.873 116.556L308.118 126.833L306.826 172.296L307.411 180.375L310.627 173.847L311.212 131.377V126.078C311.404 121.508 312.311 117.014 313.89 112.807L314.341 111.614L317.137 107.531L315.594 104.488Z" fill="#4C4C78"/>
<path opacity="0.1" d="M326.114 92.7542C326.114 92.7542 317.597 103.031 314.589 104.251C314.589 104.251 316.093 112.043 317.597 113.562C317.597 113.562 326.534 103.192 328.116 102.352L329.444 98.6566L326.114 92.7542Z" fill="black"/>
<path d="M326.114 92.1689C326.114 92.1689 317.597 102.446 314.589 103.665C314.589 103.665 316.093 111.458 317.597 112.977C317.597 112.977 326.534 102.607 328.116 101.767L329.444 98.0758L326.114 92.1689Z" fill="#CBCDDA"/>
<path opacity="0.1" d="M313.375 104.398L313.289 104.666L310.56 112.99L305.679 128.696C305.679 128.696 305.636 128.857 305.549 129.143C304.74 132.002 300.393 147.52 299.537 152.029L299.479 151.274C299.479 151.274 303.986 129.893 303.821 128.187C303.664 126.65 311.078 108.71 312.602 105.042C312.845 104.854 313.034 104.693 313.163 104.572L313.375 104.398Z" fill="black"/>
<path d="M312.877 104.394L310.057 112.991L305.176 128.696C305.176 128.696 305.133 128.857 305.047 129.143C304.191 132.19 299.31 149.585 298.917 152.766C298.474 156.26 292.336 175.147 292.336 175.147L288.83 207.849C285.688 205.075 290.149 178.359 290.149 178.359C290.149 178.359 295.159 138.74 296.345 125.559C297.531 112.378 303.928 108.527 303.928 108.527C306.881 108.357 309.543 106.874 311.18 105.734C311.772 105.331 312.338 104.884 312.877 104.394Z" fill="#4C4C78"/>
<path opacity="0.1" d="M348.237 314.794C347.487 321.161 346.485 338.922 346.485 338.922C342.979 344.905 335.212 341.675 335.212 341.675C335.212 341.675 334.379 339.887 333.127 333.123C331.874 326.358 331.124 302.529 331.124 302.529L328.199 282.512C325.529 274.813 324.943 265.694 324.943 265.694C323.765 262.177 320.934 239.09 320.934 239.09C320.934 239.09 322.112 259.8 321.354 270.729C320.597 281.659 325.191 296.363 325.191 296.363C325.191 296.363 327.782 310.143 326.443 314.419C325.104 318.695 329.785 336.362 329.785 336.362C329.392 341.496 316.097 339.405 316.097 339.405C316.097 339.405 309.841 320.303 308.746 308.807C308.089 301.88 307.015 295.013 305.53 288.253L304.446 272.289L302.522 262.852L300.229 250.408C297.637 241.289 296.848 226.039 296.848 226.039L294.841 211.075C293.53 203.676 295.234 194.99 296.365 190.446C296.856 188.475 297.248 187.273 297.248 187.273C298.399 188.203 304.988 189.293 308.396 190.178C310.262 190.667 312.18 190.842 314.09 190.696C322.707 189.917 331.232 188.139 339.531 185.388C340.093 185.196 340.391 185.084 340.391 185.084L340.568 186.795L340.984 190.87L341.726 198.104C341.726 198.104 343.98 236.678 342.645 241.892C341.31 247.106 343.564 264.68 343.564 264.68C342.311 268.848 346.234 285.792 346.234 285.792C346.234 285.792 348.991 308.427 348.237 314.794Z" fill="black"/>
<path d="M348.237 314.236C347.487 320.603 346.485 338.364 346.485 338.364C342.979 344.351 335.212 341.116 335.212 341.116C335.212 341.116 334.379 339.329 333.127 332.569C331.874 325.808 331.124 301.971 331.124 301.971L328.199 281.927C325.548 274.228 324.943 265.086 324.943 265.086C323.765 261.57 320.934 238.483 320.934 238.483C320.934 238.483 322.112 259.193 321.354 270.122C320.597 281.051 325.191 295.773 325.191 295.773C325.191 295.773 327.782 309.553 326.443 313.829C325.104 318.105 329.785 335.777 329.785 335.777C329.392 340.906 316.097 338.815 316.097 338.815C316.097 338.815 309.841 319.736 308.746 308.235C308.089 301.308 307.015 294.441 305.53 287.682L304.446 271.721L302.522 262.316L300.229 249.872C297.637 240.748 296.848 225.498 296.848 225.498L294.841 210.535C293.53 203.135 295.234 194.449 296.365 189.905C296.856 187.939 297.248 186.737 297.248 186.737C298.399 187.667 304.988 188.752 308.396 189.637C310.261 190.128 312.18 190.303 314.09 190.155C322.707 189.377 331.232 187.598 339.531 184.847L340.391 184.548L340.568 186.255L340.984 190.334L341.726 197.568C341.726 197.568 343.98 236.137 342.645 241.356C341.31 246.575 343.564 264.143 343.564 264.143C342.311 268.308 346.234 285.251 346.234 285.251C346.234 285.251 348.991 307.86 348.237 314.236Z" fill="#474463"/>
<path opacity="0.1" d="M324.936 80.6053C324.941 83.8159 324.204 86.9715 322.8 89.7561C320.287 90.261 317.612 89.7025 315.732 87.8125C314.444 86.5212 313.611 84.7562 312.504 83.2594C311.787 82.3396 311.017 81.4753 310.199 80.6724C309.665 80.0668 309.051 79.5589 308.381 79.1666C308.043 78.9727 307.672 78.8695 307.294 78.8649C306.916 78.8602 306.542 78.9543 306.201 79.1398C305.314 79.7028 305.023 80.9583 304.509 81.9592C304.122 82.8184 303.46 83.4758 302.66 83.7956C302.259 83.9413 301.828 83.937 301.431 83.7834C301.033 83.6298 300.688 83.3349 300.449 82.9422C299.903 81.8743 300.303 80.2077 299.389 79.5553C299.147 79.4197 298.898 79.3033 298.642 79.2068C297.464 78.5991 297.327 76.7985 297.225 75.324C297.174 74.6001 297.036 73.7825 296.502 73.3937C295.968 73.005 295.266 73.2016 294.629 73.215C294.441 73.2235 294.253 73.207 294.068 73.1659C295.567 69.3194 298.183 66.1758 301.476 64.2614C304.769 62.3469 308.54 61.7778 312.158 62.6493C315.776 63.5208 319.021 65.78 321.35 69.0488C323.679 72.3175 324.95 76.3973 324.951 80.6053H324.936Z" fill="black"/>
<path d="M293.078 56.7275C292.458 57.2481 291.943 57.9139 291.569 58.6801C291.194 59.4462 290.968 60.2949 290.906 61.1689C290.877 61.4609 290.897 61.7567 290.965 62.0402C291.075 62.341 291.206 62.6309 291.358 62.907C292.183 64.7702 290.922 66.9775 291.083 69.0551C291.192 70.0367 291.611 70.9398 292.261 71.5971C292.91 72.2544 293.748 72.6213 294.617 72.6297C295.253 72.6297 295.952 72.4152 296.49 72.8084C297.028 73.2016 297.162 74.0148 297.213 74.7386C297.315 76.2131 297.444 78.0138 298.626 78.6214C298.881 78.7202 299.13 78.8366 299.372 78.97C300.291 79.6223 299.891 81.2934 300.437 82.3568C300.676 82.7495 301.02 83.0444 301.418 83.198C301.816 83.3516 302.247 83.3559 302.647 83.2102C303.446 82.8917 304.107 82.2358 304.493 81.3783C304.999 80.373 305.302 79.1442 306.189 78.5589C306.53 78.3717 306.903 78.2763 307.281 78.2802C307.659 78.2841 308.031 78.3871 308.369 78.5812C309.039 78.9751 309.653 79.4846 310.187 80.0915C311.006 80.8932 311.776 81.7576 312.492 82.6785C313.599 84.1709 314.431 85.9358 315.719 87.2271C318.146 89.6533 321.861 89.908 324.853 88.5095C325.285 88.3456 325.675 88.0632 325.988 87.6873C326.261 87.255 326.437 86.7536 326.502 86.2262C326.806 84.5442 326.893 82.8208 326.761 81.1102C326.655 79.7698 326.416 78.4293 326.498 77.0889C326.581 75.6501 327.032 74.2605 327.095 72.8218C327.205 70.275 326.094 67.8577 324.739 65.8425C323.922 64.6406 323.003 63.5281 322.297 62.2412C321.68 61.1242 321.232 59.8954 320.573 58.8142C319.026 56.2897 316.418 54.7928 313.756 54.27C311.094 53.7473 308.357 54.069 305.691 54.5739C303.366 55.0207 301.026 55.6552 298.67 55.8116C296.608 55.9769 294.947 55.186 293.078 56.7275Z" fill="#472727"/>
<path opacity="0.1" d="M312.877 104.394L310.057 112.991L305.176 128.696C305.176 128.696 305.133 128.857 305.047 129.143V129.165L311.188 105.725C311.777 105.325 312.341 104.88 312.877 104.394Z" fill="black"/>
<path d="M343.356 202.778C343.356 202.778 343.647 213.18 341.185 215.794L334.631 201.732L340.128 198.689L343.356 202.778Z" fill="#FFB9B9"/>
<path opacity="0.1" d="M358.654 206.576C355.646 210.566 342.554 211.281 342.554 211.281L329.596 188.046C329.596 188.046 326.53 185.625 320.769 174.718C315.009 163.811 315.197 155.411 315.519 149.138C315.841 142.864 319.446 124.835 319.446 124.835C320.007 120.778 328.085 95.3457 328.085 95.3457C328.933 97.2715 330.511 98.88 332.357 100.207C337.344 103.782 344.306 105.247 344.306 105.247C355.521 107.101 353.451 120.282 353.451 120.282C353.451 120.282 353.577 171.519 352.886 177.649C352.195 183.779 358.654 206.576 358.654 206.576Z" fill="black"/>
<path d="M343.525 204.771L343.148 208.573L338.596 206.674L335.259 200.924L337.764 198.689L343.525 204.771Z" fill="#CBCDDA"/>
<path opacity="0.1" d="M343.364 190.044L340.984 190.321L318.04 192.93C314.356 193.351 310.637 193.143 307.006 192.313L296.365 189.892C296.856 187.926 297.248 186.724 297.248 186.724C298.399 187.653 304.988 188.739 308.396 189.624C310.261 190.115 312.18 190.29 314.09 190.142C322.707 189.363 331.232 187.585 339.531 184.834L340.568 186.241L343.364 190.044Z" fill="black"/>
<g opacity="0.1">
<path opacity="0.1" d="M297.488 186.867C297.412 186.824 297.339 186.777 297.268 186.724C297.268 186.724 297.268 186.751 297.245 186.791L297.488 186.867Z" fill="black"/>
<path opacity="0.1" d="M346.254 285.247C346.254 285.247 342.327 268.303 343.584 264.139C343.584 264.139 341.33 246.579 342.669 241.351C344.008 236.124 341.746 197.564 341.746 197.564L341.004 190.33L340.588 186.25L340.415 184.543L339.551 184.843L339.017 185.022L339.084 185.683L339.5 189.758L340.242 196.992C340.242 196.992 342.496 235.565 341.165 240.78C339.834 245.994 342.08 263.567 342.08 263.567C340.827 267.736 344.75 284.675 344.75 284.675C344.75 284.675 347.499 307.292 346.757 313.655C346.014 320.018 345.001 337.783 345.001 337.783C342.441 342.157 337.607 341.612 335.185 341L335.228 341.107C335.228 341.107 342.995 344.342 346.501 338.355C346.501 338.355 347.503 320.585 348.257 314.227C349.011 307.869 346.254 285.247 346.254 285.247Z" fill="black"/>
<path opacity="0.1" d="M326.467 313.847C327.802 309.571 325.215 295.791 325.215 295.791C325.215 295.791 320.624 281.046 321.374 270.14C321.688 265.587 321.669 259.34 321.535 253.608C320.471 246.213 319.45 237.969 319.45 237.969C319.45 237.969 320.628 258.679 319.874 269.603C319.12 280.528 323.711 295.26 323.711 295.26C323.711 295.26 326.302 309.035 324.963 313.311C323.624 317.587 328.297 335.236 328.297 335.236C327.963 339.347 319.383 338.811 315.979 338.453L316.109 338.846C316.109 338.846 329.385 340.937 329.801 335.808C329.809 335.795 325.132 318.123 326.467 313.847Z" fill="black"/>
</g>
<path d="M359.153 206.576C356.149 210.566 343.053 211.281 343.053 211.281L330.095 188.046C330.095 188.046 327.028 185.625 321.264 174.718C315.5 163.811 315.696 155.411 316.014 149.138C316.332 142.864 319.941 124.835 319.941 124.835C320.502 120.778 328.58 95.3457 328.58 95.3457C329.424 97.2715 331.002 98.88 332.852 100.207C337.839 103.782 344.801 105.247 344.801 105.247C356.012 107.101 353.942 120.282 353.942 120.282C353.942 120.282 354.068 171.519 353.377 177.649C352.686 183.779 359.153 206.576 359.153 206.576Z" fill="#4C4C78"/>
<path opacity="0.1" d="M330.979 107.955L328.159 109.148L330.036 110.645L316.018 149.125C316.344 142.869 319.945 124.822 319.945 124.822C320.506 120.765 328.584 95.3325 328.584 95.3325C329.428 97.2583 331.006 98.8668 332.856 100.194L330.979 107.955Z" fill="black"/>
<path opacity="0.1" d="M334.36 176.505L348.7 172.301L350.581 178.927L335.927 182.993L334.36 176.505Z" fill="black"/>
<path opacity="0.1" d="M342.563 110.663C342.563 110.663 336.048 117.637 338.506 133.182C340.964 148.727 344.895 165.603 344.895 165.603L334.293 199.025C334.293 199.025 341.683 207.791 345.315 208.855L355.898 182.131C355.898 182.131 360.845 172.868 359.53 158.333C358.215 143.798 353.455 120.278 353.455 120.278C353.455 120.278 353.459 105.962 342.563 110.663Z" fill="black"/>
<path d="M343.061 110.663C343.061 110.663 336.543 117.637 338.993 133.182C341.443 148.727 345.378 165.603 345.378 165.603L334.776 199.025C334.776 199.025 342.166 207.791 345.798 208.855L356.4 182.131C356.4 182.131 361.348 172.868 360.032 158.333C358.717 143.798 353.958 120.278 353.958 120.278C353.958 120.278 353.958 105.962 343.061 110.663Z" fill="#4C4C78"/>
<path opacity="0.1" d="M335.129 199.735C335.129 199.735 343.395 212.755 342.771 216.223C342.146 219.69 339.724 217.836 339.724 217.836L336.468 212.755L333.543 203.252C333.543 203.252 333.83 199.15 335.129 199.735Z" fill="black"/>
<path opacity="0.1" d="M334.128 199.735C334.128 199.735 342.374 212.755 341.769 216.223C341.165 219.69 338.722 217.836 338.722 217.836L335.463 212.755L332.542 203.252C332.542 203.252 332.828 199.15 334.128 199.735Z" fill="black"/>
<path d="M334.631 199.735C334.631 199.735 342.877 212.755 342.268 216.223C341.66 219.69 339.221 217.836 339.221 217.836L335.966 212.755L333.044 203.252C333.044 203.252 333.327 199.15 334.631 199.735Z" fill="#474463"/>
</g>
<defs>
<linearGradient id="paint0_linear" x1="301.937" y1="360.012" x2="301.937" y2="52.6615" gradientUnits="userSpaceOnUse">
<stop stop-color="#808080" stop-opacity="0.25"/>
<stop offset="0.54" stop-color="#808080" stop-opacity="0.12"/>
<stop offset="1" stop-color="#808080" stop-opacity="0.1"/>
</linearGradient>
<clipPath id="clip0">
<rect width="410" height="372" fill="white"/>
</clipPath>
</defs>
</svg>
