<svg width="333" height="289" viewBox="0 0 333 289" fill="none" xmlns="http://www.w3.org/2000/svg">
<g clip-path="url(#clip0)">
<path d="M333 173.86C333 224.356 308.192 241.987 277.589 241.987C246.986 241.987 222.177 224.356 222.177 173.86C222.177 123.365 277.589 59.1272 277.589 59.1272C277.589 59.1272 333 123.365 333 173.86Z" fill="#F2F2F2"/>
<path d="M275.57 234.263L276.138 192.003L299.755 139.721L276.227 185.373L276.482 166.371L292.759 128.546L276.549 161.343V161.343L277.008 127.167L294.438 97.0535L277.08 121.793L277.367 59.1272L275.565 142.086L275.713 138.663L257.992 105.842L275.429 145.233L273.778 183.401L273.729 182.388L253.299 147.848L273.667 185.967L273.46 190.74L273.423 190.812L273.44 191.204L269.251 288.041H274.848L275.52 238.023L295.837 199.997L275.57 234.263Z" fill="#3F3D56"/>
<path d="M29.969 257.517C29.969 271.172 23.2602 275.94 14.9845 275.94C6.70881 275.94 0 271.172 0 257.517C0 243.861 14.9845 226.49 14.9845 226.49C14.9845 226.49 29.969 243.861 29.969 257.517Z" fill="#F2F2F2"/>
<path d="M14.4388 273.851L14.592 262.423L20.9788 248.284L14.6161 260.63L14.6851 255.491L19.0869 245.262L14.7035 254.131L14.8275 244.889L19.5411 236.746L14.8472 243.436L14.9246 226.49L14.4375 248.924L14.4772 247.998L9.6851 239.123L14.4004 249.775L13.954 260.096L13.9408 259.823L8.41624 250.482L13.9238 260.79L13.8681 262.081L13.8582 262.1L13.8626 262.206L12.7297 288.394H14.2435L14.4249 274.867L19.9195 264.584L14.4388 273.851Z" fill="#3F3D56"/>
<path d="M2.11194 288.441H303.784" stroke="#3F3D56" stroke-width="2" stroke-miterlimit="10"/>
<path d="M303.945 276.154C303.945 285.391 299.407 288.615 293.81 288.615C293.68 288.615 293.55 288.614 293.421 288.61C293.162 288.604 292.905 288.589 292.651 288.568C287.599 288.135 283.674 284.744 283.674 276.154C283.674 267.265 293.062 256.048 293.768 255.218L293.769 255.217C293.796 255.184 293.81 255.169 293.81 255.169C293.81 255.169 303.945 266.918 303.945 276.154Z" fill="#98CECD"/>
<path d="M293.44 287.203L297.147 280.935L293.431 287.891L293.421 288.61C293.162 288.604 292.905 288.589 292.651 288.568L293.051 279.327L293.048 279.255L293.054 279.242L293.092 278.369L289.367 271.396L293.104 277.715L293.112 277.9L293.414 270.918L290.225 263.713L293.453 269.693L293.768 255.218L293.769 255.169V255.217L293.716 266.631L296.892 262.106L293.703 267.614L293.619 273.865L296.584 267.866L293.607 274.785L293.56 278.26L297.864 269.91L293.544 279.473L293.44 287.203Z" fill="#3F3D56"/>
<path d="M195.881 65.4021H193.935C193.505 65.4021 193.156 65.8239 193.156 66.3441V99.4091C193.156 99.9294 193.505 100.351 193.935 100.351H195.881C196.311 100.351 196.66 99.9294 196.66 99.4091V66.3441C196.66 65.8239 196.311 65.4021 195.881 65.4021Z" fill="#3F3D56"/>
<path d="M78.1499 38.0225H77.2053C76.9232 38.0225 76.6946 38.2991 76.6946 38.6404V48.91C76.6946 49.2513 76.9232 49.528 77.2053 49.528H78.1499C78.432 49.528 78.6606 49.2513 78.6606 48.91V38.6404C78.6606 38.2991 78.432 38.0225 78.1499 38.0225Z" fill="#3F3D56"/>
<path d="M78.2637 59.0869H77.1988C76.8809 59.0869 76.6231 59.3988 76.6231 59.7835V78.4168C76.6231 78.8015 76.8809 79.1134 77.1988 79.1134H78.2637C78.5816 79.1134 78.8394 78.8015 78.8394 78.4168V59.7835C78.8394 59.3988 78.5816 59.0869 78.2637 59.0869Z" fill="#3F3D56"/>
<path d="M78.2201 86.1206H77.2067C76.9041 86.1206 76.6588 86.4174 76.6588 86.7835V105.657C76.6588 106.023 76.9041 106.32 77.2067 106.32H78.2201C78.5226 106.32 78.7679 106.023 78.7679 105.657V86.7835C78.7679 86.4174 78.5226 86.1206 78.2201 86.1206Z" fill="#3F3D56"/>
<path d="M182.921 0H89.9341C83.2371 0 77.8081 6.56916 77.8081 14.6726V273.639C77.8081 281.743 83.2371 288.312 89.9341 288.312H182.921C189.618 288.312 195.047 281.743 195.047 273.639V14.6726C195.047 6.56916 189.618 0 182.921 0Z" fill="#3F3D56"/>
<path d="M140.627 8.60986H125.982C125.505 8.60986 125.118 9.07768 125.118 9.65475V11.5876C125.118 12.1647 125.505 12.6325 125.982 12.6325H140.627C141.104 12.6325 141.49 12.1647 141.49 11.5876V9.65475C141.49 9.07768 141.104 8.60986 140.627 8.60986Z" fill="#E6E8EC"/>
<path d="M145.851 12.9029C146.893 12.9029 147.737 11.8813 147.737 10.6212C147.737 9.36112 146.893 8.3396 145.851 8.3396C144.81 8.3396 143.966 9.36112 143.966 10.6212C143.966 11.8813 144.81 12.9029 145.851 12.9029Z" fill="#E6E8EC"/>
<path d="M187.807 18.7776V269.537C187.807 272.525 186.825 275.39 185.079 277.502C183.333 279.614 180.965 280.801 178.496 280.8H94.3602C91.8911 280.801 89.5229 279.614 87.7766 277.502C86.0303 275.39 85.049 272.525 85.0485 269.537V18.7776C85.0484 17.2979 85.2892 15.8327 85.7571 14.4656C86.225 13.0986 86.9109 11.8564 87.7756 10.8101C88.6403 9.76381 89.6669 8.93386 90.7967 8.36767C91.9265 7.80148 93.1374 7.51013 94.3602 7.51025H106.95V9.46693C106.951 11.9273 107.759 14.2868 109.197 16.0265C110.635 17.7663 112.584 18.744 114.618 18.7447H157.406C159.439 18.7447 161.389 17.7672 162.827 16.0273C164.265 14.2874 165.073 11.9276 165.073 9.46693V7.51025H178.496C179.718 7.51013 180.929 7.80148 182.059 8.36767C183.189 8.93386 184.215 9.76381 185.08 10.8101C185.945 11.8564 186.631 13.0986 187.099 14.4656C187.567 15.8327 187.807 17.2979 187.807 18.7776Z" fill="white"/>
<path d="M187.865 65.6421H84.9296V208.694H187.865V65.6421Z" fill="#F2F2F2"/>
<path d="M92.4034 228.488L91.8615 227.897C89.937 225.759 88.6665 224.371 88.6665 222.642C88.6617 222.313 88.7116 221.987 88.813 221.682C88.9144 221.376 89.0655 221.099 89.2571 220.866C89.4487 220.632 89.6771 220.448 89.9287 220.323C90.1803 220.199 90.45 220.137 90.7218 220.14C91.0426 220.142 91.3592 220.229 91.6496 220.394C91.94 220.559 92.1972 220.798 92.4034 221.096C92.6097 220.798 92.8669 220.559 93.1573 220.394C93.4477 220.229 93.7643 220.142 94.0851 220.14C94.3569 220.137 94.6266 220.199 94.8782 220.323C95.1298 220.448 95.3581 220.632 95.5498 220.866C95.7414 221.099 95.8924 221.376 95.9939 221.682C96.0953 221.987 96.1451 222.313 96.1404 222.642C96.1404 224.371 94.8698 225.759 92.9454 227.897L92.4034 228.488Z" fill="#FF6584"/>
<path d="M112.051 226.301L113.098 226.663C113.285 226.007 113.601 225.415 114.02 224.94C114.438 224.465 114.945 224.12 115.498 223.935C116.052 223.75 116.634 223.731 117.194 223.88C117.755 224.028 118.277 224.339 118.716 224.787L117.116 226.663H121.11V221.965L119.5 223.832C118.925 223.222 118.233 222.793 117.487 222.585C116.742 222.377 115.965 222.397 115.226 222.641C114.488 222.886 113.812 223.348 113.258 223.987C112.703 224.626 112.289 225.421 112.051 226.301L112.051 226.301Z" fill="#F2F2F2"/>
<path d="M91.724 54.9545C94.3507 54.9545 96.4801 52.3779 96.4801 49.1995C96.4801 46.0212 94.3507 43.4446 91.724 43.4446C89.0973 43.4446 86.9679 46.0212 86.9679 49.1995C86.9679 52.3779 89.0973 54.9545 91.724 54.9545Z" fill="#98CECD"/>
<path d="M144.381 45.9109H100.217V52.488H144.381V45.9109Z" fill="#98CECD"/>
<path d="M132.83 238.291H88.6665V244.868H132.83V238.291Z" fill="#F2F2F2"/>
<path d="M182.09 252.629H88.6665V259.206H182.09V252.629Z" fill="#F2F2F2"/>
<path d="M107.691 228.072L106.521 225.594C106.8 224.781 106.828 223.873 106.599 223.037C106.37 222.201 105.899 221.493 105.272 221.044C104.646 220.595 103.907 220.434 103.191 220.592C102.475 220.749 101.83 221.215 101.374 221.902C100.919 222.589 100.684 223.452 100.713 224.332C100.741 225.212 101.031 226.05 101.53 226.692C102.029 227.334 102.702 227.736 103.426 227.826C104.15 227.915 104.877 227.684 105.472 227.177L107.691 228.072Z" fill="#F2F2F2"/>
<path d="M127.688 99.1918H127.688C125.939 99.6247 124.279 100.47 122.801 101.679C121.322 102.889 120.055 104.439 119.072 106.241C118.089 108.043 117.409 110.062 117.07 112.182C116.732 114.302 116.741 116.482 117.099 118.597L119.904 135.18L123.044 134.402L123.265 132.645L123.923 134.185L143.013 129.457L143.235 127.7L143.892 129.24L146.53 128.587L143.725 112.004C143.367 109.889 142.669 107.879 141.669 106.09C140.67 104.302 139.389 102.769 137.899 101.579C136.41 100.389 134.742 99.566 132.99 99.1564C131.238 98.7468 129.436 98.7588 127.688 99.1918Z" fill="#2F2E41"/>
<path d="M151.345 150.067L167.652 161.988L165.613 167.743L150.326 159.111L151.345 150.067Z" fill="#9F616A"/>
<path d="M130.622 163.633C130.622 163.633 97.6691 163.633 92.2336 173.909C86.798 184.186 91.2144 198.573 108.2 201.862C125.187 205.15 176.824 206.795 180.901 194.463C184.977 182.131 181.92 175.142 181.92 175.142C181.92 175.142 164.254 160.344 130.622 163.633Z" fill="#98CECD"/>
<path d="M159.838 173.498L177.843 181.72C177.843 181.72 185.317 175.142 181.58 167.743C177.843 160.344 160.857 117.593 160.857 117.593C160.857 117.593 156.101 109.372 162.216 104.85C168.331 100.328 170.709 107.727 170.709 107.727C170.709 107.727 170.369 109.372 172.747 108.138C175.125 106.905 179.542 111.016 177.164 117.593C174.786 124.17 173.087 125.814 178.183 125.403C180.023 125.255 181.642 123.659 182.959 121.681C185.484 117.889 184.356 114.834 184.165 109.97C183.838 101.638 183.303 96.2054 181.58 92.9289C179.202 88.4071 175.805 84.7075 166.972 86.7629C158.139 88.8182 145.23 99.0949 148.288 113.893C151.345 128.692 158.139 145.134 158.139 145.134C158.139 145.134 162.896 168.154 159.838 173.498Z" fill="#98CECD"/>
<path opacity="0.1" d="M159.838 173.498C156.903 174.476 153.217 174.953 149.249 175.101C142.325 175.36 134.532 174.62 128.309 173.782C121.585 172.873 116.693 171.854 116.693 171.854C118.966 169.289 122.459 168.273 126.562 167.904C131.658 167.443 137.698 167.969 143.531 167.743C145.682 167.652 147.834 167.848 149.949 168.327C156.383 169.811 159.838 173.498 159.838 173.498Z" fill="black"/>
<path d="M130.452 129.308C135.706 129.308 139.964 124.155 139.964 117.798C139.964 111.442 135.706 106.289 130.452 106.289C125.199 106.289 120.94 111.442 120.94 117.798C120.94 124.155 125.199 129.308 130.452 129.308Z" fill="#9F616A"/>
<path d="M129.263 127.047C129.263 127.047 130.962 134.858 129.263 135.269C127.565 135.68 123.488 137.735 123.488 137.735L128.584 140.202L138.096 150.889L146.249 155.822L150.326 154.178V145.134L144.211 133.624C144.211 133.624 140.134 135.269 139.115 129.925C138.096 124.581 136.058 122.526 136.058 122.526L129.263 127.047Z" fill="#9F616A"/>
<path d="M126.885 138.146H122.808C122.808 138.146 115.674 141.024 111.598 147.601C107.521 154.178 101.066 160.755 101.066 160.755C101.066 160.755 96.65 168.154 99.028 178.431C101.406 188.708 104.803 196.107 107.861 194.051C110.918 191.996 103.444 177.198 103.444 177.198L105.483 168.154C105.483 168.154 116.014 153.356 120.43 153.767C124.847 154.178 125.187 158.7 125.187 158.7L134.699 161.988L137.756 154.178L136.058 145.957L126.885 138.146Z" fill="#9F616A"/>
<path d="M151.345 164.044C150.703 165.377 150.232 166.822 149.949 168.327C149.525 170.55 149.29 172.82 149.249 175.101C142.325 175.36 134.532 174.62 128.309 173.782C127.758 172.006 127.154 169.963 126.562 167.904C124.969 162.338 123.488 156.657 123.488 155.822C123.488 154.178 130.622 157.056 132.321 156.644C134.019 156.233 134.699 149.656 132.321 146.368C129.943 143.079 122.978 137.53 122.978 137.53L125.356 136.708C125.356 136.708 130.622 141.435 141.493 149.245C152.364 157.056 147.948 144.723 147.948 144.723L141.663 133.008H144.381C144.381 133.008 149.646 143.901 152.364 148.834C155.082 153.767 154.063 158.7 151.345 164.044Z" fill="#3F3D56"/>
<path d="M137.183 102.271L119.955 106.537L122.118 119.329L139.347 115.063L137.183 102.271Z" fill="#2F2E41"/>
<path d="M174.276 103.822C177.091 103.822 179.372 101.062 179.372 97.6563C179.372 94.2509 177.091 91.4902 174.276 91.4902C171.462 91.4902 169.18 94.2509 169.18 97.6563C169.18 101.062 171.462 103.822 174.276 103.822Z" fill="#3F3D56"/>
<path d="M174.276 100.945C175.777 100.945 176.994 99.4724 176.994 97.6562C176.994 95.84 175.777 94.3677 174.276 94.3677C172.775 94.3677 171.558 95.84 171.558 97.6562C171.558 99.4724 172.775 100.945 174.276 100.945Z" fill="white"/>
<path d="M24.7099 168.83L24.3626 172.074C24.2451 173.172 24.1275 174.271 24.0642 175.376C23.8537 179.051 24.2461 182.74 24.1428 186.422C24.0633 189.256 23.6901 192.089 23.8704 194.916C24.0298 197.417 24.6182 199.845 25.2031 202.252L26.0393 205.692C26.0461 205.795 26.0724 205.894 26.1162 205.983C26.16 206.071 26.2201 206.146 26.2918 206.202C26.3634 206.258 26.4448 206.293 26.5295 206.304C26.6142 206.316 26.6999 206.304 26.7801 206.269L30.4802 205.863C30.2432 204.548 29.9797 203.178 29.8523 201.841C29.7516 200.784 29.6911 199.722 29.6279 198.661C29.431 195.352 29.2081 192.046 28.9852 188.74L28.5936 182.932C28.4237 180.413 28.2518 177.879 27.7277 175.432C27.2053 172.955 26.1662 170.682 24.7099 168.83Z" fill="#98CECD"/>
<path opacity="0.1" d="M24.7099 168.83L24.3626 172.074C24.2451 173.172 24.1275 174.271 24.0642 175.376C23.8537 179.051 24.2461 182.74 24.1428 186.422C24.0633 189.256 23.6901 192.089 23.8704 194.916C24.0298 197.417 24.6182 199.845 25.2031 202.252L26.0393 205.692C26.0461 205.795 26.0724 205.894 26.1162 205.983C26.16 206.071 26.2201 206.146 26.2918 206.202C26.3634 206.258 26.4448 206.293 26.5295 206.304C26.6142 206.316 26.6999 206.304 26.7801 206.269L30.4802 205.863C30.2432 204.548 29.9797 203.178 29.8523 201.841C29.7516 200.784 29.6911 199.722 29.6279 198.661C29.431 195.352 29.2081 192.046 28.9852 188.74L28.5936 182.932C28.4237 180.413 28.2518 177.879 27.7277 175.432C27.2053 172.955 26.1662 170.682 24.7099 168.83Z" fill="black"/>
<path d="M31.3016 280.06C31.0837 280.577 30.8941 281.11 30.734 281.657C30.3091 283.166 30.2449 284.784 30.1845 286.376C30.1555 286.683 30.1791 286.995 30.2537 287.29C30.4353 287.863 30.9588 288.153 31.4481 288.312C33.4975 288.979 35.6583 288.351 37.7721 288.123C39.8467 287.898 41.9601 288.06 43.9922 287.507C44.2925 287.438 44.5828 287.316 44.8536 287.145C45.3687 286.74 45.753 286.132 45.942 285.425C46.0038 285.244 46.0454 285.054 46.0656 284.86C46.1327 284.022 45.5291 283.294 44.8717 283.018C44.2143 282.743 43.4995 282.788 42.8075 282.702C41.3839 282.525 40.0482 281.785 39.0071 280.597C37.966 279.409 37.2776 277.839 37.0484 276.129C37.0239 275.947 33.6265 276.054 33.2689 276.292C32.8503 276.57 32.597 277.263 32.3612 277.732C31.9802 278.489 31.627 279.265 31.3016 280.06Z" fill="#3F3D56"/>
<path opacity="0.1" d="M31.3016 280.06C31.0837 280.577 30.8941 281.11 30.734 281.657C30.3091 283.166 30.2449 284.784 30.1845 286.376C30.1555 286.683 30.1791 286.995 30.2537 287.29C30.4353 287.863 30.9588 288.153 31.4481 288.312C33.4975 288.979 35.6583 288.351 37.7721 288.123C39.8467 287.898 41.9601 288.06 43.9922 287.507C44.2925 287.438 44.5828 287.316 44.8536 287.145C45.3687 286.74 45.753 286.132 45.942 285.425C46.0038 285.244 46.0454 285.054 46.0656 284.86C46.1327 284.022 45.5291 283.294 44.8717 283.018C44.2143 282.743 43.4995 282.788 42.8075 282.702C41.3839 282.525 40.0482 281.785 39.0071 280.597C37.966 279.409 37.2776 277.839 37.0484 276.129C37.0239 275.947 33.6265 276.054 33.2689 276.292C32.8503 276.57 32.597 277.263 32.3612 277.732C31.9802 278.489 31.627 279.265 31.3016 280.06Z" fill="black"/>
<path d="M36.9347 280.45C36.7168 280.967 36.5272 281.5 36.367 282.047C35.9422 283.556 35.878 285.173 35.8175 286.766C35.7885 287.073 35.8121 287.384 35.8868 287.68C36.0684 288.253 36.5918 288.543 37.0812 288.702C39.1305 289.369 41.2914 288.741 43.4051 288.512C45.4798 288.288 47.5932 288.45 49.6253 287.896C49.9256 287.828 50.2158 287.706 50.4866 287.534C51.0018 287.129 51.3861 286.522 51.575 285.814C51.6368 285.634 51.6784 285.443 51.6986 285.249C51.7657 284.411 51.1622 283.683 50.5048 283.408C49.8474 283.132 49.1326 283.178 48.4405 283.092C47.0169 282.915 45.6812 282.175 44.6401 280.987C43.5991 279.799 42.9107 278.228 42.6815 276.519C42.657 276.336 39.2595 276.444 38.9019 276.681C38.4834 276.959 38.2301 277.653 37.9943 278.121C37.6133 278.879 37.2601 279.655 36.9347 280.45Z" fill="#3F3D56"/>
<path d="M51.6271 239.872C51.6709 248.127 49.6868 256.196 47.3597 263.955C46.4384 267.027 45.4607 270.072 44.4268 273.091C43.8146 274.879 43.1249 276.864 43.7808 278.63C41.8931 277.76 39.9604 277.247 37.9675 277.648C38.7261 275.778 38.6547 273.599 38.6885 271.517C38.7544 268.689 39.006 265.872 39.4409 263.092C40.1084 258.863 41.2537 254.764 42.8445 250.912C43.167 250.1 43.3893 249.235 43.5042 248.345C43.7107 246.365 43.6157 244.356 43.2238 242.418C42.4966 238.124 41.1162 234.031 39.1529 230.348C39.1467 230.429 39.1405 230.513 39.1329 230.594C39.0142 231.822 38.8433 233.041 38.6209 234.248C38.1753 236.805 37.6558 239.363 37.7334 241.933C37.817 244.66 37.6773 247.389 37.3166 250.082C37.202 251.141 36.9744 252.176 36.6394 253.163C36.4215 253.754 36.1374 254.31 35.9659 254.922C35.7958 255.629 35.7069 256.362 35.7018 257.098C35.4477 263.315 35.698 271.269 36.7483 277.363C34.9784 277.264 33.2197 277.749 31.6597 278.765C30.3904 274.432 29.5817 268.277 28.9771 263.713C28.2925 258.322 28.4316 252.824 29.3877 247.494C29.6851 245.715 29.7965 243.899 29.7195 242.086C29.5842 238.477 28.8507 234.946 28.1222 231.443C27.7516 229.664 27.3811 227.886 27.0106 226.106C26.4836 223.572 25.9557 221.038 25.4271 218.503C25.0765 216.817 24.7223 215.095 24.8325 213.36C24.9099 212.409 25.0749 211.472 25.3244 210.566C26.113 207.481 27.292 204.563 28.8194 201.915C34.9019 202.329 41.0582 201.64 47.1319 201.075C47.4272 201.004 47.7337 201.067 47.9931 201.252C48.1993 201.506 48.3221 201.843 48.3386 202.199C49.0997 207.414 49.8604 212.629 50.6206 217.844C50.9909 220.022 51.2082 222.233 51.2703 224.455C51.2816 226.67 50.9849 228.877 51.0538 231.09C51.1464 234.071 51.6121 236.889 51.6271 239.872Z" fill="#2F2E41"/>
<path opacity="0.1" d="M39.1329 230.594C39.0142 231.822 38.8433 233.041 38.6209 234.248C37.2978 231.479 35.872 228.78 34.654 225.941C34.3398 225.21 34.0407 224.469 33.7402 223.73C33.441 222.991 33.1419 222.251 32.8427 221.512C32.6749 221.097 32.5059 220.681 32.3545 220.255C32.107 219.642 31.9172 218.997 31.7887 218.333C32.2318 218.234 33.3234 219.679 33.6513 220.057C34.3241 220.859 34.9593 221.707 35.554 222.595C36.2736 223.581 36.9342 224.627 37.5306 225.726C38.2929 227.225 38.835 228.872 39.1329 230.594Z" fill="black"/>
<path d="M44.2014 154.608C44.2014 154.608 40.8216 161.122 41.4475 162.485C42.0734 163.848 30.8073 161.273 30.8073 161.273C30.8073 161.273 36.941 154.76 36.3151 152.033C35.6893 149.307 44.2014 154.608 44.2014 154.608Z" fill="#EFB7B9"/>
<path d="M41.1971 156.578C45.4143 156.578 48.8331 152.441 48.8331 147.338C48.8331 142.235 45.4143 138.098 41.1971 138.098C36.9799 138.098 33.5612 142.235 33.5612 147.338C33.5612 152.441 36.9799 156.578 41.1971 156.578Z" fill="#EFB7B9"/>
<path d="M44.3146 161.438C43.4973 160.062 42.3878 158.979 41.1034 158.303C40.364 157.983 39.5996 157.754 38.8221 157.622L35.7756 156.974C35.0289 156.815 34.2298 156.663 33.5372 157.036C33.1831 157.252 32.8608 157.537 32.583 157.88C31.5241 159.066 30.498 160.371 29.1704 161.056C28.807 161.243 28.4269 161.381 28.064 161.57C26.5786 162.344 25.468 163.96 24.837 165.761C24.175 167.652 24.1559 169.7 24.2081 171.752C24.2065 172.46 24.264 173.167 24.3799 173.861C24.5336 174.522 24.7267 175.168 24.9577 175.794C25.3784 177.133 25.7308 178.501 26.0127 179.892C26.802 183.548 27.4581 187.241 27.9812 190.971C28.0268 191.507 28.1571 192.027 28.3651 192.504C28.659 192.979 29.0148 193.392 29.4183 193.728C29.7378 194.049 30.0332 194.403 30.3009 194.786C30.4315 194.95 30.5272 195.15 30.5798 195.369C30.6786 195.92 30.2759 196.392 29.949 196.795C29.2699 197.633 28.7791 198.667 28.523 199.8C28.3634 200.032 28.2825 200.328 28.2964 200.63C28.3618 200.839 28.3862 201.063 28.3676 201.285C28.3049 201.488 28.2069 201.672 28.0804 201.825C27.9348 202.055 27.8312 202.319 27.7766 202.601C27.722 202.882 27.7175 203.175 27.7636 203.459C30.1305 204.703 32.6635 205.421 35.2409 205.577C35.8721 205.612 36.5057 205.613 37.1328 205.706C37.5801 205.773 38.0219 205.887 38.4695 205.95C39.1206 206.024 39.7752 206.044 40.4285 206.01C43.8273 205.929 47.3257 205.822 50.4466 204.192C50.7406 202.255 50.1072 200.282 49.71 198.372C49.0781 195.335 48.9189 192.185 48.4488 189.105C48.127 186.997 47.6597 184.923 47.3917 182.804C47.1237 180.685 47.0609 178.488 47.5423 176.425C47.9689 174.597 48.0977 172.736 48.5398 170.914C48.982 169.091 49.2919 167.115 48.7927 165.314C48.1738 163.081 46.2584 161.315 44.3146 161.438Z" fill="#98CECD"/>
<path d="M48.0646 142.44C48.4359 140.799 47.7057 139.091 46.8321 137.759C45.8934 136.327 44.6805 135.035 43.1995 134.675C41.996 134.383 40.7488 134.735 39.5251 134.618C38.4404 134.514 37.4011 134.043 36.322 133.874C35.3459 133.748 34.3597 133.793 33.3943 134.009C32.4766 134.171 31.5798 134.474 30.7255 134.911C27.475 136.653 25.5704 140.958 25.1285 145.226C24.6866 149.495 25.4615 153.795 26.2318 157.995L26.9282 161.791C27.6529 165.743 28.3801 169.715 28.5741 173.755C28.768 177.796 28.4062 181.944 27.0325 185.635C31.4739 182.748 34.9152 178.033 36.734 172.344C37.2279 170.781 37.5936 169.16 38.1407 167.624C38.6114 166.302 39.2141 165.05 39.6313 163.702C40.1019 162.179 40.3278 160.561 40.297 158.936C40.2733 157.714 40.1043 156.499 40.1338 155.277C40.1632 154.056 40.4199 152.782 41.1177 151.898C41.7379 151.113 42.6192 150.736 43.4185 150.242C44.6754 149.461 45.7734 148.352 46.6334 146.996C47.1366 146.202 47.1634 145.863 47.2914 144.948C47.4159 144.058 47.8691 143.304 48.0646 142.44Z" fill="#2F2E41"/>
<path d="M48.0752 211.852C48.1525 212.802 48.0099 213.776 48.1816 214.707C48.3106 215.407 48.6104 216.044 48.7867 216.729C48.9618 217.522 49.0518 218.34 49.0547 219.162C49.0801 219.85 49.0364 220.688 48.5329 221.011C48.3117 221.153 48.0464 221.155 47.8162 221.274C47.586 221.393 47.3885 221.731 47.5203 221.989C47.6312 222.205 47.8827 222.208 48.0889 222.259C48.2951 222.31 48.522 222.569 48.4023 222.778C48.3543 222.847 48.2902 222.896 48.2186 222.92C48.0078 222.996 47.8082 223.113 47.6271 223.264C47.5373 223.341 47.467 223.447 47.4241 223.57C47.3811 223.693 47.3671 223.828 47.3836 223.96C47.396 224.023 47.4202 224.082 47.4543 224.133C47.4884 224.183 47.5316 224.224 47.5806 224.251C47.6295 224.278 47.683 224.292 47.7369 224.291C47.7908 224.289 47.8437 224.273 47.8916 224.243C47.7993 224.482 47.7488 224.741 47.7434 225.005C48.5492 225.424 49.4562 224.876 50.2145 224.343C50.5434 224.122 50.8609 223.877 51.1653 223.61C51.7759 223.04 52.2621 222.297 52.5815 221.447C52.9008 220.598 53.0437 219.666 52.9977 218.734C52.9626 218.265 52.9032 217.799 52.8198 217.339C52.7022 216.54 52.547 215.748 52.3549 214.97C52.1382 214.149 51.8402 213.363 51.5847 212.558C51.0401 210.844 50.6896 209.048 50.1993 207.31C50.1922 207.227 50.1711 207.146 50.1372 207.074C50.1033 207.001 50.0573 206.938 50.0022 206.887C49.9471 206.837 49.884 206.801 49.8169 206.782C49.7498 206.763 49.6801 206.76 49.6121 206.775C49.0596 206.74 48.5058 206.802 47.9679 206.958C47.6427 207.073 47.1095 207.326 46.9637 207.738C46.8324 208.109 47.0525 208.441 47.1921 208.759C47.6493 209.711 47.9493 210.762 48.0752 211.852Z" fill="#EFB7B9"/>
<path opacity="0.1" d="M47.5586 165.434C47.7215 165.635 47.858 165.864 47.9631 166.115C49.048 168.501 49.0618 171.357 49.1128 174.079C49.1702 177.144 49.3088 180.205 49.4474 183.266L49.8619 192.42C49.9015 193.295 49.9412 194.171 50.0425 195.038C50.5301 195.187 50.5503 195.949 50.4938 196.554C50.1448 200.289 49.2763 204.135 50.1858 207.729C50.2206 207.915 50.2938 208.086 50.3985 208.227C49.9401 208.052 49.4492 208.044 48.987 208.204C48.5337 208.32 48.0977 208.521 47.6459 208.645C47.0711 208.803 46.4194 208.871 46.0271 209.404C45.584 207.789 45.2311 206.139 44.9708 204.466C44.7555 202.946 44.6969 201.366 44.185 199.954C43.9784 199.383 43.7022 198.854 43.4503 198.311C42.1246 195.454 41.4756 192.223 40.8413 189.037C40.5565 187.527 40.4882 185.969 40.6394 184.43C40.7295 183.728 40.7824 183.02 40.7978 182.31C40.7574 181.561 40.6763 180.816 40.555 180.08C40.2872 177.92 40.4126 175.716 40.9225 173.621C41.3975 171.676 41.814 169.63 42.8074 167.996C43.8009 166.362 45.8824 165.462 47.5586 165.434Z" fill="black"/>
<path d="M47.9341 165.131C48.0971 165.332 48.2335 165.561 48.3386 165.812C49.4235 168.198 49.4373 171.054 49.4883 173.776C49.5457 176.841 49.6843 179.902 49.8229 182.963L50.2374 192.117C50.277 192.992 50.3167 193.868 50.4181 194.735C50.9057 194.884 50.9258 195.646 50.8693 196.251C50.5203 199.986 49.6518 203.832 50.5614 207.426C50.5961 207.612 50.6693 207.783 50.774 207.925C50.3156 207.749 49.8247 207.741 49.3626 207.901C48.9092 208.017 48.4733 208.218 48.0215 208.342C47.4466 208.501 46.7949 208.568 46.4027 209.101C45.9595 207.486 45.6066 205.836 45.3464 204.164C45.131 202.643 45.0724 201.063 44.5606 199.651C44.3539 199.08 44.0778 198.551 43.8258 198.008C42.5002 195.151 41.8511 191.92 41.2168 188.735C40.932 187.224 40.8638 185.666 41.015 184.127C41.1051 183.426 41.158 182.717 41.1733 182.007C41.133 181.258 41.0518 180.513 40.9305 179.777C40.6627 177.617 40.7881 175.413 41.298 173.318C41.773 171.373 42.1895 169.327 43.183 167.693C44.1764 166.059 46.2579 165.159 47.9341 165.131Z" fill="#98CECD"/>
<g opacity="0.1">
<path opacity="0.1" d="M46.8321 137.759C45.8934 136.327 44.6805 135.035 43.1995 134.675C41.9959 134.383 40.7488 134.735 39.5251 134.618C38.4404 134.514 37.4011 134.043 36.322 133.874C35.3459 133.748 34.3597 133.793 33.3944 134.009C32.4766 134.171 31.5798 134.474 30.7255 134.911C30.2639 135.159 29.8234 135.462 29.4101 135.814C30.1716 135.465 30.9617 135.215 31.767 135.069C32.7324 134.853 33.7186 134.808 34.6947 134.935C35.7738 135.104 36.8131 135.574 37.8978 135.678C39.1215 135.796 40.3686 135.443 41.5722 135.735C43.0532 136.095 44.266 137.387 45.2047 138.819C46.0783 140.152 46.8086 141.859 46.4373 143.5C46.2417 144.364 45.7886 145.118 45.6641 146.009C45.5361 146.924 45.5093 147.263 45.006 148.056C44.3583 149.076 43.5748 149.959 42.6877 150.668C42.9325 150.527 43.1791 150.39 43.4185 150.242C44.6753 149.461 45.7734 148.352 46.6334 146.996C47.1366 146.202 47.1634 145.863 47.2914 144.948C47.4159 144.058 47.869 143.304 48.0646 142.44C48.4359 140.799 47.7057 139.091 46.8321 137.759Z" fill="black"/>
<path opacity="0.1" d="M41.1177 151.898C41.2489 151.734 41.3918 151.584 41.5446 151.45C40.815 151.877 40.0474 152.253 39.4904 152.959C38.7926 153.842 38.5359 155.116 38.5064 156.338C38.477 157.559 38.6459 158.775 38.6697 159.996C38.7005 161.622 38.4745 163.239 38.004 164.762C37.5868 166.11 36.9841 167.362 36.5134 168.684C35.9663 170.22 35.6006 171.841 35.1067 173.404C33.5289 178.336 30.7271 182.555 27.0866 185.481C27.0681 185.532 27.0514 185.584 27.0325 185.634C31.4739 182.748 34.9152 178.033 36.734 172.344C37.2279 170.781 37.5936 169.16 38.1407 167.623C38.6115 166.302 39.2141 165.05 39.6313 163.702C40.1019 162.179 40.3278 160.561 40.297 158.936C40.2733 157.714 40.1043 156.499 40.1338 155.277C40.1632 154.056 40.42 152.781 41.1177 151.898Z" fill="black"/>
</g>
<path d="M208.815 287.701C208.451 288.232 207.829 288.338 207.266 288.408C206.538 288.536 205.8 288.553 205.069 288.459C204.201 288.303 203.68 288.9 202.887 288.441C202.407 288.163 201.668 288.719 201.188 288.441C200.53 288.06 198.259 287.981 197.858 287.237C197.458 286.494 197.498 285.319 198.132 284.88C198.311 284.777 198.497 284.689 198.686 284.617C199.747 284.107 201.894 280.256 203.022 280.058C203.582 280.027 204.138 280.185 204.627 280.516C205.739 281.113 207.703 281.585 208.189 283.101C208.567 284.283 209.601 286.546 208.815 287.701Z" fill="#2F2E41"/>
<path d="M216.805 287.396C217.168 287.927 217.791 288.034 218.354 288.104C219.081 288.231 219.819 288.248 220.55 288.154C221.419 287.998 222.477 288.9 223.27 288.441C223.75 288.163 224.489 288.307 224.969 288.03C225.627 287.649 228.72 288.498 229.12 287.755C229.521 287.011 229.48 285.836 228.847 285.397C228.667 285.294 228.482 285.206 228.292 285.135C227.232 284.624 223.725 279.951 222.597 279.753C222.037 279.722 221.481 279.88 220.992 280.211C219.88 280.808 217.916 281.28 217.431 282.796C217.053 283.978 216.018 286.241 216.805 287.396Z" fill="#2F2E41"/>
<path d="M220.317 203.458C220.665 204.266 220.969 205.101 221.226 205.957C224.31 215.828 224.568 226.616 224.696 237.169C224.685 238.885 224.766 240.599 224.938 242.303C225.068 243.383 225.272 244.474 225.14 245.554C225.026 246.487 224.663 247.408 224.808 248.335C224.873 248.751 225.038 249.137 225.102 249.552C225.153 250.008 225.142 250.471 225.072 250.923L224.658 254.646C224.423 256.766 223.879 258.809 223.909 260.948C223.929 262.407 223.949 263.869 224.084 265.319C224.22 266.792 224.474 268.253 224.487 269.735C224.496 270.845 224.371 271.949 224.29 273.054C224.175 274.615 224.149 276.184 224.212 277.749C224.26 278.955 224.375 280.208 224.903 281.232C224.311 282.259 223.725 283.18 222.777 283.683C220.85 284.706 218.639 284.359 216.557 283.993C216.672 283.528 216.851 283.001 216.684 282.559C216.586 282.346 216.466 282.148 216.327 281.971C215.872 281.189 215.557 280.301 215.4 279.364C215.148 278.252 214.896 277.056 215.413 275.989C215.592 275.61 215.67 275.173 215.639 274.738C215.208 267.74 213.921 260.499 215.106 253.631C215.233 252.898 215.383 252.169 215.454 251.425C215.518 250.355 215.528 249.281 215.486 248.21L215.461 246.718C215.399 245.126 215.453 243.494 215.189 241.92C215 240.792 214.647 239.659 215.082 238.51C215.177 238.246 215.22 237.96 215.209 237.673C215.198 237.386 215.132 237.106 215.017 236.854C214.103 234.915 213.367 232.86 212.824 230.727C212.711 230.131 212.557 229.547 212.362 228.982C212.097 228.388 211.792 227.82 211.45 227.285C210.418 225.474 209.801 223.374 209.196 221.3C209.26 221.11 209.211 220.845 209.042 220.873C208.876 220.924 208.733 221.053 208.645 221.232C207.815 222.582 207.745 224.382 207.708 226.064C207.645 227.626 207.667 229.192 207.774 230.751C207.845 231.568 207.963 232.378 208.023 233.196C208.103 234.722 208.083 236.253 207.963 237.776L207.54 245.267C207.482 245.886 207.513 246.513 207.631 247.12C207.903 248.17 208.035 249.265 208.023 250.365C207.912 254.89 208.235 259.416 208.987 263.851C209.194 265.075 209.433 266.292 209.609 267.524C210.022 270.426 210.079 273.383 210.135 276.328C210.169 278.138 210.193 280.014 209.604 281.678C209.374 282.191 209.205 282.741 209.102 283.312C209.1 283.606 209.067 283.899 209.006 284.184C208.833 284.722 208.313 284.952 207.847 285.075C206.97 285.306 206.07 285.383 205.175 285.305C204.965 285.301 204.757 285.245 204.565 285.141C204.232 284.932 204.054 284.488 203.8 284.153C203.253 283.429 202.342 283.207 201.843 282.433C201.219 281.466 201.481 280.064 201.853 278.922C202.224 277.78 202.684 276.54 202.364 275.375C201.987 274.002 200.651 273.263 200.293 271.883C201.316 266.319 198.803 260.563 199.018 254.868C199.069 253.542 199.259 252.225 199.263 250.897C199.272 247.476 198.048 244.148 198.249 240.736C198.761 232.066 196.321 223.41 195.287 214.808C195.091 213.524 195.018 212.217 195.069 210.913C195.222 208.76 196.048 206.756 197.042 204.96C197.754 203.673 198.61 202.413 199.789 201.812C200.76 201.316 201.848 201.318 202.901 201.328C205.531 201.352 208.16 201.377 210.789 201.434C212.578 201.404 214.365 201.597 216.121 202.012C217.543 202.405 218.873 203.208 220.317 203.458Z" fill="#2F2E41"/>
<path d="M177.837 163.931C177.582 162.423 178.063 160.81 177.687 159.339C177.551 158.809 177.218 158.258 176.759 158.273C176.314 158.288 176.012 158.816 175.617 159.066C174.981 159.469 174.207 159.103 173.571 158.699C172.935 158.295 172.225 157.838 171.535 158.08C171.454 158.603 171.746 159.102 172.063 159.47C172.415 159.792 172.706 160.2 172.917 160.669C173.021 161.175 173.06 161.697 173.034 162.217C173.106 163.412 173.732 164.441 174.356 165.37C175.363 166.867 176.432 168.302 177.559 169.668C177.557 169.665 179.269 167.102 179.236 166.654C179.205 166.232 178.629 165.837 178.42 165.496C178.134 165.032 177.934 164.498 177.837 163.931Z" fill="#A1616A"/>
<path d="M228.816 195.501C228.968 195.98 229.083 196.476 229.157 196.981C229.599 199.571 229.877 202.197 230.152 204.821C230.225 205.521 230.298 206.222 230.321 206.928C230.398 208.602 230.113 210.272 229.495 211.773C228.865 213.278 227.795 214.444 226.493 215.046C226.092 215.218 225.532 215.25 225.356 214.78C225.294 214.563 225.296 214.327 225.36 214.111C225.519 213.412 225.841 212.785 226.05 212.106C226.36 211.092 226.412 209.988 226.198 208.938C226.116 208.537 225.942 208.089 225.607 208.009C225.774 208.935 225.633 209.903 225.215 210.704C225.119 210.927 224.955 211.096 224.757 211.173C224.619 211.19 224.479 211.149 224.362 211.058C224.245 210.967 224.157 210.83 224.113 210.67C224.031 210.347 224.013 210.005 224.061 209.673C224.168 207.99 224.38 206.319 224.694 204.674C225.068 202.869 225.661 201.088 225.623 199.227C225.588 197.541 225.033 195.886 225.189 194.21C225.191 194.107 225.218 194.006 225.268 193.922C225.317 193.863 225.376 193.818 225.441 193.792C225.831 193.598 226.231 193.437 226.639 193.313C226.88 193.239 227.704 192.893 227.935 193.048C228.122 193.173 228.179 193.924 228.273 194.178C228.438 194.628 228.659 195.046 228.816 195.501Z" fill="#A1616A"/>
<path d="M201.321 145.557C204.463 145.557 207.011 142.474 207.011 138.672C207.011 134.87 204.463 131.788 201.321 131.788C198.179 131.788 195.632 134.87 195.632 138.672C195.632 142.474 198.179 145.557 201.321 145.557Z" fill="#A1616A"/>
<path d="M206.419 143.655C206.418 144.093 206.447 144.531 206.505 144.964C206.583 145.403 206.694 145.831 206.837 146.245C207.027 146.918 207.295 147.555 207.633 148.137C207.977 148.722 208.492 149.128 209.073 149.272C205.185 151.477 201.033 152.929 196.772 153.573C197.443 153.033 198.002 152.311 198.404 151.465C198.617 150.922 198.762 150.344 198.836 149.749C199.199 147.26 199.014 144.7 198.301 142.325C198.231 142.09 198.161 141.803 198.295 141.613C198.352 141.543 198.421 141.489 198.497 141.454C200.187 140.589 202.012 140.177 203.846 140.247C204.314 140.251 204.783 140.276 205.25 140.317C205.502 140.339 206.057 140.275 206.257 140.498C206.496 140.764 206.376 141.589 206.384 141.95L206.419 143.655Z" fill="#A1616A"/>
<path d="M209.429 148.663C208.592 147.365 207.42 146.444 206.1 146.046C204.78 145.648 203.388 145.796 202.146 146.467C199.438 148.032 198.104 151.788 195.723 153.997C195.181 154.487 194.604 154.917 193.998 155.282C193.641 155.521 193.259 155.704 192.863 155.826C192.418 155.944 191.953 155.928 191.51 156.057C190.666 156.357 189.946 157.033 189.496 157.948C189.273 158.427 189.026 158.888 188.756 159.33C188.507 159.688 188.198 159.976 187.935 160.319C186.988 161.55 186.731 163.318 186.515 164.98C185.774 165.924 184.965 166.787 184.098 167.559C183.826 167.812 183.523 168.015 183.201 168.159C182.368 168.486 181.449 168.07 180.739 167.45C180.028 166.829 179.45 166.011 178.75 165.374C178.106 166.487 177.434 167.603 176.749 168.678C176.645 168.883 176.487 169.039 176.301 169.122C176.172 169.646 176.481 170.189 176.712 170.659L177.953 173.182C178.363 174.1 178.866 174.953 179.45 175.72C180.043 176.492 180.853 176.969 181.721 177.057C182.268 177.05 182.811 176.925 183.322 176.686C185.686 175.724 187.856 174.188 190.105 172.883C190.513 172.601 190.969 172.439 191.438 172.41C191.672 172.403 191.902 172.488 192.092 172.654C192.282 172.82 192.422 173.056 192.49 173.327C192.748 174.903 193.004 176.473 193.359 178.021C193.693 179.481 194.004 180.949 194.291 182.424C194.483 183.327 194.619 184.245 194.7 185.172C194.738 185.698 194.742 186.227 194.745 186.755L194.793 193.137C194.798 193.824 194.475 194.252 194.226 194.87C193.844 195.828 193.786 196.929 194.065 197.937C194.205 198.435 194.424 198.895 194.579 199.386C194.954 200.574 194.94 201.881 194.92 203.152L194.875 206.065C194.864 206.185 194.882 206.307 194.927 206.416C195.074 206.693 195.428 206.531 195.652 206.343L196.778 205.399C198.283 205.65 199.804 205.739 201.323 205.665C205.642 205.589 209.963 205.797 214.272 206.162C215.71 206.284 217.196 206.416 218.555 205.835C219.245 205.541 219.88 205.07 220.585 204.834C220.876 204.779 221.152 204.642 221.39 204.433C221.785 203.991 221.68 203.216 221.519 202.596C221.378 202.053 221.219 201.519 221.04 200.992C220.856 200.507 220.706 200.005 220.591 199.491C220.375 198.329 220.585 196.987 219.987 196.041C218.65 193.923 219.597 190.666 219.035 188.088C218.853 187.254 218.585 186.45 218.415 185.613C218.308 185.087 218.24 184.551 218.173 184.016C217.997 182.858 217.909 181.683 217.912 180.506C217.928 179.917 217.989 179.332 218.051 178.747L218.476 174.687C219.007 175.888 219.376 177.183 219.57 178.525C219.956 180.529 220.433 182.506 220.996 184.448C221.317 185.619 221.637 186.79 221.983 187.95C222.203 188.61 222.371 189.293 222.488 189.991C222.564 190.553 222.566 191.127 222.62 191.694C222.737 192.908 223.088 194.073 223.646 195.093C223.749 195.329 223.919 195.512 224.125 195.608C224.265 195.639 224.408 195.632 224.545 195.587C226.047 195.228 227.501 194.62 228.865 193.779C229.155 193.634 229.407 193.395 229.594 193.09C229.961 192.367 229.551 191.465 229.372 190.645C229.181 189.766 229.226 188.708 228.653 188.119C226.661 186.067 227.65 181.902 226.653 178.975C226.478 178.462 226.274 177.962 226.123 177.437C226.008 177.036 225.924 176.623 225.84 176.21C225.144 172.802 224.399 169.408 223.605 166.03C222.781 162.528 222.87 158.88 221.833 155.461C221.638 154.745 221.384 154.054 221.074 153.399C220.723 152.716 220.255 152.132 219.7 151.687C218.196 150.484 216.678 149.459 214.911 149.023C213.145 148.586 211.232 148.654 209.429 148.663Z" fill="#D0CDE1"/>
<path d="M196.151 140.357C195.386 139.859 195.588 138.505 195.458 137.466C195.19 135.328 193.193 134.059 192.724 131.972C193.263 132.053 193.809 131.959 194.309 131.701C194.405 131.008 194.291 130.297 193.989 129.697C195.632 128.889 196.961 127.305 198.628 126.577C200.726 125.662 203.061 126.224 205.177 127.075C206.232 127.499 207.331 128.05 207.969 129.152C208.67 130.363 208.659 131.957 208.621 133.435C208.562 135.752 208.487 138.152 207.634 140.229C206.548 142.872 203.475 145.321 200.935 144.605C199.879 144.307 199.568 143.504 199.123 142.394C198.846 141.703 198.742 140.9 198.118 140.541C197.508 140.189 196.77 140.761 196.151 140.357Z" fill="#2F2E41"/>
<g opacity="0.1">
<path opacity="0.1" d="M219.221 189.717C219.228 189.9 219.232 190.084 219.233 190.269C219.227 190.086 219.223 189.902 219.221 189.717Z" fill="black"/>
<path opacity="0.1" d="M194.579 196.633C194.954 197.82 194.94 199.128 194.92 200.399C194.915 200.731 194.91 201.063 194.905 201.394C194.881 200.709 194.771 200.032 194.579 199.386C194.424 198.895 194.205 198.435 194.065 197.938C193.825 197.067 193.834 196.125 194.09 195.262C194.23 195.73 194.432 196.168 194.579 196.633Z" fill="black"/>
</g>
<g opacity="0.1">
<path opacity="0.1" d="M194.308 130.7L194.303 130.702C194.251 130.346 194.145 130.005 193.989 129.697C194.086 129.649 194.181 129.599 194.275 129.546C194.35 129.924 194.361 130.316 194.308 130.7Z" fill="black"/>
</g>
<path d="M15.0213 116.666L13.6804 115.202C8.91843 109.912 5.77465 106.478 5.77465 102.201C5.76286 101.387 5.88611 100.579 6.13713 99.8237C6.38814 99.0686 6.7618 98.3821 7.236 97.8048C7.7102 97.2275 8.27529 96.7712 8.89783 96.4629C9.52036 96.1546 10.1877 96.0006 10.8603 96.0099C11.6541 96.015 12.4375 96.2291 13.156 96.6374C13.8745 97.0456 14.511 97.6381 15.0213 98.3739C15.5316 97.6381 16.1681 97.0456 16.8866 96.6373C17.6052 96.2291 18.3885 96.015 19.1823 96.0099C19.8549 96.0006 20.5223 96.1546 21.1448 96.4629C21.7673 96.7712 22.3324 97.2275 22.8066 97.8048C23.2808 98.3821 23.6545 99.0686 23.9055 99.8237C24.1565 100.579 24.2798 101.387 24.268 102.201C24.268 106.478 21.1242 109.912 16.3623 115.202L15.0213 116.666Z" fill="#FF6584"/>
<path d="M17.3994 112.966L16.0584 111.502C11.2965 106.212 8.15269 102.779 8.15269 98.5014C8.14089 97.6876 8.26416 96.8792 8.51517 96.124C8.76618 95.3689 9.13984 94.6824 9.61404 94.1051C10.0882 93.5278 10.6533 93.0715 11.2759 92.7632C11.8984 92.4549 12.5657 92.3009 13.2383 92.3102C14.0321 92.3153 14.8155 92.5294 15.534 92.9377C16.2526 93.3459 16.8891 93.9384 17.3993 94.6742C17.9096 93.9384 18.5461 93.3459 19.2647 92.9376C19.9832 92.5294 20.7666 92.3153 21.5603 92.3102C22.233 92.3009 22.9003 92.4549 23.5228 92.7632C24.1454 93.0715 24.7105 93.5278 25.1847 94.1051C25.6589 94.6823 26.0325 95.3689 26.2835 96.124C26.5346 96.8791 26.6578 97.6875 26.646 98.5013C26.646 102.779 23.5022 106.212 18.7403 111.502L17.3994 112.966Z" stroke="#3F3D56" stroke-width="2" stroke-miterlimit="10"/>
</g>
<defs>
<clipPath id="clip0">
<rect width="333" height="289" fill="white"/>
</clipPath>
</defs>
</svg>
