<svg width="399" height="318" viewBox="0 0 399 318" fill="none" xmlns="http://www.w3.org/2000/svg">
<g clip-path="url(#clip0)">
<path d="M187.301 317.748L186.799 317.067C186.898 316.943 196.793 304.331 200.564 280.763C204.047 258.999 202.871 223.168 177.489 176.06C166.884 156.378 159.652 137.781 155.994 120.788C153.005 106.903 152.372 93.9955 154.113 82.4236C157.555 59.5447 169.254 49.5005 169.371 49.4019L169.765 50.1953C169.649 50.2922 158.195 60.1478 154.821 82.6343C150.949 108.433 158.776 139.684 178.084 175.518C189.358 196.443 196.863 216.933 200.39 236.419C203.216 252.029 203.51 267.034 201.265 281.016C197.438 304.847 187.402 317.621 187.301 317.748Z" fill="#F2F2F2"/>
<path d="M162.947 102.097C178.456 102.097 191.028 85.733 191.028 65.5475C191.028 45.3619 178.456 28.9983 162.947 28.9983C147.439 28.9983 134.867 45.3619 134.867 65.5475C134.867 85.733 147.439 102.097 162.947 102.097Z" fill="#F2F2F2"/>
<path d="M169.568 99.5973C162.001 99.5973 154.604 96.6767 148.312 91.2048C142.02 85.7328 137.116 77.9554 134.221 68.8559C131.325 59.7564 130.567 49.7435 132.043 40.0835C133.52 30.4236 137.163 21.5503 142.514 14.5858C147.865 7.62131 154.682 2.87843 162.104 0.956912C169.525 -0.964603 177.218 0.0215547 184.209 3.79067C191.2 7.55979 197.175 13.9426 201.38 22.1319C205.584 30.3213 207.827 39.9493 207.827 49.7985C207.816 63.0014 203.781 75.6591 196.609 84.995C189.436 94.3308 179.711 99.5823 169.568 99.5973ZM169.568 0.944272C162.144 0.944249 154.887 3.80949 148.715 9.17767C142.543 14.5458 137.732 22.1759 134.891 31.1028C132.05 40.0298 131.307 49.8528 132.755 59.3297C134.203 68.8065 137.778 77.5115 143.027 84.3439C148.276 91.1763 154.964 95.8293 162.245 97.7143C169.526 99.5994 177.073 98.6319 183.932 94.9342C190.79 91.2365 196.652 84.9747 200.776 76.9406C204.901 68.9065 207.102 59.461 207.102 49.7985C207.091 36.8461 203.133 24.4283 196.096 15.2696C189.06 6.1108 179.519 0.958951 169.568 0.944272Z" fill="#F2F2F2"/>
<path d="M191.028 178.761C203.888 178.761 214.314 165.191 214.314 148.452C214.314 131.712 203.888 118.143 191.028 118.143C178.167 118.143 167.742 131.712 167.742 148.452C167.742 165.191 178.167 178.761 191.028 178.761Z" fill="#F2F2F2"/>
<path d="M179.156 283.951C192.017 283.951 202.442 270.381 202.442 253.642C202.442 236.903 192.017 223.333 179.156 223.333C166.296 223.333 155.87 236.903 155.87 253.642C155.87 270.381 166.296 283.951 179.156 283.951Z" fill="#F2F2F2"/>
<path d="M276.914 53.822H191.673V126.057H276.914V53.822Z" fill="#98CECD"/>
<path d="M390.65 317.74H311.706C311.706 317.74 310.106 287.191 319.574 286.844C329.042 286.497 327.975 300.383 339.843 281.29C351.711 262.197 366.113 263.239 367.98 274.521C369.847 285.803 364.38 294.828 374.381 292.051C384.383 289.274 398.785 296.564 390.65 317.74Z" fill="#F2F2F2"/>
<path d="M349.845 317.747L349.579 317.733C350.2 297.62 353.437 284.697 356.042 277.398C358.871 269.473 361.597 266.265 361.624 266.233L361.801 266.493C361.774 266.524 359.08 269.7 356.274 277.572C353.683 284.84 350.464 297.71 349.845 317.747Z" fill="white"/>
<path d="M378.417 317.788L378.161 317.691C380.147 309.167 383.725 301.417 388.577 295.135L388.756 295.392C383.941 301.63 380.388 309.325 378.417 317.788Z" fill="white"/>
<path d="M324.14 317.764L323.876 317.716C324.736 310.175 323.826 302.472 321.263 295.617C320.212 292.742 318.82 290.099 317.14 287.786L317.324 287.535C319.027 289.877 320.437 292.552 321.502 295.463C324.088 302.381 325.008 310.154 324.14 317.764Z" fill="white"/>
<path d="M31.0269 317.641L30.8449 317.154C30.7894 317.006 25.3358 302.167 28.3764 287.537C31.4173 272.906 41.8746 263.669 41.9798 263.578L42.3253 263.277L42.5074 263.764C42.5628 263.912 48.0165 278.751 44.9757 293.381C41.935 308.012 31.4777 317.248 31.3725 317.339L31.0269 317.641ZM42.0327 264.686C40.2019 266.419 31.732 275.007 29.0767 287.783C26.4195 300.568 30.4095 313.535 31.3195 316.232C33.1503 314.498 41.6202 305.91 44.2753 293.135C46.9327 280.349 42.9427 267.383 42.0327 264.686Z" fill="#3F3D56"/>
<path d="M16.966 293.258C20.0064 307.887 30.4206 316.947 30.4206 316.947C30.4206 316.947 35.9053 302.289 32.8648 287.66C29.8244 273.031 19.4102 263.971 19.4102 263.971C19.4102 263.971 13.9255 278.629 16.966 293.258Z" fill="#98CECD"/>
<path d="M31.1911 317.436L30.776 317.406C30.6495 317.398 18.0361 316.385 9.69192 305.813C1.34813 295.241 0.231784 278.857 0.221512 278.692L0.187683 278.153L0.602836 278.183C0.729297 278.191 13.3427 279.203 21.6867 289.775C30.0307 300.348 31.147 316.732 31.1573 316.897L31.1911 317.436ZM0.99107 279.171C1.26471 282.096 2.91203 295.905 10.1981 305.137C17.4842 314.369 28.1338 316.141 30.3877 316.418C30.1141 313.493 28.4668 299.684 21.1805 290.452C13.8891 281.213 3.24394 279.447 0.99107 279.171Z" fill="#3F3D56"/>
<path d="M40.1578 290.114C31.8148 300.685 30.7957 316.935 30.7957 316.935C30.7957 316.935 43.3034 316.046 51.6464 305.475C59.9894 294.904 61.0085 278.654 61.0085 278.654C61.0085 278.654 48.5008 279.543 40.1578 290.114Z" fill="#3F3D56"/>
<path d="M107.988 198.522C99.6448 209.093 98.6257 225.343 98.6257 225.343C98.6257 225.343 111.133 224.454 119.476 213.883C127.819 203.312 128.839 187.062 128.839 187.062C128.839 187.062 116.331 187.951 107.988 198.522Z" fill="#3F3D56"/>
<path d="M30.6218 261.557C33.6268 261.557 36.0627 258.386 36.0627 254.475C36.0627 250.564 33.6268 247.393 30.6218 247.393C27.6169 247.393 25.1809 250.564 25.1809 254.475C25.1809 258.386 27.6169 261.557 30.6218 261.557Z" fill="#98CECD"/>
<path d="M96.6315 317.276L96.1287 316.595C96.2077 316.496 104.056 306.49 107.046 287.792C109.806 270.523 108.869 242.089 88.724 204.701C73.2739 176.026 67.0216 150.973 70.1411 130.239C72.8814 112.023 82.2016 104.021 82.2954 103.943L82.6885 104.736C82.5973 104.813 73.5214 112.626 70.8485 130.45C67.7791 150.917 73.9931 175.717 89.318 204.159C98.2801 220.793 104.246 237.082 107.051 252.574C109.298 264.989 109.532 276.923 107.746 288.044C104.701 307.006 96.7119 317.175 96.6315 317.276Z" fill="#3F3D56"/>
<path d="M93.0109 127.474C129.07 127.474 158.302 120.946 158.302 112.894C158.302 104.842 129.07 98.3149 93.0109 98.3149C56.9518 98.3149 27.72 104.842 27.72 112.894C27.72 120.946 56.9518 127.474 93.0109 127.474Z" fill="#98CECD"/>
<path d="M80.8596 123.224C35.6035 123.224 0.152771 115.137 0.152771 104.812C0.152771 94.4866 35.6035 86.3987 80.8596 86.3987C126.116 86.3987 161.566 94.4866 161.566 104.812C161.566 115.137 126.116 123.224 80.8596 123.224ZM80.8596 87.3429C37.5052 87.3429 0.878226 95.3425 0.878226 104.812C0.878226 114.281 37.5052 122.28 80.8596 122.28C124.214 122.28 160.841 114.281 160.841 104.812C160.841 95.3425 124.214 87.3429 80.8596 87.3429Z" fill="#3F3D56"/>
<path d="M99.1993 33.2585C99.1993 33.2585 89.524 29.7111 86.6623 46.916C83.8006 64.1208 85.981 72.812 85.981 72.812L107.58 69.5306C107.58 69.5306 113.712 38.4909 99.1993 33.2585Z" fill="#2F2E41"/>
<path d="M84.724 107.776C84.724 107.776 70.5319 109.616 73.0597 117.074C75.5875 124.531 75.5875 125.189 75.5875 125.189L88.0578 154.143L92.1023 148.659C92.1023 148.659 87.5523 135.718 87.5523 131.55C87.5523 127.383 82.8338 120.145 82.8338 120.145L91.0912 119.267L84.724 107.776Z" fill="#A0616A"/>
<path d="M123.615 116.635L128.334 130.015C128.334 130.015 131.873 134.621 135.748 153.046C139.624 171.471 140.467 170.813 140.467 170.813L134.569 172.348C134.569 172.348 127.997 152.388 125.806 150.853C123.615 149.317 120.919 135.279 120.919 135.279L113.167 122.557L115.526 115.758L123.615 116.635Z" fill="#A0616A"/>
<path d="M117.886 101.281L125.132 118.829C125.132 118.829 116.032 113.345 114.684 125.409L106.426 117.074C106.426 117.074 94.9671 121.9 88.0579 120.145C88.0579 120.145 90.0801 111.81 82.8338 108.081L99.1801 105.449L98.506 100.843L100.191 96.4558L117.886 101.281Z" fill="#2F2E41"/>
<path d="M89.0689 150.195C89.0689 150.195 84.519 149.317 85.6986 154.581L88.0578 165.11C88.0578 165.11 85.0245 175.858 89.743 173.445C94.4615 171.032 97.4949 156.117 97.4949 156.117C97.4949 156.117 99.5171 144.711 97.4949 144.711C95.4727 144.711 89.069 142.956 89.743 144.711C90.4171 146.466 89.0689 150.195 89.0689 150.195Z" fill="#2F2E41"/>
<path d="M139.961 167.742C139.961 167.742 134.063 165.768 132.715 168.839C131.367 171.91 131.704 181.999 131.704 182.219C131.704 182.438 133.726 184.631 134.4 184.631C135.074 184.631 139.287 194.502 145.017 190.992C150.747 187.483 139.961 167.742 139.961 167.742Z" fill="#2F2E41"/>
<path d="M97.4949 60.0448C101.125 60.0448 104.067 56.2148 104.067 51.4904C104.067 46.766 101.125 42.936 97.4949 42.936C93.8651 42.936 90.9227 46.766 90.9227 51.4904C90.9227 56.2148 93.8651 60.0448 97.4949 60.0448Z" fill="#A0616A"/>
<path d="M102.887 53.2451C102.887 53.2451 104.236 62.4575 105.415 63.7736C106.595 65.0896 96.4838 67.0637 96.4838 67.0637C96.4838 67.0637 98.0004 60.7028 96.1467 57.4126C94.293 54.1225 102.887 53.2451 102.887 53.2451Z" fill="#A0616A"/>
<path d="M120.582 105.449C119.434 105.449 116.512 104.83 113.236 104.034C110.402 103.345 107.299 102.527 104.852 101.865C102.232 101.154 100.36 100.623 100.36 100.623C100.36 100.623 99.6856 106.107 97.4949 105.449C95.6075 104.883 89.9672 79.2396 88.4421 72.1527C88.3306 71.6352 88.3521 71.0845 88.5033 70.5844C88.6545 70.0843 88.9271 69.6622 89.2796 69.3824L97.0264 63.2254L99.0115 64.2124C99.0115 64.2124 102.365 60.8389 104.311 60.7709C106.258 60.703 109.628 60.0449 109.628 60.0449C109.628 60.0449 113.504 60.4836 114.178 64.2124C114.852 67.9413 115.189 91.1916 117.717 95.3591C120.245 99.5266 123.784 105.449 120.582 105.449Z" fill="#D0CDE1"/>
<path d="M96.9893 117.732C96.9893 117.732 96.9893 126.286 101.371 124.97C105.752 123.654 101.708 115.758 101.708 115.758L96.9893 117.732Z" fill="#A0616A"/>
<path d="M109.123 118.609C109.123 118.609 107.606 128.699 104.404 127.164C101.202 125.628 104.404 116.635 104.404 116.635L109.123 118.609Z" fill="#A0616A"/>
<path opacity="0.15" d="M116.2 94.701C116.2 94.701 114.551 99.8249 113.236 104.034C110.402 103.345 107.299 102.527 104.852 101.865C105.028 101.259 105.275 100.692 105.584 100.185C106.763 98.4298 106.089 97.9912 106.089 97.9912C105.078 95.3591 105.921 91.8496 105.921 91.8496C103.899 84.8306 106.932 76.0569 106.932 76.0569L116.2 94.701Z" fill="black"/>
<path d="M107.437 76.0567C107.437 76.0567 104.404 84.8304 106.426 91.8494C106.426 91.8494 105.584 95.3589 106.595 97.991C106.595 97.991 107.269 98.4297 106.089 100.184C104.91 101.939 103.899 108.081 104.741 109.397C105.584 110.713 103.562 113.126 104.067 114.442C104.573 115.758 103.224 117.513 103.224 117.513C103.224 117.513 108.28 118.829 109.123 120.803C109.123 120.803 110.134 119.267 109.628 117.513C109.123 115.758 109.46 115.1 109.965 114.003C110.471 112.906 111.987 110.494 112.156 109.397C112.324 108.3 116.706 94.7009 116.706 94.7009L114.651 69.9182L107.437 76.0567Z" fill="#D0CDE1"/>
<path d="M89.9115 69.9153L89.5967 69.9898C89.1577 70.0934 88.7609 70.3954 88.4762 70.8425C88.1916 71.2896 88.0373 71.8531 88.0405 72.4338C88.0525 74.6361 88.1478 78.5444 88.5634 83.9532C89.2375 92.7269 91.5967 105.887 92.1023 107.204C92.9051 109.532 93.8052 111.802 94.7986 114.003C96.3152 117.293 96.6523 116.197 96.3152 117.732C96.2127 118.155 96.2058 118.607 96.2955 119.035C96.3851 119.463 96.5675 119.848 96.8208 120.145C96.8208 120.145 99.8541 115.758 102.887 118.171C103.104 117.55 103.219 116.878 103.224 116.197C103.224 115.1 103.73 114.003 102.887 113.345C102.045 112.687 103.393 109.836 102.045 108.3C100.697 106.765 100.528 106.984 100.697 105.449C100.775 104.405 100.66 103.352 100.36 102.378L89.9115 69.9153Z" fill="#D0CDE1"/>
<path d="M99.9519 40.502C99.9519 40.502 97.2265 49.9026 90.5492 53.8047L89.459 45.4683L99.9519 40.502Z" fill="#2F2E41"/>
<path d="M103.899 50.5034C104.41 50.5034 104.825 49.4723 104.825 48.2003C104.825 46.9283 104.41 45.8972 103.899 45.8972C103.387 45.8972 102.972 46.9283 102.972 48.2003C102.972 49.4723 103.387 50.5034 103.899 50.5034Z" fill="#A0616A"/>
<path d="M294.467 169.427C300.968 169.427 306.239 162.567 306.239 154.104C306.239 145.642 300.968 138.782 294.467 138.782C287.965 138.782 282.695 145.642 282.695 154.104C282.695 162.567 287.965 169.427 294.467 169.427Z" fill="#2F2E41"/>
<path d="M292.894 139.069C295.054 139.069 296.805 136.791 296.805 133.98C296.805 131.169 295.054 128.89 292.894 128.89C290.735 128.89 288.984 131.169 288.984 133.98C288.984 136.791 290.735 139.069 292.894 139.069Z" fill="#2F2E41"/>
<path d="M288.494 137.132C287.891 136.144 287.592 134.9 287.654 133.642C287.715 132.383 288.134 131.199 288.828 130.319C288.719 130.411 288.612 130.51 288.508 130.617C288.106 131.033 287.771 131.548 287.522 132.132C287.272 132.716 287.114 133.359 287.056 134.023C286.997 134.687 287.04 135.359 287.181 136.002C287.322 136.645 287.559 137.245 287.879 137.768C288.198 138.292 288.593 138.728 289.042 139.052C289.491 139.377 289.985 139.583 290.495 139.659C291.005 139.735 291.522 139.68 292.016 139.496C292.51 139.312 292.971 139.003 293.373 138.588C293.477 138.48 293.575 138.367 293.668 138.249C292.853 138.93 291.872 139.193 290.916 138.987C289.96 138.78 289.097 138.119 288.494 137.132Z" fill="#2F2E41"/>
<path d="M275.185 209.515L268.371 217.019C268.371 217.019 258.151 221.112 263.13 225.546C268.109 229.98 270.992 220.089 270.992 220.089L279.378 213.267L275.185 209.515Z" fill="#FFB9B9"/>
<path d="M289.86 176.77L289.074 176.087C289.074 176.087 285.929 176.087 285.405 180.181C284.881 184.274 283.309 192.801 283.309 192.801C283.309 192.801 278.068 196.894 278.592 204.398L273.088 210.538C273.088 210.538 279.64 213.267 278.33 215.654L288.026 204.057L288.288 181.886L289.86 176.77Z" fill="#2F2E41"/>
<path d="M293.005 168.924C296.768 168.924 299.818 164.954 299.818 160.056C299.818 155.158 296.768 151.188 293.005 151.188C289.242 151.188 286.191 155.158 286.191 160.056C286.191 164.954 289.242 168.924 293.005 168.924Z" fill="#FFB9B9"/>
<path d="M290.908 166.196C290.908 166.196 295.101 172.335 292.481 175.746C289.86 179.157 289.074 195.871 289.074 195.871L300.605 173.018C300.605 173.018 297.46 164.831 297.722 162.103L290.908 166.196Z" fill="#FFB9B9"/>
<path d="M290.122 190.072C290.122 190.072 296.412 172.092 299.818 170.849L308.728 173.7C308.728 173.7 301.653 205.422 302.439 208.492C303.225 211.561 307.68 215.996 306.108 242.942C306.108 242.942 326.286 291.037 321.307 299.223C316.328 307.409 297.722 313.549 297.46 311.161C297.198 308.774 288.812 271.935 290.122 260.679C290.122 260.679 290.122 309.456 288.55 310.479C286.978 311.502 261.82 319.006 262.606 313.208C263.392 307.409 275.971 243.624 275.971 243.624L285.667 204.057L285.929 198.259C285.929 198.259 281.736 194.507 284.881 185.979C288.026 177.452 289.074 176.087 289.074 176.087L292.849 175.165C292.849 175.165 289.336 187.685 290.122 190.072Z" fill="#2F2E41"/>
<path d="M304.273 215.655L301.129 224.523C301.129 224.523 293.005 235.779 298.77 236.12C304.536 236.461 305.06 225.887 305.06 225.887L309.253 215.655H304.273Z" fill="#FFB9B9"/>
<path d="M305.322 174.041H308.729C308.729 174.041 309.777 171.994 310.825 180.522C311.873 189.049 311.349 202.011 311.349 202.011L309.777 219.066C309.777 219.066 304.273 216.337 302.963 217.019C301.653 217.701 302.963 216.678 302.963 216.678L305.322 205.081L302.439 188.367L305.322 174.041Z" fill="#2F2E41"/>
<path d="M292.315 146.979C287.865 148.553 284.829 152.568 285.534 155.947C285.85 157.459 286.863 158.585 288.283 159.229L289.529 157.217L289.586 159.658C289.783 159.702 289.983 159.741 290.189 159.77L291.772 155.431L292.674 159.754C293.416 159.651 294.15 159.471 294.87 159.216C299.32 157.642 302.356 153.627 301.651 150.248C300.945 146.869 296.766 145.405 292.315 146.979Z" fill="#2F2E41"/>
<path d="M299.949 159.886C300.384 159.886 300.736 159.122 300.736 158.18C300.736 157.238 300.384 156.475 299.949 156.475C299.515 156.475 299.163 157.238 299.163 158.18C299.163 159.122 299.515 159.886 299.949 159.886Z" fill="#FFB9B9"/>
<path d="M273.286 317.74C276.692 317.74 279.453 316.154 279.453 314.199C279.453 312.243 276.692 310.658 273.286 310.658C269.881 310.658 267.12 312.243 267.12 314.199C267.12 316.154 269.881 317.74 273.286 317.74Z" fill="#2F2E41"/>
<path d="M306.757 316.053C311.006 313.874 313.854 310.14 313.12 307.715C312.385 305.289 308.345 305.089 304.097 307.269C299.849 309.448 297 313.182 297.735 315.608C298.47 318.033 302.509 318.233 306.757 316.053Z" fill="#2F2E41"/>
<path d="M265.115 221.081C265.007 221.046 254.25 217.482 250.157 203.326C245.491 187.192 250.976 164.439 266.46 135.701C285.373 100.6 286.4 88.8056 283.931 85.0924C280.808 80.3956 271.009 86.7555 270.911 86.8202L270.584 85.9774C271.007 85.699 280.987 79.2231 284.479 84.4739C288.317 90.2441 282.454 107.661 267.054 136.243C258.664 151.816 253.179 165.794 250.754 177.79C248.787 187.515 248.813 195.989 250.831 202.979C254.784 216.669 265.183 220.13 265.288 220.163L265.115 221.081Z" fill="#3F3D56"/>
<path d="M271.11 114.726H180.065V37.2979H271.11V114.726ZM180.791 113.782H270.385V38.2421H180.791V113.782Z" fill="#3F3D56"/>
<path d="M217.982 86.2816C220.092 86.2816 221.803 84.0552 221.803 81.3087C221.803 78.5623 220.092 76.3359 217.982 76.3359C215.872 76.3359 214.162 78.5623 214.162 81.3087C214.162 84.0552 215.872 86.2816 217.982 86.2816Z" fill="#3F3D56"/>
<path d="M250.604 86.2816C252.714 86.2816 254.425 84.0552 254.425 81.3087C254.425 78.5623 252.714 76.3359 250.604 76.3359C248.494 76.3359 246.783 78.5623 246.783 81.3087C246.783 84.0552 248.494 86.2816 250.604 86.2816Z" fill="#3F3D56"/>
<path d="M250.604 101.583C250.604 103.061 243.236 107.32 234.146 107.32C225.057 107.32 217.689 103.061 217.689 101.583C217.689 100.104 225.057 101.965 234.146 101.965C243.236 101.965 250.604 100.104 250.604 101.583Z" fill="#3F3D56"/>
<path d="M399 317.056H0V318H399V317.056Z" fill="#3F3D56"/>
</g>
<defs>
<clipPath id="clip0">
<rect width="399" height="318" fill="white"/>
</clipPath>
</defs>
</svg>
